M48
;DRILL file {KiCad (5.0.0)} date 08/17/19 11:44:35
;FORMAT={-:-/ absolute / inch / decimal}
FMAT,2
INCH,TZ
T1C0.0118
T2C0.0157
T3C0.0236
T4C0.0256
T5C0.0300
T6C0.0315
T7C0.0362
T8C0.0394
T9C0.0917
T10C0.1181
%
G90
G05
M72
T1
X4.355Y-4.8025
X4.495Y-4.6846
X4.5775Y-4.9725
X4.6Y-4.8327
X4.7875Y-5.
X4.8Y-2.75
X4.8Y-3.5
X4.8Y-4.05
X4.9425Y-4.805
X5.01Y-5.0405
X5.06Y-4.85
X5.06Y-5.0107
X5.11Y-5.02
X5.15Y-4.15
X5.3957Y-4.85
X5.45Y-3.65
X5.4695Y-3.2
X5.475Y-2.5
X5.6Y-4.15
X5.62Y-5.315
X5.64Y-3.79
X5.785Y-5.13
X5.925Y-5.3
X5.9275Y-2.6975
X5.9275Y-2.8
X5.98Y-5.3
X6.025Y-5.555
X6.075Y-3.77
X6.075Y-5.705
X6.085Y-5.61
X6.115Y-5.705
X6.175Y-5.55
X6.205Y-5.55
X6.225Y-3.7
X6.225Y-5.31
X6.255Y-4.955
X6.27Y-5.205
X6.27Y-5.6943
X6.32Y-5.555
X6.3775Y-3.9625
X6.3809Y-4.031
X6.395Y-5.3
X6.5Y-3.375
X6.55Y-4.2
X6.75Y-3.75
X6.85Y-5.35
X7.15Y-4.335
X7.235Y-4.2
X7.285Y-4.1
X7.43Y-4.14
X7.71Y-4.205
X7.71Y-4.34
T2
X4.56Y-4.0476
X4.675Y-4.82
X4.755Y-4.6846
X4.845Y-4.6846
X4.925Y-4.47
X5.005Y-4.825
X5.065Y-4.71
X5.56Y-4.78
X5.64Y-4.865
X6.015Y-4.865
X6.42Y-3.23
X6.525Y-5.19
X7.095Y-3.125
X7.43Y-4.185
X7.4404Y-4.3
X7.535Y-3.335
X7.565Y-4.415
T3
X4.575Y-4.4197
X4.6242Y-4.4197
X4.6734Y-4.4197
X4.7226Y-4.4197
X4.7719Y-4.4197
X4.8211Y-4.4197
X7.5963Y-4.7
X7.675Y-4.7
X7.3463Y-4.7
X7.425Y-4.7
T4
X4.6823Y-4.8994
X4.6823Y-4.9494
X4.7323Y-4.8994
X4.7323Y-4.9494
X4.7823Y-4.8994
X4.7823Y-4.9494
T5
X5.7Y-2.65
X5.7Y-2.75
X5.7Y-2.85
X5.7Y-2.95
X5.7Y-3.05
X5.7Y-3.15
X5.7Y-3.25
X5.7Y-3.35
X5.7Y-3.45
X5.7Y-3.55
X5.7Y-3.65
X5.7Y-3.75
X5.7Y-3.85
X5.7Y-3.95
X6.Y-2.65
X6.Y-2.75
X6.Y-2.85
X6.Y-2.95
X6.Y-3.05
X6.Y-3.15
X6.Y-3.25
X6.Y-3.35
X6.Y-3.45
X6.Y-3.55
X6.Y-3.65
X6.Y-3.75
X6.Y-3.85
X6.Y-3.95
X6.3Y-2.65
X6.3Y-2.75
X6.3Y-2.85
X6.3Y-2.95
X6.3Y-3.05
X6.3Y-3.15
X6.3Y-3.25
X6.3Y-3.35
X6.3Y-3.45
X6.3Y-3.55
X6.3Y-3.65
X6.3Y-3.75
X6.3Y-3.85
X6.3Y-3.95
T6
X6.6Y-2.9
X6.6Y-3.2
X6.7Y-2.9
X6.7Y-3.2
X6.8Y-2.9
X6.8Y-3.2
X6.9Y-2.9
X6.9Y-3.2
X4.5Y-2.425
X4.5Y-2.525
X4.5Y-2.625
X4.5Y-2.725
X4.5Y-2.825
X4.5Y-2.925
X4.5Y-3.025
X4.5Y-3.125
X4.5Y-3.225
X4.5Y-3.325
X4.5Y-3.425
X4.5Y-3.525
X4.5Y-3.625
X4.5Y-3.725
X4.5Y-3.825
X4.5Y-3.925
X5.1Y-2.425
X5.1Y-2.525
X5.1Y-2.625
X5.1Y-2.725
X5.1Y-2.825
X5.1Y-2.925
X5.1Y-3.025
X5.1Y-3.125
X5.1Y-3.225
X5.1Y-3.325
X5.1Y-3.425
X5.1Y-3.525
X5.1Y-3.625
X5.1Y-3.725
X5.1Y-3.825
X5.1Y-3.925
X5.775Y-4.4
X5.9679Y-4.4
X6.6Y-2.4
X6.6Y-2.7
X6.7Y-2.4
X6.7Y-2.7
X6.8Y-2.4
X6.8Y-2.7
X6.9Y-2.4
X6.9Y-2.7
X7.Y-2.4
X7.Y-2.7
X7.1Y-2.4
X7.1Y-2.7
X7.2Y-2.4
X7.2Y-2.7
X6.7Y-3.5
X6.7Y-3.6
X6.7Y-3.7
X6.7Y-3.8
X6.7Y-3.9
X6.7Y-4.
X6.7Y-4.1
X6.7Y-4.2
X6.7Y-4.3
X6.7Y-4.4
X7.Y-3.5
X7.Y-3.6
X7.Y-3.7
X7.Y-3.8
X7.Y-3.9
X7.Y-4.
X7.Y-4.1
X7.Y-4.2
X7.Y-4.3
X7.Y-4.4
X7.45Y-2.525
X7.45Y-2.625
X7.45Y-2.725
X7.45Y-2.825
X7.45Y-2.925
X7.45Y-3.025
X7.45Y-3.125
X7.45Y-3.225
X7.45Y-3.325
X7.45Y-3.425
X7.45Y-3.525
X7.45Y-3.625
X7.45Y-3.725
X7.45Y-3.825
X7.75Y-2.525
X7.75Y-2.625
X7.75Y-2.725
X7.75Y-2.825
X7.75Y-2.925
X7.75Y-3.025
X7.75Y-3.125
X7.75Y-3.225
X7.75Y-3.325
X7.75Y-3.425
X7.75Y-3.525
X7.75Y-3.625
X7.75Y-3.725
X7.75Y-3.825
X7.225Y-3.25
X7.225Y-3.4429
X6.7Y-4.65
X6.7Y-4.75
X6.7Y-4.85
X6.7Y-4.95
X7.Y-4.65
X7.Y-4.75
X7.Y-4.85
X7.Y-4.95
T7
X7.3Y-5.15
X7.3Y-5.2484
X7.3787Y-5.15
X7.3787Y-5.2484
T8
X4.6012Y-5.324
X4.7012Y-5.324
X4.8012Y-5.324
X4.9012Y-5.324
X5.0012Y-5.324
X4.2706Y-4.875
X4.2706Y-4.975
X4.3706Y-4.875
X4.3706Y-4.975
X4.4706Y-4.875
X4.4706Y-4.975
T9
X7.4854Y-4.9622
X7.4854Y-5.4362
T10
X4.15Y-2.15
X7.75Y-2.15
X7.75Y-5.65
X4.15Y-5.65
T5
X5.8453Y-2.65G85X5.8547Y-2.65
G05
X5.8433Y-2.75G85X5.8567Y-2.75
G05
X5.8433Y-2.85G85X5.8567Y-2.85
G05
X5.8433Y-2.95G85X5.8567Y-2.95
G05
X5.8433Y-3.05G85X5.8567Y-3.05
G05
X5.8433Y-3.15G85X5.8567Y-3.15
G05
X5.8433Y-3.25G85X5.8567Y-3.25
G05
X5.8433Y-3.35G85X5.8567Y-3.35
G05
X5.8433Y-3.45G85X5.8567Y-3.45
G05
X5.8433Y-3.55G85X5.8567Y-3.55
G05
X5.8433Y-3.65G85X5.8567Y-3.65
G05
X5.8433Y-3.75G85X5.8567Y-3.75
G05
X5.8433Y-3.85G85X5.8567Y-3.85
G05
X5.8433Y-3.95G85X5.8567Y-3.95
G05
X6.1433Y-2.65G85X6.1567Y-2.65
G05
X6.1433Y-2.75G85X6.1567Y-2.75
G05
X6.1433Y-2.85G85X6.1567Y-2.85
G05
X6.1433Y-2.95G85X6.1567Y-2.95
G05
X6.1433Y-3.05G85X6.1567Y-3.05
G05
X6.1433Y-3.15G85X6.1567Y-3.15
G05
X6.1433Y-3.25G85X6.1567Y-3.25
G05
X6.1433Y-3.35G85X6.1567Y-3.35
G05
X6.1433Y-3.45G85X6.1567Y-3.45
G05
X6.1433Y-3.55G85X6.1567Y-3.55
G05
X6.1433Y-3.65G85X6.1567Y-3.65
G05
X6.1433Y-3.75G85X6.1567Y-3.75
G05
X6.1433Y-3.85G85X6.1567Y-3.85
G05
X6.1433Y-3.95G85X6.1567Y-3.95
G05
T0
M30
