G04 #@! TF.GenerationSoftware,KiCad,Pcbnew,(5.0.0)*
G04 #@! TF.CreationDate,2019-08-17T11:44:38-04:00*
G04 #@! TF.ProjectId,Multi Programmer,4D756C74692050726F6772616D6D6572,rev?*
G04 #@! TF.SameCoordinates,Original*
G04 #@! TF.FileFunction,Soldermask,Bot*
G04 #@! TF.FilePolarity,Negative*
%FSLAX46Y46*%
G04 Gerber Fmt 4.6, Leading zero omitted, Abs format (unit mm)*
G04 Created by KiCad (PCBNEW (5.0.0)) date 08/17/19 11:44:38*
%MOMM*%
%LPD*%
G01*
G04 APERTURE LIST*
%ADD10C,0.100000*%
%ADD11C,1.350000*%
%ADD12C,1.700000*%
%ADD13R,1.800000X1.800000*%
%ADD14O,1.800000X1.800000*%
%ADD15R,1.100000X1.100000*%
%ADD16C,1.450000*%
%ADD17R,1.400000X1.400000*%
%ADD18C,1.400000*%
%ADD19C,1.500000*%
%ADD20R,1.900000X1.900000*%
%ADD21O,1.900000X1.900000*%
%ADD22C,1.190600*%
%ADD23R,1.100000X1.600000*%
%ADD24O,1.100000X1.600000*%
%ADD25R,1.200000X1.200000*%
%ADD26O,1.200000X1.200000*%
%ADD27R,2.000000X1.724000*%
%ADD28O,2.100000X1.724000*%
%ADD29R,1.724000X1.724000*%
%ADD30C,1.724000*%
%ADD31C,1.900000*%
%ADD32C,3.700000*%
%ADD33C,4.200000*%
G04 APERTURE END LIST*
D10*
G04 #@! TO.C,C25*
G36*
X152565289Y-106516413D02*
X152593778Y-106520639D01*
X152621715Y-106527637D01*
X152648832Y-106537340D01*
X152674867Y-106549653D01*
X152699570Y-106564460D01*
X152722703Y-106581616D01*
X152744043Y-106600957D01*
X152763384Y-106622297D01*
X152780540Y-106645430D01*
X152795347Y-106670133D01*
X152807660Y-106696168D01*
X152817363Y-106723285D01*
X152824361Y-106751222D01*
X152828587Y-106779711D01*
X152830000Y-106808477D01*
X152830000Y-107821523D01*
X152828587Y-107850289D01*
X152824361Y-107878778D01*
X152817363Y-107906715D01*
X152807660Y-107933832D01*
X152795347Y-107959867D01*
X152780540Y-107984570D01*
X152763384Y-108007703D01*
X152744043Y-108029043D01*
X152722703Y-108048384D01*
X152699570Y-108065540D01*
X152674867Y-108080347D01*
X152648832Y-108092660D01*
X152621715Y-108102363D01*
X152593778Y-108109361D01*
X152565289Y-108113587D01*
X152536523Y-108115000D01*
X151773477Y-108115000D01*
X151744711Y-108113587D01*
X151716222Y-108109361D01*
X151688285Y-108102363D01*
X151661168Y-108092660D01*
X151635133Y-108080347D01*
X151610430Y-108065540D01*
X151587297Y-108048384D01*
X151565957Y-108029043D01*
X151546616Y-108007703D01*
X151529460Y-107984570D01*
X151514653Y-107959867D01*
X151502340Y-107933832D01*
X151492637Y-107906715D01*
X151485639Y-107878778D01*
X151481413Y-107850289D01*
X151480000Y-107821523D01*
X151480000Y-106808477D01*
X151481413Y-106779711D01*
X151485639Y-106751222D01*
X151492637Y-106723285D01*
X151502340Y-106696168D01*
X151514653Y-106670133D01*
X151529460Y-106645430D01*
X151546616Y-106622297D01*
X151565957Y-106600957D01*
X151587297Y-106581616D01*
X151610430Y-106564460D01*
X151635133Y-106549653D01*
X151661168Y-106537340D01*
X151688285Y-106527637D01*
X151716222Y-106520639D01*
X151744711Y-106516413D01*
X151773477Y-106515000D01*
X152536523Y-106515000D01*
X152565289Y-106516413D01*
X152565289Y-106516413D01*
G37*
D11*
X152155000Y-107315000D03*
D10*
G36*
X150515289Y-106516413D02*
X150543778Y-106520639D01*
X150571715Y-106527637D01*
X150598832Y-106537340D01*
X150624867Y-106549653D01*
X150649570Y-106564460D01*
X150672703Y-106581616D01*
X150694043Y-106600957D01*
X150713384Y-106622297D01*
X150730540Y-106645430D01*
X150745347Y-106670133D01*
X150757660Y-106696168D01*
X150767363Y-106723285D01*
X150774361Y-106751222D01*
X150778587Y-106779711D01*
X150780000Y-106808477D01*
X150780000Y-107821523D01*
X150778587Y-107850289D01*
X150774361Y-107878778D01*
X150767363Y-107906715D01*
X150757660Y-107933832D01*
X150745347Y-107959867D01*
X150730540Y-107984570D01*
X150713384Y-108007703D01*
X150694043Y-108029043D01*
X150672703Y-108048384D01*
X150649570Y-108065540D01*
X150624867Y-108080347D01*
X150598832Y-108092660D01*
X150571715Y-108102363D01*
X150543778Y-108109361D01*
X150515289Y-108113587D01*
X150486523Y-108115000D01*
X149723477Y-108115000D01*
X149694711Y-108113587D01*
X149666222Y-108109361D01*
X149638285Y-108102363D01*
X149611168Y-108092660D01*
X149585133Y-108080347D01*
X149560430Y-108065540D01*
X149537297Y-108048384D01*
X149515957Y-108029043D01*
X149496616Y-108007703D01*
X149479460Y-107984570D01*
X149464653Y-107959867D01*
X149452340Y-107933832D01*
X149442637Y-107906715D01*
X149435639Y-107878778D01*
X149431413Y-107850289D01*
X149430000Y-107821523D01*
X149430000Y-106808477D01*
X149431413Y-106779711D01*
X149435639Y-106751222D01*
X149442637Y-106723285D01*
X149452340Y-106696168D01*
X149464653Y-106670133D01*
X149479460Y-106645430D01*
X149496616Y-106622297D01*
X149515957Y-106600957D01*
X149537297Y-106581616D01*
X149560430Y-106564460D01*
X149585133Y-106549653D01*
X149611168Y-106537340D01*
X149638285Y-106527637D01*
X149666222Y-106520639D01*
X149694711Y-106516413D01*
X149723477Y-106515000D01*
X150486523Y-106515000D01*
X150515289Y-106516413D01*
X150515289Y-106516413D01*
G37*
D11*
X150105000Y-107315000D03*
G04 #@! TD*
D10*
G04 #@! TO.C,C24*
G36*
X148755289Y-106516413D02*
X148783778Y-106520639D01*
X148811715Y-106527637D01*
X148838832Y-106537340D01*
X148864867Y-106549653D01*
X148889570Y-106564460D01*
X148912703Y-106581616D01*
X148934043Y-106600957D01*
X148953384Y-106622297D01*
X148970540Y-106645430D01*
X148985347Y-106670133D01*
X148997660Y-106696168D01*
X149007363Y-106723285D01*
X149014361Y-106751222D01*
X149018587Y-106779711D01*
X149020000Y-106808477D01*
X149020000Y-107821523D01*
X149018587Y-107850289D01*
X149014361Y-107878778D01*
X149007363Y-107906715D01*
X148997660Y-107933832D01*
X148985347Y-107959867D01*
X148970540Y-107984570D01*
X148953384Y-108007703D01*
X148934043Y-108029043D01*
X148912703Y-108048384D01*
X148889570Y-108065540D01*
X148864867Y-108080347D01*
X148838832Y-108092660D01*
X148811715Y-108102363D01*
X148783778Y-108109361D01*
X148755289Y-108113587D01*
X148726523Y-108115000D01*
X147963477Y-108115000D01*
X147934711Y-108113587D01*
X147906222Y-108109361D01*
X147878285Y-108102363D01*
X147851168Y-108092660D01*
X147825133Y-108080347D01*
X147800430Y-108065540D01*
X147777297Y-108048384D01*
X147755957Y-108029043D01*
X147736616Y-108007703D01*
X147719460Y-107984570D01*
X147704653Y-107959867D01*
X147692340Y-107933832D01*
X147682637Y-107906715D01*
X147675639Y-107878778D01*
X147671413Y-107850289D01*
X147670000Y-107821523D01*
X147670000Y-106808477D01*
X147671413Y-106779711D01*
X147675639Y-106751222D01*
X147682637Y-106723285D01*
X147692340Y-106696168D01*
X147704653Y-106670133D01*
X147719460Y-106645430D01*
X147736616Y-106622297D01*
X147755957Y-106600957D01*
X147777297Y-106581616D01*
X147800430Y-106564460D01*
X147825133Y-106549653D01*
X147851168Y-106537340D01*
X147878285Y-106527637D01*
X147906222Y-106520639D01*
X147934711Y-106516413D01*
X147963477Y-106515000D01*
X148726523Y-106515000D01*
X148755289Y-106516413D01*
X148755289Y-106516413D01*
G37*
D11*
X148345000Y-107315000D03*
D10*
G36*
X146705289Y-106516413D02*
X146733778Y-106520639D01*
X146761715Y-106527637D01*
X146788832Y-106537340D01*
X146814867Y-106549653D01*
X146839570Y-106564460D01*
X146862703Y-106581616D01*
X146884043Y-106600957D01*
X146903384Y-106622297D01*
X146920540Y-106645430D01*
X146935347Y-106670133D01*
X146947660Y-106696168D01*
X146957363Y-106723285D01*
X146964361Y-106751222D01*
X146968587Y-106779711D01*
X146970000Y-106808477D01*
X146970000Y-107821523D01*
X146968587Y-107850289D01*
X146964361Y-107878778D01*
X146957363Y-107906715D01*
X146947660Y-107933832D01*
X146935347Y-107959867D01*
X146920540Y-107984570D01*
X146903384Y-108007703D01*
X146884043Y-108029043D01*
X146862703Y-108048384D01*
X146839570Y-108065540D01*
X146814867Y-108080347D01*
X146788832Y-108092660D01*
X146761715Y-108102363D01*
X146733778Y-108109361D01*
X146705289Y-108113587D01*
X146676523Y-108115000D01*
X145913477Y-108115000D01*
X145884711Y-108113587D01*
X145856222Y-108109361D01*
X145828285Y-108102363D01*
X145801168Y-108092660D01*
X145775133Y-108080347D01*
X145750430Y-108065540D01*
X145727297Y-108048384D01*
X145705957Y-108029043D01*
X145686616Y-108007703D01*
X145669460Y-107984570D01*
X145654653Y-107959867D01*
X145642340Y-107933832D01*
X145632637Y-107906715D01*
X145625639Y-107878778D01*
X145621413Y-107850289D01*
X145620000Y-107821523D01*
X145620000Y-106808477D01*
X145621413Y-106779711D01*
X145625639Y-106751222D01*
X145632637Y-106723285D01*
X145642340Y-106696168D01*
X145654653Y-106670133D01*
X145669460Y-106645430D01*
X145686616Y-106622297D01*
X145705957Y-106600957D01*
X145727297Y-106581616D01*
X145750430Y-106564460D01*
X145775133Y-106549653D01*
X145801168Y-106537340D01*
X145828285Y-106527637D01*
X145856222Y-106520639D01*
X145884711Y-106516413D01*
X145913477Y-106515000D01*
X146676523Y-106515000D01*
X146705289Y-106516413D01*
X146705289Y-106516413D01*
G37*
D11*
X146295000Y-107315000D03*
G04 #@! TD*
D12*
G04 #@! TO.C,Y2*
X146685000Y-111760000D03*
X151585000Y-111760000D03*
G04 #@! TD*
D13*
G04 #@! TO.C,SK4*
X167640000Y-68580000D03*
D14*
X182880000Y-60960000D03*
X170180000Y-68580000D03*
X180340000Y-60960000D03*
X172720000Y-68580000D03*
X177800000Y-60960000D03*
X175260000Y-68580000D03*
X175260000Y-60960000D03*
X177800000Y-68580000D03*
X172720000Y-60960000D03*
X180340000Y-68580000D03*
X170180000Y-60960000D03*
X182880000Y-68580000D03*
X167640000Y-60960000D03*
G04 #@! TD*
D13*
G04 #@! TO.C,SK3*
X167640000Y-81280000D03*
D14*
X175260000Y-73660000D03*
X170180000Y-81280000D03*
X172720000Y-73660000D03*
X172720000Y-81280000D03*
X170180000Y-73660000D03*
X175260000Y-81280000D03*
X167640000Y-73660000D03*
G04 #@! TD*
D15*
G04 #@! TO.C,RN1*
X138970000Y-130580000D03*
X142970000Y-130580000D03*
X140310000Y-130580000D03*
X141630000Y-130580000D03*
X140310000Y-133580000D03*
X138970000Y-133580000D03*
X142970000Y-133580000D03*
X141630000Y-133580000D03*
G04 #@! TD*
G04 #@! TO.C,RN2*
X160680000Y-133580000D03*
X162020000Y-133580000D03*
X158020000Y-133580000D03*
X159360000Y-133580000D03*
X160680000Y-130580000D03*
X159360000Y-130580000D03*
X162020000Y-130580000D03*
X158020000Y-130580000D03*
G04 #@! TD*
G04 #@! TO.C,RN3*
X152495000Y-133580000D03*
X148495000Y-133580000D03*
X151155000Y-133580000D03*
X149835000Y-133580000D03*
X151155000Y-130580000D03*
X152495000Y-130580000D03*
X148495000Y-130580000D03*
X149835000Y-130580000D03*
G04 #@! TD*
D10*
G04 #@! TO.C,D11*
G36*
X182505971Y-111641089D02*
X182527929Y-111644346D01*
X182549462Y-111649740D01*
X182570363Y-111657218D01*
X182590430Y-111666709D01*
X182609470Y-111678122D01*
X182627300Y-111691345D01*
X182643748Y-111706252D01*
X182658655Y-111722700D01*
X182671878Y-111740530D01*
X182683291Y-111759570D01*
X182692782Y-111779637D01*
X182700260Y-111800538D01*
X182705654Y-111822071D01*
X182708911Y-111844029D01*
X182710000Y-111866200D01*
X182710000Y-112863800D01*
X182708911Y-112885971D01*
X182705654Y-112907929D01*
X182700260Y-112929462D01*
X182692782Y-112950363D01*
X182683291Y-112970430D01*
X182671878Y-112989470D01*
X182658655Y-113007300D01*
X182643748Y-113023748D01*
X182627300Y-113038655D01*
X182609470Y-113051878D01*
X182590430Y-113063291D01*
X182570363Y-113072782D01*
X182549462Y-113080260D01*
X182527929Y-113085654D01*
X182505971Y-113088911D01*
X182483800Y-113090000D01*
X180736200Y-113090000D01*
X180714029Y-113088911D01*
X180692071Y-113085654D01*
X180670538Y-113080260D01*
X180649637Y-113072782D01*
X180629570Y-113063291D01*
X180610530Y-113051878D01*
X180592700Y-113038655D01*
X180576252Y-113023748D01*
X180561345Y-113007300D01*
X180548122Y-112989470D01*
X180536709Y-112970430D01*
X180527218Y-112950363D01*
X180519740Y-112929462D01*
X180514346Y-112907929D01*
X180511089Y-112885971D01*
X180510000Y-112863800D01*
X180510000Y-111866200D01*
X180511089Y-111844029D01*
X180514346Y-111822071D01*
X180519740Y-111800538D01*
X180527218Y-111779637D01*
X180536709Y-111759570D01*
X180548122Y-111740530D01*
X180561345Y-111722700D01*
X180576252Y-111706252D01*
X180592700Y-111691345D01*
X180610530Y-111678122D01*
X180629570Y-111666709D01*
X180649637Y-111657218D01*
X180670538Y-111649740D01*
X180692071Y-111644346D01*
X180714029Y-111641089D01*
X180736200Y-111640000D01*
X182483800Y-111640000D01*
X182505971Y-111641089D01*
X182505971Y-111641089D01*
G37*
D16*
X181610000Y-112365000D03*
D10*
G36*
X182505971Y-107891089D02*
X182527929Y-107894346D01*
X182549462Y-107899740D01*
X182570363Y-107907218D01*
X182590430Y-107916709D01*
X182609470Y-107928122D01*
X182627300Y-107941345D01*
X182643748Y-107956252D01*
X182658655Y-107972700D01*
X182671878Y-107990530D01*
X182683291Y-108009570D01*
X182692782Y-108029637D01*
X182700260Y-108050538D01*
X182705654Y-108072071D01*
X182708911Y-108094029D01*
X182710000Y-108116200D01*
X182710000Y-109113800D01*
X182708911Y-109135971D01*
X182705654Y-109157929D01*
X182700260Y-109179462D01*
X182692782Y-109200363D01*
X182683291Y-109220430D01*
X182671878Y-109239470D01*
X182658655Y-109257300D01*
X182643748Y-109273748D01*
X182627300Y-109288655D01*
X182609470Y-109301878D01*
X182590430Y-109313291D01*
X182570363Y-109322782D01*
X182549462Y-109330260D01*
X182527929Y-109335654D01*
X182505971Y-109338911D01*
X182483800Y-109340000D01*
X180736200Y-109340000D01*
X180714029Y-109338911D01*
X180692071Y-109335654D01*
X180670538Y-109330260D01*
X180649637Y-109322782D01*
X180629570Y-109313291D01*
X180610530Y-109301878D01*
X180592700Y-109288655D01*
X180576252Y-109273748D01*
X180561345Y-109257300D01*
X180548122Y-109239470D01*
X180536709Y-109220430D01*
X180527218Y-109200363D01*
X180519740Y-109179462D01*
X180514346Y-109157929D01*
X180511089Y-109135971D01*
X180510000Y-109113800D01*
X180510000Y-108116200D01*
X180511089Y-108094029D01*
X180514346Y-108072071D01*
X180519740Y-108050538D01*
X180527218Y-108029637D01*
X180536709Y-108009570D01*
X180548122Y-107990530D01*
X180561345Y-107972700D01*
X180576252Y-107956252D01*
X180592700Y-107941345D01*
X180610530Y-107928122D01*
X180629570Y-107916709D01*
X180649637Y-107907218D01*
X180670538Y-107899740D01*
X180692071Y-107894346D01*
X180714029Y-107891089D01*
X180736200Y-107890000D01*
X182483800Y-107890000D01*
X182505971Y-107891089D01*
X182505971Y-107891089D01*
G37*
D16*
X181610000Y-108615000D03*
G04 #@! TD*
D10*
G04 #@! TO.C,C23*
G36*
X118010289Y-106251413D02*
X118038778Y-106255639D01*
X118066715Y-106262637D01*
X118093832Y-106272340D01*
X118119867Y-106284653D01*
X118144570Y-106299460D01*
X118167703Y-106316616D01*
X118189043Y-106335957D01*
X118208384Y-106357297D01*
X118225540Y-106380430D01*
X118240347Y-106405133D01*
X118252660Y-106431168D01*
X118262363Y-106458285D01*
X118269361Y-106486222D01*
X118273587Y-106514711D01*
X118275000Y-106543477D01*
X118275000Y-107306523D01*
X118273587Y-107335289D01*
X118269361Y-107363778D01*
X118262363Y-107391715D01*
X118252660Y-107418832D01*
X118240347Y-107444867D01*
X118225540Y-107469570D01*
X118208384Y-107492703D01*
X118189043Y-107514043D01*
X118167703Y-107533384D01*
X118144570Y-107550540D01*
X118119867Y-107565347D01*
X118093832Y-107577660D01*
X118066715Y-107587363D01*
X118038778Y-107594361D01*
X118010289Y-107598587D01*
X117981523Y-107600000D01*
X116968477Y-107600000D01*
X116939711Y-107598587D01*
X116911222Y-107594361D01*
X116883285Y-107587363D01*
X116856168Y-107577660D01*
X116830133Y-107565347D01*
X116805430Y-107550540D01*
X116782297Y-107533384D01*
X116760957Y-107514043D01*
X116741616Y-107492703D01*
X116724460Y-107469570D01*
X116709653Y-107444867D01*
X116697340Y-107418832D01*
X116687637Y-107391715D01*
X116680639Y-107363778D01*
X116676413Y-107335289D01*
X116675000Y-107306523D01*
X116675000Y-106543477D01*
X116676413Y-106514711D01*
X116680639Y-106486222D01*
X116687637Y-106458285D01*
X116697340Y-106431168D01*
X116709653Y-106405133D01*
X116724460Y-106380430D01*
X116741616Y-106357297D01*
X116760957Y-106335957D01*
X116782297Y-106316616D01*
X116805430Y-106299460D01*
X116830133Y-106284653D01*
X116856168Y-106272340D01*
X116883285Y-106262637D01*
X116911222Y-106255639D01*
X116939711Y-106251413D01*
X116968477Y-106250000D01*
X117981523Y-106250000D01*
X118010289Y-106251413D01*
X118010289Y-106251413D01*
G37*
D11*
X117475000Y-106925000D03*
D10*
G36*
X118010289Y-108301413D02*
X118038778Y-108305639D01*
X118066715Y-108312637D01*
X118093832Y-108322340D01*
X118119867Y-108334653D01*
X118144570Y-108349460D01*
X118167703Y-108366616D01*
X118189043Y-108385957D01*
X118208384Y-108407297D01*
X118225540Y-108430430D01*
X118240347Y-108455133D01*
X118252660Y-108481168D01*
X118262363Y-108508285D01*
X118269361Y-108536222D01*
X118273587Y-108564711D01*
X118275000Y-108593477D01*
X118275000Y-109356523D01*
X118273587Y-109385289D01*
X118269361Y-109413778D01*
X118262363Y-109441715D01*
X118252660Y-109468832D01*
X118240347Y-109494867D01*
X118225540Y-109519570D01*
X118208384Y-109542703D01*
X118189043Y-109564043D01*
X118167703Y-109583384D01*
X118144570Y-109600540D01*
X118119867Y-109615347D01*
X118093832Y-109627660D01*
X118066715Y-109637363D01*
X118038778Y-109644361D01*
X118010289Y-109648587D01*
X117981523Y-109650000D01*
X116968477Y-109650000D01*
X116939711Y-109648587D01*
X116911222Y-109644361D01*
X116883285Y-109637363D01*
X116856168Y-109627660D01*
X116830133Y-109615347D01*
X116805430Y-109600540D01*
X116782297Y-109583384D01*
X116760957Y-109564043D01*
X116741616Y-109542703D01*
X116724460Y-109519570D01*
X116709653Y-109494867D01*
X116697340Y-109468832D01*
X116687637Y-109441715D01*
X116680639Y-109413778D01*
X116676413Y-109385289D01*
X116675000Y-109356523D01*
X116675000Y-108593477D01*
X116676413Y-108564711D01*
X116680639Y-108536222D01*
X116687637Y-108508285D01*
X116697340Y-108481168D01*
X116709653Y-108455133D01*
X116724460Y-108430430D01*
X116741616Y-108407297D01*
X116760957Y-108385957D01*
X116782297Y-108366616D01*
X116805430Y-108349460D01*
X116830133Y-108334653D01*
X116856168Y-108322340D01*
X116883285Y-108312637D01*
X116911222Y-108305639D01*
X116939711Y-108301413D01*
X116968477Y-108300000D01*
X117981523Y-108300000D01*
X118010289Y-108301413D01*
X118010289Y-108301413D01*
G37*
D11*
X117475000Y-108975000D03*
G04 #@! TD*
D10*
G04 #@! TO.C,C19*
G36*
X109120289Y-120366413D02*
X109148778Y-120370639D01*
X109176715Y-120377637D01*
X109203832Y-120387340D01*
X109229867Y-120399653D01*
X109254570Y-120414460D01*
X109277703Y-120431616D01*
X109299043Y-120450957D01*
X109318384Y-120472297D01*
X109335540Y-120495430D01*
X109350347Y-120520133D01*
X109362660Y-120546168D01*
X109372363Y-120573285D01*
X109379361Y-120601222D01*
X109383587Y-120629711D01*
X109385000Y-120658477D01*
X109385000Y-121421523D01*
X109383587Y-121450289D01*
X109379361Y-121478778D01*
X109372363Y-121506715D01*
X109362660Y-121533832D01*
X109350347Y-121559867D01*
X109335540Y-121584570D01*
X109318384Y-121607703D01*
X109299043Y-121629043D01*
X109277703Y-121648384D01*
X109254570Y-121665540D01*
X109229867Y-121680347D01*
X109203832Y-121692660D01*
X109176715Y-121702363D01*
X109148778Y-121709361D01*
X109120289Y-121713587D01*
X109091523Y-121715000D01*
X108078477Y-121715000D01*
X108049711Y-121713587D01*
X108021222Y-121709361D01*
X107993285Y-121702363D01*
X107966168Y-121692660D01*
X107940133Y-121680347D01*
X107915430Y-121665540D01*
X107892297Y-121648384D01*
X107870957Y-121629043D01*
X107851616Y-121607703D01*
X107834460Y-121584570D01*
X107819653Y-121559867D01*
X107807340Y-121533832D01*
X107797637Y-121506715D01*
X107790639Y-121478778D01*
X107786413Y-121450289D01*
X107785000Y-121421523D01*
X107785000Y-120658477D01*
X107786413Y-120629711D01*
X107790639Y-120601222D01*
X107797637Y-120573285D01*
X107807340Y-120546168D01*
X107819653Y-120520133D01*
X107834460Y-120495430D01*
X107851616Y-120472297D01*
X107870957Y-120450957D01*
X107892297Y-120431616D01*
X107915430Y-120414460D01*
X107940133Y-120399653D01*
X107966168Y-120387340D01*
X107993285Y-120377637D01*
X108021222Y-120370639D01*
X108049711Y-120366413D01*
X108078477Y-120365000D01*
X109091523Y-120365000D01*
X109120289Y-120366413D01*
X109120289Y-120366413D01*
G37*
D11*
X108585000Y-121040000D03*
D10*
G36*
X109120289Y-118316413D02*
X109148778Y-118320639D01*
X109176715Y-118327637D01*
X109203832Y-118337340D01*
X109229867Y-118349653D01*
X109254570Y-118364460D01*
X109277703Y-118381616D01*
X109299043Y-118400957D01*
X109318384Y-118422297D01*
X109335540Y-118445430D01*
X109350347Y-118470133D01*
X109362660Y-118496168D01*
X109372363Y-118523285D01*
X109379361Y-118551222D01*
X109383587Y-118579711D01*
X109385000Y-118608477D01*
X109385000Y-119371523D01*
X109383587Y-119400289D01*
X109379361Y-119428778D01*
X109372363Y-119456715D01*
X109362660Y-119483832D01*
X109350347Y-119509867D01*
X109335540Y-119534570D01*
X109318384Y-119557703D01*
X109299043Y-119579043D01*
X109277703Y-119598384D01*
X109254570Y-119615540D01*
X109229867Y-119630347D01*
X109203832Y-119642660D01*
X109176715Y-119652363D01*
X109148778Y-119659361D01*
X109120289Y-119663587D01*
X109091523Y-119665000D01*
X108078477Y-119665000D01*
X108049711Y-119663587D01*
X108021222Y-119659361D01*
X107993285Y-119652363D01*
X107966168Y-119642660D01*
X107940133Y-119630347D01*
X107915430Y-119615540D01*
X107892297Y-119598384D01*
X107870957Y-119579043D01*
X107851616Y-119557703D01*
X107834460Y-119534570D01*
X107819653Y-119509867D01*
X107807340Y-119483832D01*
X107797637Y-119456715D01*
X107790639Y-119428778D01*
X107786413Y-119400289D01*
X107785000Y-119371523D01*
X107785000Y-118608477D01*
X107786413Y-118579711D01*
X107790639Y-118551222D01*
X107797637Y-118523285D01*
X107807340Y-118496168D01*
X107819653Y-118470133D01*
X107834460Y-118445430D01*
X107851616Y-118422297D01*
X107870957Y-118400957D01*
X107892297Y-118381616D01*
X107915430Y-118364460D01*
X107940133Y-118349653D01*
X107966168Y-118337340D01*
X107993285Y-118327637D01*
X108021222Y-118320639D01*
X108049711Y-118316413D01*
X108078477Y-118315000D01*
X109091523Y-118315000D01*
X109120289Y-118316413D01*
X109120289Y-118316413D01*
G37*
D11*
X108585000Y-118990000D03*
G04 #@! TD*
D10*
G04 #@! TO.C,C21*
G36*
X127535289Y-118316413D02*
X127563778Y-118320639D01*
X127591715Y-118327637D01*
X127618832Y-118337340D01*
X127644867Y-118349653D01*
X127669570Y-118364460D01*
X127692703Y-118381616D01*
X127714043Y-118400957D01*
X127733384Y-118422297D01*
X127750540Y-118445430D01*
X127765347Y-118470133D01*
X127777660Y-118496168D01*
X127787363Y-118523285D01*
X127794361Y-118551222D01*
X127798587Y-118579711D01*
X127800000Y-118608477D01*
X127800000Y-119371523D01*
X127798587Y-119400289D01*
X127794361Y-119428778D01*
X127787363Y-119456715D01*
X127777660Y-119483832D01*
X127765347Y-119509867D01*
X127750540Y-119534570D01*
X127733384Y-119557703D01*
X127714043Y-119579043D01*
X127692703Y-119598384D01*
X127669570Y-119615540D01*
X127644867Y-119630347D01*
X127618832Y-119642660D01*
X127591715Y-119652363D01*
X127563778Y-119659361D01*
X127535289Y-119663587D01*
X127506523Y-119665000D01*
X126493477Y-119665000D01*
X126464711Y-119663587D01*
X126436222Y-119659361D01*
X126408285Y-119652363D01*
X126381168Y-119642660D01*
X126355133Y-119630347D01*
X126330430Y-119615540D01*
X126307297Y-119598384D01*
X126285957Y-119579043D01*
X126266616Y-119557703D01*
X126249460Y-119534570D01*
X126234653Y-119509867D01*
X126222340Y-119483832D01*
X126212637Y-119456715D01*
X126205639Y-119428778D01*
X126201413Y-119400289D01*
X126200000Y-119371523D01*
X126200000Y-118608477D01*
X126201413Y-118579711D01*
X126205639Y-118551222D01*
X126212637Y-118523285D01*
X126222340Y-118496168D01*
X126234653Y-118470133D01*
X126249460Y-118445430D01*
X126266616Y-118422297D01*
X126285957Y-118400957D01*
X126307297Y-118381616D01*
X126330430Y-118364460D01*
X126355133Y-118349653D01*
X126381168Y-118337340D01*
X126408285Y-118327637D01*
X126436222Y-118320639D01*
X126464711Y-118316413D01*
X126493477Y-118315000D01*
X127506523Y-118315000D01*
X127535289Y-118316413D01*
X127535289Y-118316413D01*
G37*
D11*
X127000000Y-118990000D03*
D10*
G36*
X127535289Y-120366413D02*
X127563778Y-120370639D01*
X127591715Y-120377637D01*
X127618832Y-120387340D01*
X127644867Y-120399653D01*
X127669570Y-120414460D01*
X127692703Y-120431616D01*
X127714043Y-120450957D01*
X127733384Y-120472297D01*
X127750540Y-120495430D01*
X127765347Y-120520133D01*
X127777660Y-120546168D01*
X127787363Y-120573285D01*
X127794361Y-120601222D01*
X127798587Y-120629711D01*
X127800000Y-120658477D01*
X127800000Y-121421523D01*
X127798587Y-121450289D01*
X127794361Y-121478778D01*
X127787363Y-121506715D01*
X127777660Y-121533832D01*
X127765347Y-121559867D01*
X127750540Y-121584570D01*
X127733384Y-121607703D01*
X127714043Y-121629043D01*
X127692703Y-121648384D01*
X127669570Y-121665540D01*
X127644867Y-121680347D01*
X127618832Y-121692660D01*
X127591715Y-121702363D01*
X127563778Y-121709361D01*
X127535289Y-121713587D01*
X127506523Y-121715000D01*
X126493477Y-121715000D01*
X126464711Y-121713587D01*
X126436222Y-121709361D01*
X126408285Y-121702363D01*
X126381168Y-121692660D01*
X126355133Y-121680347D01*
X126330430Y-121665540D01*
X126307297Y-121648384D01*
X126285957Y-121629043D01*
X126266616Y-121607703D01*
X126249460Y-121584570D01*
X126234653Y-121559867D01*
X126222340Y-121533832D01*
X126212637Y-121506715D01*
X126205639Y-121478778D01*
X126201413Y-121450289D01*
X126200000Y-121421523D01*
X126200000Y-120658477D01*
X126201413Y-120629711D01*
X126205639Y-120601222D01*
X126212637Y-120573285D01*
X126222340Y-120546168D01*
X126234653Y-120520133D01*
X126249460Y-120495430D01*
X126266616Y-120472297D01*
X126285957Y-120450957D01*
X126307297Y-120431616D01*
X126330430Y-120414460D01*
X126355133Y-120399653D01*
X126381168Y-120387340D01*
X126408285Y-120377637D01*
X126436222Y-120370639D01*
X126464711Y-120366413D01*
X126493477Y-120365000D01*
X127506523Y-120365000D01*
X127535289Y-120366413D01*
X127535289Y-120366413D01*
G37*
D11*
X127000000Y-121040000D03*
G04 #@! TD*
D10*
G04 #@! TO.C,C22*
G36*
X119915289Y-131796413D02*
X119943778Y-131800639D01*
X119971715Y-131807637D01*
X119998832Y-131817340D01*
X120024867Y-131829653D01*
X120049570Y-131844460D01*
X120072703Y-131861616D01*
X120094043Y-131880957D01*
X120113384Y-131902297D01*
X120130540Y-131925430D01*
X120145347Y-131950133D01*
X120157660Y-131976168D01*
X120167363Y-132003285D01*
X120174361Y-132031222D01*
X120178587Y-132059711D01*
X120180000Y-132088477D01*
X120180000Y-132851523D01*
X120178587Y-132880289D01*
X120174361Y-132908778D01*
X120167363Y-132936715D01*
X120157660Y-132963832D01*
X120145347Y-132989867D01*
X120130540Y-133014570D01*
X120113384Y-133037703D01*
X120094043Y-133059043D01*
X120072703Y-133078384D01*
X120049570Y-133095540D01*
X120024867Y-133110347D01*
X119998832Y-133122660D01*
X119971715Y-133132363D01*
X119943778Y-133139361D01*
X119915289Y-133143587D01*
X119886523Y-133145000D01*
X118873477Y-133145000D01*
X118844711Y-133143587D01*
X118816222Y-133139361D01*
X118788285Y-133132363D01*
X118761168Y-133122660D01*
X118735133Y-133110347D01*
X118710430Y-133095540D01*
X118687297Y-133078384D01*
X118665957Y-133059043D01*
X118646616Y-133037703D01*
X118629460Y-133014570D01*
X118614653Y-132989867D01*
X118602340Y-132963832D01*
X118592637Y-132936715D01*
X118585639Y-132908778D01*
X118581413Y-132880289D01*
X118580000Y-132851523D01*
X118580000Y-132088477D01*
X118581413Y-132059711D01*
X118585639Y-132031222D01*
X118592637Y-132003285D01*
X118602340Y-131976168D01*
X118614653Y-131950133D01*
X118629460Y-131925430D01*
X118646616Y-131902297D01*
X118665957Y-131880957D01*
X118687297Y-131861616D01*
X118710430Y-131844460D01*
X118735133Y-131829653D01*
X118761168Y-131817340D01*
X118788285Y-131807637D01*
X118816222Y-131800639D01*
X118844711Y-131796413D01*
X118873477Y-131795000D01*
X119886523Y-131795000D01*
X119915289Y-131796413D01*
X119915289Y-131796413D01*
G37*
D11*
X119380000Y-132470000D03*
D10*
G36*
X119915289Y-129746413D02*
X119943778Y-129750639D01*
X119971715Y-129757637D01*
X119998832Y-129767340D01*
X120024867Y-129779653D01*
X120049570Y-129794460D01*
X120072703Y-129811616D01*
X120094043Y-129830957D01*
X120113384Y-129852297D01*
X120130540Y-129875430D01*
X120145347Y-129900133D01*
X120157660Y-129926168D01*
X120167363Y-129953285D01*
X120174361Y-129981222D01*
X120178587Y-130009711D01*
X120180000Y-130038477D01*
X120180000Y-130801523D01*
X120178587Y-130830289D01*
X120174361Y-130858778D01*
X120167363Y-130886715D01*
X120157660Y-130913832D01*
X120145347Y-130939867D01*
X120130540Y-130964570D01*
X120113384Y-130987703D01*
X120094043Y-131009043D01*
X120072703Y-131028384D01*
X120049570Y-131045540D01*
X120024867Y-131060347D01*
X119998832Y-131072660D01*
X119971715Y-131082363D01*
X119943778Y-131089361D01*
X119915289Y-131093587D01*
X119886523Y-131095000D01*
X118873477Y-131095000D01*
X118844711Y-131093587D01*
X118816222Y-131089361D01*
X118788285Y-131082363D01*
X118761168Y-131072660D01*
X118735133Y-131060347D01*
X118710430Y-131045540D01*
X118687297Y-131028384D01*
X118665957Y-131009043D01*
X118646616Y-130987703D01*
X118629460Y-130964570D01*
X118614653Y-130939867D01*
X118602340Y-130913832D01*
X118592637Y-130886715D01*
X118585639Y-130858778D01*
X118581413Y-130830289D01*
X118580000Y-130801523D01*
X118580000Y-130038477D01*
X118581413Y-130009711D01*
X118585639Y-129981222D01*
X118592637Y-129953285D01*
X118602340Y-129926168D01*
X118614653Y-129900133D01*
X118629460Y-129875430D01*
X118646616Y-129852297D01*
X118665957Y-129830957D01*
X118687297Y-129811616D01*
X118710430Y-129794460D01*
X118735133Y-129779653D01*
X118761168Y-129767340D01*
X118788285Y-129757637D01*
X118816222Y-129750639D01*
X118844711Y-129746413D01*
X118873477Y-129745000D01*
X119886523Y-129745000D01*
X119915289Y-129746413D01*
X119915289Y-129746413D01*
G37*
D11*
X119380000Y-130420000D03*
G04 #@! TD*
D10*
G04 #@! TO.C,C20*
G36*
X119280289Y-118316413D02*
X119308778Y-118320639D01*
X119336715Y-118327637D01*
X119363832Y-118337340D01*
X119389867Y-118349653D01*
X119414570Y-118364460D01*
X119437703Y-118381616D01*
X119459043Y-118400957D01*
X119478384Y-118422297D01*
X119495540Y-118445430D01*
X119510347Y-118470133D01*
X119522660Y-118496168D01*
X119532363Y-118523285D01*
X119539361Y-118551222D01*
X119543587Y-118579711D01*
X119545000Y-118608477D01*
X119545000Y-119371523D01*
X119543587Y-119400289D01*
X119539361Y-119428778D01*
X119532363Y-119456715D01*
X119522660Y-119483832D01*
X119510347Y-119509867D01*
X119495540Y-119534570D01*
X119478384Y-119557703D01*
X119459043Y-119579043D01*
X119437703Y-119598384D01*
X119414570Y-119615540D01*
X119389867Y-119630347D01*
X119363832Y-119642660D01*
X119336715Y-119652363D01*
X119308778Y-119659361D01*
X119280289Y-119663587D01*
X119251523Y-119665000D01*
X118238477Y-119665000D01*
X118209711Y-119663587D01*
X118181222Y-119659361D01*
X118153285Y-119652363D01*
X118126168Y-119642660D01*
X118100133Y-119630347D01*
X118075430Y-119615540D01*
X118052297Y-119598384D01*
X118030957Y-119579043D01*
X118011616Y-119557703D01*
X117994460Y-119534570D01*
X117979653Y-119509867D01*
X117967340Y-119483832D01*
X117957637Y-119456715D01*
X117950639Y-119428778D01*
X117946413Y-119400289D01*
X117945000Y-119371523D01*
X117945000Y-118608477D01*
X117946413Y-118579711D01*
X117950639Y-118551222D01*
X117957637Y-118523285D01*
X117967340Y-118496168D01*
X117979653Y-118470133D01*
X117994460Y-118445430D01*
X118011616Y-118422297D01*
X118030957Y-118400957D01*
X118052297Y-118381616D01*
X118075430Y-118364460D01*
X118100133Y-118349653D01*
X118126168Y-118337340D01*
X118153285Y-118327637D01*
X118181222Y-118320639D01*
X118209711Y-118316413D01*
X118238477Y-118315000D01*
X119251523Y-118315000D01*
X119280289Y-118316413D01*
X119280289Y-118316413D01*
G37*
D11*
X118745000Y-118990000D03*
D10*
G36*
X119280289Y-120366413D02*
X119308778Y-120370639D01*
X119336715Y-120377637D01*
X119363832Y-120387340D01*
X119389867Y-120399653D01*
X119414570Y-120414460D01*
X119437703Y-120431616D01*
X119459043Y-120450957D01*
X119478384Y-120472297D01*
X119495540Y-120495430D01*
X119510347Y-120520133D01*
X119522660Y-120546168D01*
X119532363Y-120573285D01*
X119539361Y-120601222D01*
X119543587Y-120629711D01*
X119545000Y-120658477D01*
X119545000Y-121421523D01*
X119543587Y-121450289D01*
X119539361Y-121478778D01*
X119532363Y-121506715D01*
X119522660Y-121533832D01*
X119510347Y-121559867D01*
X119495540Y-121584570D01*
X119478384Y-121607703D01*
X119459043Y-121629043D01*
X119437703Y-121648384D01*
X119414570Y-121665540D01*
X119389867Y-121680347D01*
X119363832Y-121692660D01*
X119336715Y-121702363D01*
X119308778Y-121709361D01*
X119280289Y-121713587D01*
X119251523Y-121715000D01*
X118238477Y-121715000D01*
X118209711Y-121713587D01*
X118181222Y-121709361D01*
X118153285Y-121702363D01*
X118126168Y-121692660D01*
X118100133Y-121680347D01*
X118075430Y-121665540D01*
X118052297Y-121648384D01*
X118030957Y-121629043D01*
X118011616Y-121607703D01*
X117994460Y-121584570D01*
X117979653Y-121559867D01*
X117967340Y-121533832D01*
X117957637Y-121506715D01*
X117950639Y-121478778D01*
X117946413Y-121450289D01*
X117945000Y-121421523D01*
X117945000Y-120658477D01*
X117946413Y-120629711D01*
X117950639Y-120601222D01*
X117957637Y-120573285D01*
X117967340Y-120546168D01*
X117979653Y-120520133D01*
X117994460Y-120495430D01*
X118011616Y-120472297D01*
X118030957Y-120450957D01*
X118052297Y-120431616D01*
X118075430Y-120414460D01*
X118100133Y-120399653D01*
X118126168Y-120387340D01*
X118153285Y-120377637D01*
X118181222Y-120370639D01*
X118209711Y-120366413D01*
X118238477Y-120365000D01*
X119251523Y-120365000D01*
X119280289Y-120366413D01*
X119280289Y-120366413D01*
G37*
D11*
X118745000Y-121040000D03*
G04 #@! TD*
D10*
G04 #@! TO.C,C18*
G36*
X118010289Y-71326413D02*
X118038778Y-71330639D01*
X118066715Y-71337637D01*
X118093832Y-71347340D01*
X118119867Y-71359653D01*
X118144570Y-71374460D01*
X118167703Y-71391616D01*
X118189043Y-71410957D01*
X118208384Y-71432297D01*
X118225540Y-71455430D01*
X118240347Y-71480133D01*
X118252660Y-71506168D01*
X118262363Y-71533285D01*
X118269361Y-71561222D01*
X118273587Y-71589711D01*
X118275000Y-71618477D01*
X118275000Y-72381523D01*
X118273587Y-72410289D01*
X118269361Y-72438778D01*
X118262363Y-72466715D01*
X118252660Y-72493832D01*
X118240347Y-72519867D01*
X118225540Y-72544570D01*
X118208384Y-72567703D01*
X118189043Y-72589043D01*
X118167703Y-72608384D01*
X118144570Y-72625540D01*
X118119867Y-72640347D01*
X118093832Y-72652660D01*
X118066715Y-72662363D01*
X118038778Y-72669361D01*
X118010289Y-72673587D01*
X117981523Y-72675000D01*
X116968477Y-72675000D01*
X116939711Y-72673587D01*
X116911222Y-72669361D01*
X116883285Y-72662363D01*
X116856168Y-72652660D01*
X116830133Y-72640347D01*
X116805430Y-72625540D01*
X116782297Y-72608384D01*
X116760957Y-72589043D01*
X116741616Y-72567703D01*
X116724460Y-72544570D01*
X116709653Y-72519867D01*
X116697340Y-72493832D01*
X116687637Y-72466715D01*
X116680639Y-72438778D01*
X116676413Y-72410289D01*
X116675000Y-72381523D01*
X116675000Y-71618477D01*
X116676413Y-71589711D01*
X116680639Y-71561222D01*
X116687637Y-71533285D01*
X116697340Y-71506168D01*
X116709653Y-71480133D01*
X116724460Y-71455430D01*
X116741616Y-71432297D01*
X116760957Y-71410957D01*
X116782297Y-71391616D01*
X116805430Y-71374460D01*
X116830133Y-71359653D01*
X116856168Y-71347340D01*
X116883285Y-71337637D01*
X116911222Y-71330639D01*
X116939711Y-71326413D01*
X116968477Y-71325000D01*
X117981523Y-71325000D01*
X118010289Y-71326413D01*
X118010289Y-71326413D01*
G37*
D11*
X117475000Y-72000000D03*
D10*
G36*
X118010289Y-73376413D02*
X118038778Y-73380639D01*
X118066715Y-73387637D01*
X118093832Y-73397340D01*
X118119867Y-73409653D01*
X118144570Y-73424460D01*
X118167703Y-73441616D01*
X118189043Y-73460957D01*
X118208384Y-73482297D01*
X118225540Y-73505430D01*
X118240347Y-73530133D01*
X118252660Y-73556168D01*
X118262363Y-73583285D01*
X118269361Y-73611222D01*
X118273587Y-73639711D01*
X118275000Y-73668477D01*
X118275000Y-74431523D01*
X118273587Y-74460289D01*
X118269361Y-74488778D01*
X118262363Y-74516715D01*
X118252660Y-74543832D01*
X118240347Y-74569867D01*
X118225540Y-74594570D01*
X118208384Y-74617703D01*
X118189043Y-74639043D01*
X118167703Y-74658384D01*
X118144570Y-74675540D01*
X118119867Y-74690347D01*
X118093832Y-74702660D01*
X118066715Y-74712363D01*
X118038778Y-74719361D01*
X118010289Y-74723587D01*
X117981523Y-74725000D01*
X116968477Y-74725000D01*
X116939711Y-74723587D01*
X116911222Y-74719361D01*
X116883285Y-74712363D01*
X116856168Y-74702660D01*
X116830133Y-74690347D01*
X116805430Y-74675540D01*
X116782297Y-74658384D01*
X116760957Y-74639043D01*
X116741616Y-74617703D01*
X116724460Y-74594570D01*
X116709653Y-74569867D01*
X116697340Y-74543832D01*
X116687637Y-74516715D01*
X116680639Y-74488778D01*
X116676413Y-74460289D01*
X116675000Y-74431523D01*
X116675000Y-73668477D01*
X116676413Y-73639711D01*
X116680639Y-73611222D01*
X116687637Y-73583285D01*
X116697340Y-73556168D01*
X116709653Y-73530133D01*
X116724460Y-73505430D01*
X116741616Y-73482297D01*
X116760957Y-73460957D01*
X116782297Y-73441616D01*
X116805430Y-73424460D01*
X116830133Y-73409653D01*
X116856168Y-73397340D01*
X116883285Y-73387637D01*
X116911222Y-73380639D01*
X116939711Y-73376413D01*
X116968477Y-73375000D01*
X117981523Y-73375000D01*
X118010289Y-73376413D01*
X118010289Y-73376413D01*
G37*
D11*
X117475000Y-74050000D03*
G04 #@! TD*
D10*
G04 #@! TO.C,C17*
G36*
X173375289Y-117311413D02*
X173403778Y-117315639D01*
X173431715Y-117322637D01*
X173458832Y-117332340D01*
X173484867Y-117344653D01*
X173509570Y-117359460D01*
X173532703Y-117376616D01*
X173554043Y-117395957D01*
X173573384Y-117417297D01*
X173590540Y-117440430D01*
X173605347Y-117465133D01*
X173617660Y-117491168D01*
X173627363Y-117518285D01*
X173634361Y-117546222D01*
X173638587Y-117574711D01*
X173640000Y-117603477D01*
X173640000Y-118616523D01*
X173638587Y-118645289D01*
X173634361Y-118673778D01*
X173627363Y-118701715D01*
X173617660Y-118728832D01*
X173605347Y-118754867D01*
X173590540Y-118779570D01*
X173573384Y-118802703D01*
X173554043Y-118824043D01*
X173532703Y-118843384D01*
X173509570Y-118860540D01*
X173484867Y-118875347D01*
X173458832Y-118887660D01*
X173431715Y-118897363D01*
X173403778Y-118904361D01*
X173375289Y-118908587D01*
X173346523Y-118910000D01*
X172583477Y-118910000D01*
X172554711Y-118908587D01*
X172526222Y-118904361D01*
X172498285Y-118897363D01*
X172471168Y-118887660D01*
X172445133Y-118875347D01*
X172420430Y-118860540D01*
X172397297Y-118843384D01*
X172375957Y-118824043D01*
X172356616Y-118802703D01*
X172339460Y-118779570D01*
X172324653Y-118754867D01*
X172312340Y-118728832D01*
X172302637Y-118701715D01*
X172295639Y-118673778D01*
X172291413Y-118645289D01*
X172290000Y-118616523D01*
X172290000Y-117603477D01*
X172291413Y-117574711D01*
X172295639Y-117546222D01*
X172302637Y-117518285D01*
X172312340Y-117491168D01*
X172324653Y-117465133D01*
X172339460Y-117440430D01*
X172356616Y-117417297D01*
X172375957Y-117395957D01*
X172397297Y-117376616D01*
X172420430Y-117359460D01*
X172445133Y-117344653D01*
X172471168Y-117332340D01*
X172498285Y-117322637D01*
X172526222Y-117315639D01*
X172554711Y-117311413D01*
X172583477Y-117310000D01*
X173346523Y-117310000D01*
X173375289Y-117311413D01*
X173375289Y-117311413D01*
G37*
D11*
X172965000Y-118110000D03*
D10*
G36*
X175425289Y-117311413D02*
X175453778Y-117315639D01*
X175481715Y-117322637D01*
X175508832Y-117332340D01*
X175534867Y-117344653D01*
X175559570Y-117359460D01*
X175582703Y-117376616D01*
X175604043Y-117395957D01*
X175623384Y-117417297D01*
X175640540Y-117440430D01*
X175655347Y-117465133D01*
X175667660Y-117491168D01*
X175677363Y-117518285D01*
X175684361Y-117546222D01*
X175688587Y-117574711D01*
X175690000Y-117603477D01*
X175690000Y-118616523D01*
X175688587Y-118645289D01*
X175684361Y-118673778D01*
X175677363Y-118701715D01*
X175667660Y-118728832D01*
X175655347Y-118754867D01*
X175640540Y-118779570D01*
X175623384Y-118802703D01*
X175604043Y-118824043D01*
X175582703Y-118843384D01*
X175559570Y-118860540D01*
X175534867Y-118875347D01*
X175508832Y-118887660D01*
X175481715Y-118897363D01*
X175453778Y-118904361D01*
X175425289Y-118908587D01*
X175396523Y-118910000D01*
X174633477Y-118910000D01*
X174604711Y-118908587D01*
X174576222Y-118904361D01*
X174548285Y-118897363D01*
X174521168Y-118887660D01*
X174495133Y-118875347D01*
X174470430Y-118860540D01*
X174447297Y-118843384D01*
X174425957Y-118824043D01*
X174406616Y-118802703D01*
X174389460Y-118779570D01*
X174374653Y-118754867D01*
X174362340Y-118728832D01*
X174352637Y-118701715D01*
X174345639Y-118673778D01*
X174341413Y-118645289D01*
X174340000Y-118616523D01*
X174340000Y-117603477D01*
X174341413Y-117574711D01*
X174345639Y-117546222D01*
X174352637Y-117518285D01*
X174362340Y-117491168D01*
X174374653Y-117465133D01*
X174389460Y-117440430D01*
X174406616Y-117417297D01*
X174425957Y-117395957D01*
X174447297Y-117376616D01*
X174470430Y-117359460D01*
X174495133Y-117344653D01*
X174521168Y-117332340D01*
X174548285Y-117322637D01*
X174576222Y-117315639D01*
X174604711Y-117311413D01*
X174633477Y-117310000D01*
X175396523Y-117310000D01*
X175425289Y-117311413D01*
X175425289Y-117311413D01*
G37*
D11*
X175015000Y-118110000D03*
G04 #@! TD*
D17*
G04 #@! TO.C,C16*
X194945000Y-119380000D03*
D18*
X192945000Y-119380000D03*
G04 #@! TD*
D13*
G04 #@! TO.C,U4*
X170180000Y-118110000D03*
D14*
X177800000Y-125730000D03*
X170180000Y-120650000D03*
X177800000Y-123190000D03*
X170180000Y-123190000D03*
X177800000Y-120650000D03*
X170180000Y-125730000D03*
X177800000Y-118110000D03*
G04 #@! TD*
D17*
G04 #@! TO.C,C15*
X188595000Y-119380000D03*
D18*
X186595000Y-119380000D03*
G04 #@! TD*
D10*
G04 #@! TO.C,C14*
G36*
X181510289Y-124031413D02*
X181538778Y-124035639D01*
X181566715Y-124042637D01*
X181593832Y-124052340D01*
X181619867Y-124064653D01*
X181644570Y-124079460D01*
X181667703Y-124096616D01*
X181689043Y-124115957D01*
X181708384Y-124137297D01*
X181725540Y-124160430D01*
X181740347Y-124185133D01*
X181752660Y-124211168D01*
X181762363Y-124238285D01*
X181769361Y-124266222D01*
X181773587Y-124294711D01*
X181775000Y-124323477D01*
X181775000Y-125086523D01*
X181773587Y-125115289D01*
X181769361Y-125143778D01*
X181762363Y-125171715D01*
X181752660Y-125198832D01*
X181740347Y-125224867D01*
X181725540Y-125249570D01*
X181708384Y-125272703D01*
X181689043Y-125294043D01*
X181667703Y-125313384D01*
X181644570Y-125330540D01*
X181619867Y-125345347D01*
X181593832Y-125357660D01*
X181566715Y-125367363D01*
X181538778Y-125374361D01*
X181510289Y-125378587D01*
X181481523Y-125380000D01*
X180468477Y-125380000D01*
X180439711Y-125378587D01*
X180411222Y-125374361D01*
X180383285Y-125367363D01*
X180356168Y-125357660D01*
X180330133Y-125345347D01*
X180305430Y-125330540D01*
X180282297Y-125313384D01*
X180260957Y-125294043D01*
X180241616Y-125272703D01*
X180224460Y-125249570D01*
X180209653Y-125224867D01*
X180197340Y-125198832D01*
X180187637Y-125171715D01*
X180180639Y-125143778D01*
X180176413Y-125115289D01*
X180175000Y-125086523D01*
X180175000Y-124323477D01*
X180176413Y-124294711D01*
X180180639Y-124266222D01*
X180187637Y-124238285D01*
X180197340Y-124211168D01*
X180209653Y-124185133D01*
X180224460Y-124160430D01*
X180241616Y-124137297D01*
X180260957Y-124115957D01*
X180282297Y-124096616D01*
X180305430Y-124079460D01*
X180330133Y-124064653D01*
X180356168Y-124052340D01*
X180383285Y-124042637D01*
X180411222Y-124035639D01*
X180439711Y-124031413D01*
X180468477Y-124030000D01*
X181481523Y-124030000D01*
X181510289Y-124031413D01*
X181510289Y-124031413D01*
G37*
D11*
X180975000Y-124705000D03*
D10*
G36*
X181510289Y-126081413D02*
X181538778Y-126085639D01*
X181566715Y-126092637D01*
X181593832Y-126102340D01*
X181619867Y-126114653D01*
X181644570Y-126129460D01*
X181667703Y-126146616D01*
X181689043Y-126165957D01*
X181708384Y-126187297D01*
X181725540Y-126210430D01*
X181740347Y-126235133D01*
X181752660Y-126261168D01*
X181762363Y-126288285D01*
X181769361Y-126316222D01*
X181773587Y-126344711D01*
X181775000Y-126373477D01*
X181775000Y-127136523D01*
X181773587Y-127165289D01*
X181769361Y-127193778D01*
X181762363Y-127221715D01*
X181752660Y-127248832D01*
X181740347Y-127274867D01*
X181725540Y-127299570D01*
X181708384Y-127322703D01*
X181689043Y-127344043D01*
X181667703Y-127363384D01*
X181644570Y-127380540D01*
X181619867Y-127395347D01*
X181593832Y-127407660D01*
X181566715Y-127417363D01*
X181538778Y-127424361D01*
X181510289Y-127428587D01*
X181481523Y-127430000D01*
X180468477Y-127430000D01*
X180439711Y-127428587D01*
X180411222Y-127424361D01*
X180383285Y-127417363D01*
X180356168Y-127407660D01*
X180330133Y-127395347D01*
X180305430Y-127380540D01*
X180282297Y-127363384D01*
X180260957Y-127344043D01*
X180241616Y-127322703D01*
X180224460Y-127299570D01*
X180209653Y-127274867D01*
X180197340Y-127248832D01*
X180187637Y-127221715D01*
X180180639Y-127193778D01*
X180176413Y-127165289D01*
X180175000Y-127136523D01*
X180175000Y-126373477D01*
X180176413Y-126344711D01*
X180180639Y-126316222D01*
X180187637Y-126288285D01*
X180197340Y-126261168D01*
X180209653Y-126235133D01*
X180224460Y-126210430D01*
X180241616Y-126187297D01*
X180260957Y-126165957D01*
X180282297Y-126146616D01*
X180305430Y-126129460D01*
X180330133Y-126114653D01*
X180356168Y-126102340D01*
X180383285Y-126092637D01*
X180411222Y-126085639D01*
X180439711Y-126081413D01*
X180468477Y-126080000D01*
X181481523Y-126080000D01*
X181510289Y-126081413D01*
X181510289Y-126081413D01*
G37*
D11*
X180975000Y-126755000D03*
G04 #@! TD*
D10*
G04 #@! TO.C,L1*
G36*
X185320289Y-124031413D02*
X185348778Y-124035639D01*
X185376715Y-124042637D01*
X185403832Y-124052340D01*
X185429867Y-124064653D01*
X185454570Y-124079460D01*
X185477703Y-124096616D01*
X185499043Y-124115957D01*
X185518384Y-124137297D01*
X185535540Y-124160430D01*
X185550347Y-124185133D01*
X185562660Y-124211168D01*
X185572363Y-124238285D01*
X185579361Y-124266222D01*
X185583587Y-124294711D01*
X185585000Y-124323477D01*
X185585000Y-125086523D01*
X185583587Y-125115289D01*
X185579361Y-125143778D01*
X185572363Y-125171715D01*
X185562660Y-125198832D01*
X185550347Y-125224867D01*
X185535540Y-125249570D01*
X185518384Y-125272703D01*
X185499043Y-125294043D01*
X185477703Y-125313384D01*
X185454570Y-125330540D01*
X185429867Y-125345347D01*
X185403832Y-125357660D01*
X185376715Y-125367363D01*
X185348778Y-125374361D01*
X185320289Y-125378587D01*
X185291523Y-125380000D01*
X184278477Y-125380000D01*
X184249711Y-125378587D01*
X184221222Y-125374361D01*
X184193285Y-125367363D01*
X184166168Y-125357660D01*
X184140133Y-125345347D01*
X184115430Y-125330540D01*
X184092297Y-125313384D01*
X184070957Y-125294043D01*
X184051616Y-125272703D01*
X184034460Y-125249570D01*
X184019653Y-125224867D01*
X184007340Y-125198832D01*
X183997637Y-125171715D01*
X183990639Y-125143778D01*
X183986413Y-125115289D01*
X183985000Y-125086523D01*
X183985000Y-124323477D01*
X183986413Y-124294711D01*
X183990639Y-124266222D01*
X183997637Y-124238285D01*
X184007340Y-124211168D01*
X184019653Y-124185133D01*
X184034460Y-124160430D01*
X184051616Y-124137297D01*
X184070957Y-124115957D01*
X184092297Y-124096616D01*
X184115430Y-124079460D01*
X184140133Y-124064653D01*
X184166168Y-124052340D01*
X184193285Y-124042637D01*
X184221222Y-124035639D01*
X184249711Y-124031413D01*
X184278477Y-124030000D01*
X185291523Y-124030000D01*
X185320289Y-124031413D01*
X185320289Y-124031413D01*
G37*
D11*
X184785000Y-124705000D03*
D10*
G36*
X185320289Y-126081413D02*
X185348778Y-126085639D01*
X185376715Y-126092637D01*
X185403832Y-126102340D01*
X185429867Y-126114653D01*
X185454570Y-126129460D01*
X185477703Y-126146616D01*
X185499043Y-126165957D01*
X185518384Y-126187297D01*
X185535540Y-126210430D01*
X185550347Y-126235133D01*
X185562660Y-126261168D01*
X185572363Y-126288285D01*
X185579361Y-126316222D01*
X185583587Y-126344711D01*
X185585000Y-126373477D01*
X185585000Y-127136523D01*
X185583587Y-127165289D01*
X185579361Y-127193778D01*
X185572363Y-127221715D01*
X185562660Y-127248832D01*
X185550347Y-127274867D01*
X185535540Y-127299570D01*
X185518384Y-127322703D01*
X185499043Y-127344043D01*
X185477703Y-127363384D01*
X185454570Y-127380540D01*
X185429867Y-127395347D01*
X185403832Y-127407660D01*
X185376715Y-127417363D01*
X185348778Y-127424361D01*
X185320289Y-127428587D01*
X185291523Y-127430000D01*
X184278477Y-127430000D01*
X184249711Y-127428587D01*
X184221222Y-127424361D01*
X184193285Y-127417363D01*
X184166168Y-127407660D01*
X184140133Y-127395347D01*
X184115430Y-127380540D01*
X184092297Y-127363384D01*
X184070957Y-127344043D01*
X184051616Y-127322703D01*
X184034460Y-127299570D01*
X184019653Y-127274867D01*
X184007340Y-127248832D01*
X183997637Y-127221715D01*
X183990639Y-127193778D01*
X183986413Y-127165289D01*
X183985000Y-127136523D01*
X183985000Y-126373477D01*
X183986413Y-126344711D01*
X183990639Y-126316222D01*
X183997637Y-126288285D01*
X184007340Y-126261168D01*
X184019653Y-126235133D01*
X184034460Y-126210430D01*
X184051616Y-126187297D01*
X184070957Y-126165957D01*
X184092297Y-126146616D01*
X184115430Y-126129460D01*
X184140133Y-126114653D01*
X184166168Y-126102340D01*
X184193285Y-126092637D01*
X184221222Y-126085639D01*
X184249711Y-126081413D01*
X184278477Y-126080000D01*
X185291523Y-126080000D01*
X185320289Y-126081413D01*
X185320289Y-126081413D01*
G37*
D11*
X184785000Y-126755000D03*
G04 #@! TD*
D10*
G04 #@! TO.C,F1*
G36*
X184419812Y-120856389D02*
X184447814Y-120860543D01*
X184475274Y-120867421D01*
X184501928Y-120876958D01*
X184527518Y-120889061D01*
X184551799Y-120903615D01*
X184574536Y-120920478D01*
X184595511Y-120939489D01*
X184614522Y-120960464D01*
X184631385Y-120983201D01*
X184645939Y-121007482D01*
X184658042Y-121033072D01*
X184667579Y-121059726D01*
X184674457Y-121087186D01*
X184678611Y-121115188D01*
X184680000Y-121143462D01*
X184680000Y-122066538D01*
X184678611Y-122094812D01*
X184674457Y-122122814D01*
X184667579Y-122150274D01*
X184658042Y-122176928D01*
X184645939Y-122202518D01*
X184631385Y-122226799D01*
X184614522Y-122249536D01*
X184595511Y-122270511D01*
X184574536Y-122289522D01*
X184551799Y-122306385D01*
X184527518Y-122320939D01*
X184501928Y-122333042D01*
X184475274Y-122342579D01*
X184447814Y-122349457D01*
X184419812Y-122353611D01*
X184391538Y-122355000D01*
X181368462Y-122355000D01*
X181340188Y-122353611D01*
X181312186Y-122349457D01*
X181284726Y-122342579D01*
X181258072Y-122333042D01*
X181232482Y-122320939D01*
X181208201Y-122306385D01*
X181185464Y-122289522D01*
X181164489Y-122270511D01*
X181145478Y-122249536D01*
X181128615Y-122226799D01*
X181114061Y-122202518D01*
X181101958Y-122176928D01*
X181092421Y-122150274D01*
X181085543Y-122122814D01*
X181081389Y-122094812D01*
X181080000Y-122066538D01*
X181080000Y-121143462D01*
X181081389Y-121115188D01*
X181085543Y-121087186D01*
X181092421Y-121059726D01*
X181101958Y-121033072D01*
X181114061Y-121007482D01*
X181128615Y-120983201D01*
X181145478Y-120960464D01*
X181164489Y-120939489D01*
X181185464Y-120920478D01*
X181208201Y-120903615D01*
X181232482Y-120889061D01*
X181258072Y-120876958D01*
X181284726Y-120867421D01*
X181312186Y-120860543D01*
X181340188Y-120856389D01*
X181368462Y-120855000D01*
X184391538Y-120855000D01*
X184419812Y-120856389D01*
X184419812Y-120856389D01*
G37*
D19*
X182880000Y-121605000D03*
D10*
G36*
X184419812Y-116406389D02*
X184447814Y-116410543D01*
X184475274Y-116417421D01*
X184501928Y-116426958D01*
X184527518Y-116439061D01*
X184551799Y-116453615D01*
X184574536Y-116470478D01*
X184595511Y-116489489D01*
X184614522Y-116510464D01*
X184631385Y-116533201D01*
X184645939Y-116557482D01*
X184658042Y-116583072D01*
X184667579Y-116609726D01*
X184674457Y-116637186D01*
X184678611Y-116665188D01*
X184680000Y-116693462D01*
X184680000Y-117616538D01*
X184678611Y-117644812D01*
X184674457Y-117672814D01*
X184667579Y-117700274D01*
X184658042Y-117726928D01*
X184645939Y-117752518D01*
X184631385Y-117776799D01*
X184614522Y-117799536D01*
X184595511Y-117820511D01*
X184574536Y-117839522D01*
X184551799Y-117856385D01*
X184527518Y-117870939D01*
X184501928Y-117883042D01*
X184475274Y-117892579D01*
X184447814Y-117899457D01*
X184419812Y-117903611D01*
X184391538Y-117905000D01*
X181368462Y-117905000D01*
X181340188Y-117903611D01*
X181312186Y-117899457D01*
X181284726Y-117892579D01*
X181258072Y-117883042D01*
X181232482Y-117870939D01*
X181208201Y-117856385D01*
X181185464Y-117839522D01*
X181164489Y-117820511D01*
X181145478Y-117799536D01*
X181128615Y-117776799D01*
X181114061Y-117752518D01*
X181101958Y-117726928D01*
X181092421Y-117700274D01*
X181085543Y-117672814D01*
X181081389Y-117644812D01*
X181080000Y-117616538D01*
X181080000Y-116693462D01*
X181081389Y-116665188D01*
X181085543Y-116637186D01*
X181092421Y-116609726D01*
X181101958Y-116583072D01*
X181114061Y-116557482D01*
X181128615Y-116533201D01*
X181145478Y-116510464D01*
X181164489Y-116489489D01*
X181185464Y-116470478D01*
X181208201Y-116453615D01*
X181232482Y-116439061D01*
X181258072Y-116426958D01*
X181284726Y-116417421D01*
X181312186Y-116410543D01*
X181340188Y-116406389D01*
X181368462Y-116405000D01*
X184391538Y-116405000D01*
X184419812Y-116406389D01*
X184419812Y-116406389D01*
G37*
D19*
X182880000Y-117155000D03*
G04 #@! TD*
D20*
G04 #@! TO.C,J2*
X116870000Y-135230000D03*
D21*
X119410000Y-135230000D03*
X121950000Y-135230000D03*
X124490000Y-135230000D03*
X127030000Y-135230000D03*
G04 #@! TD*
D10*
G04 #@! TO.C,C13*
G36*
X191035289Y-107031413D02*
X191063778Y-107035639D01*
X191091715Y-107042637D01*
X191118832Y-107052340D01*
X191144867Y-107064653D01*
X191169570Y-107079460D01*
X191192703Y-107096616D01*
X191214043Y-107115957D01*
X191233384Y-107137297D01*
X191250540Y-107160430D01*
X191265347Y-107185133D01*
X191277660Y-107211168D01*
X191287363Y-107238285D01*
X191294361Y-107266222D01*
X191298587Y-107294711D01*
X191300000Y-107323477D01*
X191300000Y-108086523D01*
X191298587Y-108115289D01*
X191294361Y-108143778D01*
X191287363Y-108171715D01*
X191277660Y-108198832D01*
X191265347Y-108224867D01*
X191250540Y-108249570D01*
X191233384Y-108272703D01*
X191214043Y-108294043D01*
X191192703Y-108313384D01*
X191169570Y-108330540D01*
X191144867Y-108345347D01*
X191118832Y-108357660D01*
X191091715Y-108367363D01*
X191063778Y-108374361D01*
X191035289Y-108378587D01*
X191006523Y-108380000D01*
X189993477Y-108380000D01*
X189964711Y-108378587D01*
X189936222Y-108374361D01*
X189908285Y-108367363D01*
X189881168Y-108357660D01*
X189855133Y-108345347D01*
X189830430Y-108330540D01*
X189807297Y-108313384D01*
X189785957Y-108294043D01*
X189766616Y-108272703D01*
X189749460Y-108249570D01*
X189734653Y-108224867D01*
X189722340Y-108198832D01*
X189712637Y-108171715D01*
X189705639Y-108143778D01*
X189701413Y-108115289D01*
X189700000Y-108086523D01*
X189700000Y-107323477D01*
X189701413Y-107294711D01*
X189705639Y-107266222D01*
X189712637Y-107238285D01*
X189722340Y-107211168D01*
X189734653Y-107185133D01*
X189749460Y-107160430D01*
X189766616Y-107137297D01*
X189785957Y-107115957D01*
X189807297Y-107096616D01*
X189830430Y-107079460D01*
X189855133Y-107064653D01*
X189881168Y-107052340D01*
X189908285Y-107042637D01*
X189936222Y-107035639D01*
X189964711Y-107031413D01*
X189993477Y-107030000D01*
X191006523Y-107030000D01*
X191035289Y-107031413D01*
X191035289Y-107031413D01*
G37*
D11*
X190500000Y-107705000D03*
D10*
G36*
X191035289Y-104981413D02*
X191063778Y-104985639D01*
X191091715Y-104992637D01*
X191118832Y-105002340D01*
X191144867Y-105014653D01*
X191169570Y-105029460D01*
X191192703Y-105046616D01*
X191214043Y-105065957D01*
X191233384Y-105087297D01*
X191250540Y-105110430D01*
X191265347Y-105135133D01*
X191277660Y-105161168D01*
X191287363Y-105188285D01*
X191294361Y-105216222D01*
X191298587Y-105244711D01*
X191300000Y-105273477D01*
X191300000Y-106036523D01*
X191298587Y-106065289D01*
X191294361Y-106093778D01*
X191287363Y-106121715D01*
X191277660Y-106148832D01*
X191265347Y-106174867D01*
X191250540Y-106199570D01*
X191233384Y-106222703D01*
X191214043Y-106244043D01*
X191192703Y-106263384D01*
X191169570Y-106280540D01*
X191144867Y-106295347D01*
X191118832Y-106307660D01*
X191091715Y-106317363D01*
X191063778Y-106324361D01*
X191035289Y-106328587D01*
X191006523Y-106330000D01*
X189993477Y-106330000D01*
X189964711Y-106328587D01*
X189936222Y-106324361D01*
X189908285Y-106317363D01*
X189881168Y-106307660D01*
X189855133Y-106295347D01*
X189830430Y-106280540D01*
X189807297Y-106263384D01*
X189785957Y-106244043D01*
X189766616Y-106222703D01*
X189749460Y-106199570D01*
X189734653Y-106174867D01*
X189722340Y-106148832D01*
X189712637Y-106121715D01*
X189705639Y-106093778D01*
X189701413Y-106065289D01*
X189700000Y-106036523D01*
X189700000Y-105273477D01*
X189701413Y-105244711D01*
X189705639Y-105216222D01*
X189712637Y-105188285D01*
X189722340Y-105161168D01*
X189734653Y-105135133D01*
X189749460Y-105110430D01*
X189766616Y-105087297D01*
X189785957Y-105065957D01*
X189807297Y-105046616D01*
X189830430Y-105029460D01*
X189855133Y-105014653D01*
X189881168Y-105002340D01*
X189908285Y-104992637D01*
X189936222Y-104985639D01*
X189964711Y-104981413D01*
X189993477Y-104980000D01*
X191006523Y-104980000D01*
X191035289Y-104981413D01*
X191035289Y-104981413D01*
G37*
D11*
X190500000Y-105655000D03*
G04 #@! TD*
D22*
G04 #@! TO.C,H4*
X131127500Y-124074000D03*
X131127500Y-126106000D03*
X126047500Y-125090000D03*
G04 #@! TD*
D23*
G04 #@! TO.C,H3*
X116205000Y-112260000D03*
D24*
X117455000Y-112260000D03*
X118705000Y-112260000D03*
X119955000Y-112260000D03*
X121205000Y-112260000D03*
X122455000Y-112260000D03*
G04 #@! TD*
D25*
G04 #@! TO.C,H2*
X118930000Y-125715000D03*
D26*
X118930000Y-124445000D03*
X120200000Y-125715000D03*
X120200000Y-124445000D03*
X121470000Y-125715000D03*
X121470000Y-124445000D03*
G04 #@! TD*
D20*
G04 #@! TO.C,H1*
X108472500Y-126365000D03*
D21*
X108472500Y-123825000D03*
X111012500Y-126365000D03*
X111012500Y-123825000D03*
X113552500Y-126365000D03*
X113552500Y-123825000D03*
G04 #@! TD*
D27*
G04 #@! TO.C,SK2*
X148590000Y-67310000D03*
D28*
X156210000Y-100330000D03*
X148590000Y-69850000D03*
X156210000Y-97790000D03*
X148590000Y-72390000D03*
X156210000Y-95250000D03*
X148590000Y-74930000D03*
X156210000Y-92710000D03*
X148590000Y-77470000D03*
X156210000Y-90170000D03*
X148590000Y-80010000D03*
X156210000Y-87630000D03*
X148590000Y-82550000D03*
X156210000Y-85090000D03*
X148590000Y-85090000D03*
X156210000Y-82550000D03*
X148590000Y-87630000D03*
X156210000Y-80010000D03*
X148590000Y-90170000D03*
X156210000Y-77470000D03*
X148590000Y-92710000D03*
X156210000Y-74930000D03*
X148590000Y-95250000D03*
X156210000Y-72390000D03*
X148590000Y-97790000D03*
X156210000Y-69850000D03*
X148590000Y-100330000D03*
X156210000Y-67310000D03*
D29*
X152400000Y-67310000D03*
D30*
X152400000Y-69850000D03*
X152400000Y-72390000D03*
X152400000Y-74930000D03*
X152400000Y-77470000D03*
X152400000Y-80010000D03*
X152400000Y-82550000D03*
X152400000Y-85090000D03*
X152400000Y-87630000D03*
X152400000Y-90170000D03*
X152400000Y-92710000D03*
X152400000Y-95250000D03*
X152400000Y-97790000D03*
X152400000Y-100330000D03*
X160020000Y-67310000D03*
X160020000Y-69850000D03*
X160020000Y-72390000D03*
X160020000Y-74930000D03*
X160020000Y-77470000D03*
X160020000Y-80010000D03*
X160020000Y-82550000D03*
X160020000Y-85090000D03*
X160020000Y-87630000D03*
X160020000Y-90170000D03*
X160020000Y-92710000D03*
X160020000Y-95250000D03*
X160020000Y-97790000D03*
X160020000Y-100330000D03*
D29*
X144780000Y-67310000D03*
D30*
X144780000Y-69850000D03*
X144780000Y-72390000D03*
X144780000Y-74930000D03*
X144780000Y-77470000D03*
X144780000Y-80010000D03*
X144780000Y-82550000D03*
X144780000Y-85090000D03*
X144780000Y-87630000D03*
X144780000Y-90170000D03*
X144780000Y-92710000D03*
X144780000Y-95250000D03*
X144780000Y-97790000D03*
X144780000Y-100330000D03*
G04 #@! TD*
D20*
G04 #@! TO.C,J1*
X185420000Y-130810000D03*
D31*
X185420000Y-133310000D03*
X187420000Y-133310000D03*
X187420000Y-130810000D03*
D32*
X190130000Y-126040000D03*
X190130000Y-138080000D03*
G04 #@! TD*
D13*
G04 #@! TO.C,U1*
X170180000Y-88900000D03*
D14*
X177800000Y-111760000D03*
X170180000Y-91440000D03*
X177800000Y-109220000D03*
X170180000Y-93980000D03*
X177800000Y-106680000D03*
X170180000Y-96520000D03*
X177800000Y-104140000D03*
X170180000Y-99060000D03*
X177800000Y-101600000D03*
X170180000Y-101600000D03*
X177800000Y-99060000D03*
X170180000Y-104140000D03*
X177800000Y-96520000D03*
X170180000Y-106680000D03*
X177800000Y-93980000D03*
X170180000Y-109220000D03*
X177800000Y-91440000D03*
X170180000Y-111760000D03*
X177800000Y-88900000D03*
G04 #@! TD*
D13*
G04 #@! TO.C,SK1*
X114300000Y-61595000D03*
D14*
X129540000Y-99695000D03*
X114300000Y-64135000D03*
X129540000Y-97155000D03*
X114300000Y-66675000D03*
X129540000Y-94615000D03*
X114300000Y-69215000D03*
X129540000Y-92075000D03*
X114300000Y-71755000D03*
X129540000Y-89535000D03*
X114300000Y-74295000D03*
X129540000Y-86995000D03*
X114300000Y-76835000D03*
X129540000Y-84455000D03*
X114300000Y-79375000D03*
X129540000Y-81915000D03*
X114300000Y-81915000D03*
X129540000Y-79375000D03*
X114300000Y-84455000D03*
X129540000Y-76835000D03*
X114300000Y-86995000D03*
X129540000Y-74295000D03*
X114300000Y-89535000D03*
X129540000Y-71755000D03*
X114300000Y-92075000D03*
X129540000Y-69215000D03*
X114300000Y-94615000D03*
X129540000Y-66675000D03*
X114300000Y-97155000D03*
X129540000Y-64135000D03*
X114300000Y-99695000D03*
X129540000Y-61595000D03*
G04 #@! TD*
D33*
G04 #@! TO.C,MH3*
X196850000Y-143510000D03*
G04 #@! TD*
G04 #@! TO.C,MH4*
X105410000Y-143510000D03*
G04 #@! TD*
G04 #@! TO.C,MH2*
X196850000Y-54610000D03*
G04 #@! TD*
G04 #@! TO.C,MH1*
X105410000Y-54610000D03*
G04 #@! TD*
D10*
G04 #@! TO.C,C10*
G36*
X175425289Y-124931413D02*
X175453778Y-124935639D01*
X175481715Y-124942637D01*
X175508832Y-124952340D01*
X175534867Y-124964653D01*
X175559570Y-124979460D01*
X175582703Y-124996616D01*
X175604043Y-125015957D01*
X175623384Y-125037297D01*
X175640540Y-125060430D01*
X175655347Y-125085133D01*
X175667660Y-125111168D01*
X175677363Y-125138285D01*
X175684361Y-125166222D01*
X175688587Y-125194711D01*
X175690000Y-125223477D01*
X175690000Y-126236523D01*
X175688587Y-126265289D01*
X175684361Y-126293778D01*
X175677363Y-126321715D01*
X175667660Y-126348832D01*
X175655347Y-126374867D01*
X175640540Y-126399570D01*
X175623384Y-126422703D01*
X175604043Y-126444043D01*
X175582703Y-126463384D01*
X175559570Y-126480540D01*
X175534867Y-126495347D01*
X175508832Y-126507660D01*
X175481715Y-126517363D01*
X175453778Y-126524361D01*
X175425289Y-126528587D01*
X175396523Y-126530000D01*
X174633477Y-126530000D01*
X174604711Y-126528587D01*
X174576222Y-126524361D01*
X174548285Y-126517363D01*
X174521168Y-126507660D01*
X174495133Y-126495347D01*
X174470430Y-126480540D01*
X174447297Y-126463384D01*
X174425957Y-126444043D01*
X174406616Y-126422703D01*
X174389460Y-126399570D01*
X174374653Y-126374867D01*
X174362340Y-126348832D01*
X174352637Y-126321715D01*
X174345639Y-126293778D01*
X174341413Y-126265289D01*
X174340000Y-126236523D01*
X174340000Y-125223477D01*
X174341413Y-125194711D01*
X174345639Y-125166222D01*
X174352637Y-125138285D01*
X174362340Y-125111168D01*
X174374653Y-125085133D01*
X174389460Y-125060430D01*
X174406616Y-125037297D01*
X174425957Y-125015957D01*
X174447297Y-124996616D01*
X174470430Y-124979460D01*
X174495133Y-124964653D01*
X174521168Y-124952340D01*
X174548285Y-124942637D01*
X174576222Y-124935639D01*
X174604711Y-124931413D01*
X174633477Y-124930000D01*
X175396523Y-124930000D01*
X175425289Y-124931413D01*
X175425289Y-124931413D01*
G37*
D11*
X175015000Y-125730000D03*
D10*
G36*
X173375289Y-124931413D02*
X173403778Y-124935639D01*
X173431715Y-124942637D01*
X173458832Y-124952340D01*
X173484867Y-124964653D01*
X173509570Y-124979460D01*
X173532703Y-124996616D01*
X173554043Y-125015957D01*
X173573384Y-125037297D01*
X173590540Y-125060430D01*
X173605347Y-125085133D01*
X173617660Y-125111168D01*
X173627363Y-125138285D01*
X173634361Y-125166222D01*
X173638587Y-125194711D01*
X173640000Y-125223477D01*
X173640000Y-126236523D01*
X173638587Y-126265289D01*
X173634361Y-126293778D01*
X173627363Y-126321715D01*
X173617660Y-126348832D01*
X173605347Y-126374867D01*
X173590540Y-126399570D01*
X173573384Y-126422703D01*
X173554043Y-126444043D01*
X173532703Y-126463384D01*
X173509570Y-126480540D01*
X173484867Y-126495347D01*
X173458832Y-126507660D01*
X173431715Y-126517363D01*
X173403778Y-126524361D01*
X173375289Y-126528587D01*
X173346523Y-126530000D01*
X172583477Y-126530000D01*
X172554711Y-126528587D01*
X172526222Y-126524361D01*
X172498285Y-126517363D01*
X172471168Y-126507660D01*
X172445133Y-126495347D01*
X172420430Y-126480540D01*
X172397297Y-126463384D01*
X172375957Y-126444043D01*
X172356616Y-126422703D01*
X172339460Y-126399570D01*
X172324653Y-126374867D01*
X172312340Y-126348832D01*
X172302637Y-126321715D01*
X172295639Y-126293778D01*
X172291413Y-126265289D01*
X172290000Y-126236523D01*
X172290000Y-125223477D01*
X172291413Y-125194711D01*
X172295639Y-125166222D01*
X172302637Y-125138285D01*
X172312340Y-125111168D01*
X172324653Y-125085133D01*
X172339460Y-125060430D01*
X172356616Y-125037297D01*
X172375957Y-125015957D01*
X172397297Y-124996616D01*
X172420430Y-124979460D01*
X172445133Y-124964653D01*
X172471168Y-124952340D01*
X172498285Y-124942637D01*
X172526222Y-124935639D01*
X172554711Y-124931413D01*
X172583477Y-124930000D01*
X173346523Y-124930000D01*
X173375289Y-124931413D01*
X173375289Y-124931413D01*
G37*
D11*
X172965000Y-125730000D03*
G04 #@! TD*
D10*
G04 #@! TO.C,C11*
G36*
X168175289Y-75771413D02*
X168203778Y-75775639D01*
X168231715Y-75782637D01*
X168258832Y-75792340D01*
X168284867Y-75804653D01*
X168309570Y-75819460D01*
X168332703Y-75836616D01*
X168354043Y-75855957D01*
X168373384Y-75877297D01*
X168390540Y-75900430D01*
X168405347Y-75925133D01*
X168417660Y-75951168D01*
X168427363Y-75978285D01*
X168434361Y-76006222D01*
X168438587Y-76034711D01*
X168440000Y-76063477D01*
X168440000Y-76826523D01*
X168438587Y-76855289D01*
X168434361Y-76883778D01*
X168427363Y-76911715D01*
X168417660Y-76938832D01*
X168405347Y-76964867D01*
X168390540Y-76989570D01*
X168373384Y-77012703D01*
X168354043Y-77034043D01*
X168332703Y-77053384D01*
X168309570Y-77070540D01*
X168284867Y-77085347D01*
X168258832Y-77097660D01*
X168231715Y-77107363D01*
X168203778Y-77114361D01*
X168175289Y-77118587D01*
X168146523Y-77120000D01*
X167133477Y-77120000D01*
X167104711Y-77118587D01*
X167076222Y-77114361D01*
X167048285Y-77107363D01*
X167021168Y-77097660D01*
X166995133Y-77085347D01*
X166970430Y-77070540D01*
X166947297Y-77053384D01*
X166925957Y-77034043D01*
X166906616Y-77012703D01*
X166889460Y-76989570D01*
X166874653Y-76964867D01*
X166862340Y-76938832D01*
X166852637Y-76911715D01*
X166845639Y-76883778D01*
X166841413Y-76855289D01*
X166840000Y-76826523D01*
X166840000Y-76063477D01*
X166841413Y-76034711D01*
X166845639Y-76006222D01*
X166852637Y-75978285D01*
X166862340Y-75951168D01*
X166874653Y-75925133D01*
X166889460Y-75900430D01*
X166906616Y-75877297D01*
X166925957Y-75855957D01*
X166947297Y-75836616D01*
X166970430Y-75819460D01*
X166995133Y-75804653D01*
X167021168Y-75792340D01*
X167048285Y-75782637D01*
X167076222Y-75775639D01*
X167104711Y-75771413D01*
X167133477Y-75770000D01*
X168146523Y-75770000D01*
X168175289Y-75771413D01*
X168175289Y-75771413D01*
G37*
D11*
X167640000Y-76445000D03*
D10*
G36*
X168175289Y-77821413D02*
X168203778Y-77825639D01*
X168231715Y-77832637D01*
X168258832Y-77842340D01*
X168284867Y-77854653D01*
X168309570Y-77869460D01*
X168332703Y-77886616D01*
X168354043Y-77905957D01*
X168373384Y-77927297D01*
X168390540Y-77950430D01*
X168405347Y-77975133D01*
X168417660Y-78001168D01*
X168427363Y-78028285D01*
X168434361Y-78056222D01*
X168438587Y-78084711D01*
X168440000Y-78113477D01*
X168440000Y-78876523D01*
X168438587Y-78905289D01*
X168434361Y-78933778D01*
X168427363Y-78961715D01*
X168417660Y-78988832D01*
X168405347Y-79014867D01*
X168390540Y-79039570D01*
X168373384Y-79062703D01*
X168354043Y-79084043D01*
X168332703Y-79103384D01*
X168309570Y-79120540D01*
X168284867Y-79135347D01*
X168258832Y-79147660D01*
X168231715Y-79157363D01*
X168203778Y-79164361D01*
X168175289Y-79168587D01*
X168146523Y-79170000D01*
X167133477Y-79170000D01*
X167104711Y-79168587D01*
X167076222Y-79164361D01*
X167048285Y-79157363D01*
X167021168Y-79147660D01*
X166995133Y-79135347D01*
X166970430Y-79120540D01*
X166947297Y-79103384D01*
X166925957Y-79084043D01*
X166906616Y-79062703D01*
X166889460Y-79039570D01*
X166874653Y-79014867D01*
X166862340Y-78988832D01*
X166852637Y-78961715D01*
X166845639Y-78933778D01*
X166841413Y-78905289D01*
X166840000Y-78876523D01*
X166840000Y-78113477D01*
X166841413Y-78084711D01*
X166845639Y-78056222D01*
X166852637Y-78028285D01*
X166862340Y-78001168D01*
X166874653Y-77975133D01*
X166889460Y-77950430D01*
X166906616Y-77927297D01*
X166925957Y-77905957D01*
X166947297Y-77886616D01*
X166970430Y-77869460D01*
X166995133Y-77854653D01*
X167021168Y-77842340D01*
X167048285Y-77832637D01*
X167076222Y-77825639D01*
X167104711Y-77821413D01*
X167133477Y-77820000D01*
X168146523Y-77820000D01*
X168175289Y-77821413D01*
X168175289Y-77821413D01*
G37*
D11*
X167640000Y-78495000D03*
G04 #@! TD*
D10*
G04 #@! TO.C,C12*
G36*
X168175289Y-65121413D02*
X168203778Y-65125639D01*
X168231715Y-65132637D01*
X168258832Y-65142340D01*
X168284867Y-65154653D01*
X168309570Y-65169460D01*
X168332703Y-65186616D01*
X168354043Y-65205957D01*
X168373384Y-65227297D01*
X168390540Y-65250430D01*
X168405347Y-65275133D01*
X168417660Y-65301168D01*
X168427363Y-65328285D01*
X168434361Y-65356222D01*
X168438587Y-65384711D01*
X168440000Y-65413477D01*
X168440000Y-66176523D01*
X168438587Y-66205289D01*
X168434361Y-66233778D01*
X168427363Y-66261715D01*
X168417660Y-66288832D01*
X168405347Y-66314867D01*
X168390540Y-66339570D01*
X168373384Y-66362703D01*
X168354043Y-66384043D01*
X168332703Y-66403384D01*
X168309570Y-66420540D01*
X168284867Y-66435347D01*
X168258832Y-66447660D01*
X168231715Y-66457363D01*
X168203778Y-66464361D01*
X168175289Y-66468587D01*
X168146523Y-66470000D01*
X167133477Y-66470000D01*
X167104711Y-66468587D01*
X167076222Y-66464361D01*
X167048285Y-66457363D01*
X167021168Y-66447660D01*
X166995133Y-66435347D01*
X166970430Y-66420540D01*
X166947297Y-66403384D01*
X166925957Y-66384043D01*
X166906616Y-66362703D01*
X166889460Y-66339570D01*
X166874653Y-66314867D01*
X166862340Y-66288832D01*
X166852637Y-66261715D01*
X166845639Y-66233778D01*
X166841413Y-66205289D01*
X166840000Y-66176523D01*
X166840000Y-65413477D01*
X166841413Y-65384711D01*
X166845639Y-65356222D01*
X166852637Y-65328285D01*
X166862340Y-65301168D01*
X166874653Y-65275133D01*
X166889460Y-65250430D01*
X166906616Y-65227297D01*
X166925957Y-65205957D01*
X166947297Y-65186616D01*
X166970430Y-65169460D01*
X166995133Y-65154653D01*
X167021168Y-65142340D01*
X167048285Y-65132637D01*
X167076222Y-65125639D01*
X167104711Y-65121413D01*
X167133477Y-65120000D01*
X168146523Y-65120000D01*
X168175289Y-65121413D01*
X168175289Y-65121413D01*
G37*
D11*
X167640000Y-65795000D03*
D10*
G36*
X168175289Y-63071413D02*
X168203778Y-63075639D01*
X168231715Y-63082637D01*
X168258832Y-63092340D01*
X168284867Y-63104653D01*
X168309570Y-63119460D01*
X168332703Y-63136616D01*
X168354043Y-63155957D01*
X168373384Y-63177297D01*
X168390540Y-63200430D01*
X168405347Y-63225133D01*
X168417660Y-63251168D01*
X168427363Y-63278285D01*
X168434361Y-63306222D01*
X168438587Y-63334711D01*
X168440000Y-63363477D01*
X168440000Y-64126523D01*
X168438587Y-64155289D01*
X168434361Y-64183778D01*
X168427363Y-64211715D01*
X168417660Y-64238832D01*
X168405347Y-64264867D01*
X168390540Y-64289570D01*
X168373384Y-64312703D01*
X168354043Y-64334043D01*
X168332703Y-64353384D01*
X168309570Y-64370540D01*
X168284867Y-64385347D01*
X168258832Y-64397660D01*
X168231715Y-64407363D01*
X168203778Y-64414361D01*
X168175289Y-64418587D01*
X168146523Y-64420000D01*
X167133477Y-64420000D01*
X167104711Y-64418587D01*
X167076222Y-64414361D01*
X167048285Y-64407363D01*
X167021168Y-64397660D01*
X166995133Y-64385347D01*
X166970430Y-64370540D01*
X166947297Y-64353384D01*
X166925957Y-64334043D01*
X166906616Y-64312703D01*
X166889460Y-64289570D01*
X166874653Y-64264867D01*
X166862340Y-64238832D01*
X166852637Y-64211715D01*
X166845639Y-64183778D01*
X166841413Y-64155289D01*
X166840000Y-64126523D01*
X166840000Y-63363477D01*
X166841413Y-63334711D01*
X166845639Y-63306222D01*
X166852637Y-63278285D01*
X166862340Y-63251168D01*
X166874653Y-63225133D01*
X166889460Y-63200430D01*
X166906616Y-63177297D01*
X166925957Y-63155957D01*
X166947297Y-63136616D01*
X166970430Y-63119460D01*
X166995133Y-63104653D01*
X167021168Y-63092340D01*
X167048285Y-63082637D01*
X167076222Y-63075639D01*
X167104711Y-63071413D01*
X167133477Y-63070000D01*
X168146523Y-63070000D01*
X168175289Y-63071413D01*
X168175289Y-63071413D01*
G37*
D11*
X167640000Y-63745000D03*
G04 #@! TD*
D10*
G04 #@! TO.C,C8*
G36*
X193575289Y-86076413D02*
X193603778Y-86080639D01*
X193631715Y-86087637D01*
X193658832Y-86097340D01*
X193684867Y-86109653D01*
X193709570Y-86124460D01*
X193732703Y-86141616D01*
X193754043Y-86160957D01*
X193773384Y-86182297D01*
X193790540Y-86205430D01*
X193805347Y-86230133D01*
X193817660Y-86256168D01*
X193827363Y-86283285D01*
X193834361Y-86311222D01*
X193838587Y-86339711D01*
X193840000Y-86368477D01*
X193840000Y-87131523D01*
X193838587Y-87160289D01*
X193834361Y-87188778D01*
X193827363Y-87216715D01*
X193817660Y-87243832D01*
X193805347Y-87269867D01*
X193790540Y-87294570D01*
X193773384Y-87317703D01*
X193754043Y-87339043D01*
X193732703Y-87358384D01*
X193709570Y-87375540D01*
X193684867Y-87390347D01*
X193658832Y-87402660D01*
X193631715Y-87412363D01*
X193603778Y-87419361D01*
X193575289Y-87423587D01*
X193546523Y-87425000D01*
X192533477Y-87425000D01*
X192504711Y-87423587D01*
X192476222Y-87419361D01*
X192448285Y-87412363D01*
X192421168Y-87402660D01*
X192395133Y-87390347D01*
X192370430Y-87375540D01*
X192347297Y-87358384D01*
X192325957Y-87339043D01*
X192306616Y-87317703D01*
X192289460Y-87294570D01*
X192274653Y-87269867D01*
X192262340Y-87243832D01*
X192252637Y-87216715D01*
X192245639Y-87188778D01*
X192241413Y-87160289D01*
X192240000Y-87131523D01*
X192240000Y-86368477D01*
X192241413Y-86339711D01*
X192245639Y-86311222D01*
X192252637Y-86283285D01*
X192262340Y-86256168D01*
X192274653Y-86230133D01*
X192289460Y-86205430D01*
X192306616Y-86182297D01*
X192325957Y-86160957D01*
X192347297Y-86141616D01*
X192370430Y-86124460D01*
X192395133Y-86109653D01*
X192421168Y-86097340D01*
X192448285Y-86087637D01*
X192476222Y-86080639D01*
X192504711Y-86076413D01*
X192533477Y-86075000D01*
X193546523Y-86075000D01*
X193575289Y-86076413D01*
X193575289Y-86076413D01*
G37*
D11*
X193040000Y-86750000D03*
D10*
G36*
X193575289Y-84026413D02*
X193603778Y-84030639D01*
X193631715Y-84037637D01*
X193658832Y-84047340D01*
X193684867Y-84059653D01*
X193709570Y-84074460D01*
X193732703Y-84091616D01*
X193754043Y-84110957D01*
X193773384Y-84132297D01*
X193790540Y-84155430D01*
X193805347Y-84180133D01*
X193817660Y-84206168D01*
X193827363Y-84233285D01*
X193834361Y-84261222D01*
X193838587Y-84289711D01*
X193840000Y-84318477D01*
X193840000Y-85081523D01*
X193838587Y-85110289D01*
X193834361Y-85138778D01*
X193827363Y-85166715D01*
X193817660Y-85193832D01*
X193805347Y-85219867D01*
X193790540Y-85244570D01*
X193773384Y-85267703D01*
X193754043Y-85289043D01*
X193732703Y-85308384D01*
X193709570Y-85325540D01*
X193684867Y-85340347D01*
X193658832Y-85352660D01*
X193631715Y-85362363D01*
X193603778Y-85369361D01*
X193575289Y-85373587D01*
X193546523Y-85375000D01*
X192533477Y-85375000D01*
X192504711Y-85373587D01*
X192476222Y-85369361D01*
X192448285Y-85362363D01*
X192421168Y-85352660D01*
X192395133Y-85340347D01*
X192370430Y-85325540D01*
X192347297Y-85308384D01*
X192325957Y-85289043D01*
X192306616Y-85267703D01*
X192289460Y-85244570D01*
X192274653Y-85219867D01*
X192262340Y-85193832D01*
X192252637Y-85166715D01*
X192245639Y-85138778D01*
X192241413Y-85110289D01*
X192240000Y-85081523D01*
X192240000Y-84318477D01*
X192241413Y-84289711D01*
X192245639Y-84261222D01*
X192252637Y-84233285D01*
X192262340Y-84206168D01*
X192274653Y-84180133D01*
X192289460Y-84155430D01*
X192306616Y-84132297D01*
X192325957Y-84110957D01*
X192347297Y-84091616D01*
X192370430Y-84074460D01*
X192395133Y-84059653D01*
X192421168Y-84047340D01*
X192448285Y-84037637D01*
X192476222Y-84030639D01*
X192504711Y-84026413D01*
X192533477Y-84025000D01*
X193546523Y-84025000D01*
X193575289Y-84026413D01*
X193575289Y-84026413D01*
G37*
D11*
X193040000Y-84700000D03*
G04 #@! TD*
D10*
G04 #@! TO.C,C9*
G36*
X193575289Y-89106413D02*
X193603778Y-89110639D01*
X193631715Y-89117637D01*
X193658832Y-89127340D01*
X193684867Y-89139653D01*
X193709570Y-89154460D01*
X193732703Y-89171616D01*
X193754043Y-89190957D01*
X193773384Y-89212297D01*
X193790540Y-89235430D01*
X193805347Y-89260133D01*
X193817660Y-89286168D01*
X193827363Y-89313285D01*
X193834361Y-89341222D01*
X193838587Y-89369711D01*
X193840000Y-89398477D01*
X193840000Y-90161523D01*
X193838587Y-90190289D01*
X193834361Y-90218778D01*
X193827363Y-90246715D01*
X193817660Y-90273832D01*
X193805347Y-90299867D01*
X193790540Y-90324570D01*
X193773384Y-90347703D01*
X193754043Y-90369043D01*
X193732703Y-90388384D01*
X193709570Y-90405540D01*
X193684867Y-90420347D01*
X193658832Y-90432660D01*
X193631715Y-90442363D01*
X193603778Y-90449361D01*
X193575289Y-90453587D01*
X193546523Y-90455000D01*
X192533477Y-90455000D01*
X192504711Y-90453587D01*
X192476222Y-90449361D01*
X192448285Y-90442363D01*
X192421168Y-90432660D01*
X192395133Y-90420347D01*
X192370430Y-90405540D01*
X192347297Y-90388384D01*
X192325957Y-90369043D01*
X192306616Y-90347703D01*
X192289460Y-90324570D01*
X192274653Y-90299867D01*
X192262340Y-90273832D01*
X192252637Y-90246715D01*
X192245639Y-90218778D01*
X192241413Y-90190289D01*
X192240000Y-90161523D01*
X192240000Y-89398477D01*
X192241413Y-89369711D01*
X192245639Y-89341222D01*
X192252637Y-89313285D01*
X192262340Y-89286168D01*
X192274653Y-89260133D01*
X192289460Y-89235430D01*
X192306616Y-89212297D01*
X192325957Y-89190957D01*
X192347297Y-89171616D01*
X192370430Y-89154460D01*
X192395133Y-89139653D01*
X192421168Y-89127340D01*
X192448285Y-89117637D01*
X192476222Y-89110639D01*
X192504711Y-89106413D01*
X192533477Y-89105000D01*
X193546523Y-89105000D01*
X193575289Y-89106413D01*
X193575289Y-89106413D01*
G37*
D11*
X193040000Y-89780000D03*
D10*
G36*
X193575289Y-91156413D02*
X193603778Y-91160639D01*
X193631715Y-91167637D01*
X193658832Y-91177340D01*
X193684867Y-91189653D01*
X193709570Y-91204460D01*
X193732703Y-91221616D01*
X193754043Y-91240957D01*
X193773384Y-91262297D01*
X193790540Y-91285430D01*
X193805347Y-91310133D01*
X193817660Y-91336168D01*
X193827363Y-91363285D01*
X193834361Y-91391222D01*
X193838587Y-91419711D01*
X193840000Y-91448477D01*
X193840000Y-92211523D01*
X193838587Y-92240289D01*
X193834361Y-92268778D01*
X193827363Y-92296715D01*
X193817660Y-92323832D01*
X193805347Y-92349867D01*
X193790540Y-92374570D01*
X193773384Y-92397703D01*
X193754043Y-92419043D01*
X193732703Y-92438384D01*
X193709570Y-92455540D01*
X193684867Y-92470347D01*
X193658832Y-92482660D01*
X193631715Y-92492363D01*
X193603778Y-92499361D01*
X193575289Y-92503587D01*
X193546523Y-92505000D01*
X192533477Y-92505000D01*
X192504711Y-92503587D01*
X192476222Y-92499361D01*
X192448285Y-92492363D01*
X192421168Y-92482660D01*
X192395133Y-92470347D01*
X192370430Y-92455540D01*
X192347297Y-92438384D01*
X192325957Y-92419043D01*
X192306616Y-92397703D01*
X192289460Y-92374570D01*
X192274653Y-92349867D01*
X192262340Y-92323832D01*
X192252637Y-92296715D01*
X192245639Y-92268778D01*
X192241413Y-92240289D01*
X192240000Y-92211523D01*
X192240000Y-91448477D01*
X192241413Y-91419711D01*
X192245639Y-91391222D01*
X192252637Y-91363285D01*
X192262340Y-91336168D01*
X192274653Y-91310133D01*
X192289460Y-91285430D01*
X192306616Y-91262297D01*
X192325957Y-91240957D01*
X192347297Y-91221616D01*
X192370430Y-91204460D01*
X192395133Y-91189653D01*
X192421168Y-91177340D01*
X192448285Y-91167637D01*
X192476222Y-91160639D01*
X192504711Y-91156413D01*
X192533477Y-91155000D01*
X193546523Y-91155000D01*
X193575289Y-91156413D01*
X193575289Y-91156413D01*
G37*
D11*
X193040000Y-91830000D03*
G04 #@! TD*
D10*
G04 #@! TO.C,C7*
G36*
X185955289Y-104981413D02*
X185983778Y-104985639D01*
X186011715Y-104992637D01*
X186038832Y-105002340D01*
X186064867Y-105014653D01*
X186089570Y-105029460D01*
X186112703Y-105046616D01*
X186134043Y-105065957D01*
X186153384Y-105087297D01*
X186170540Y-105110430D01*
X186185347Y-105135133D01*
X186197660Y-105161168D01*
X186207363Y-105188285D01*
X186214361Y-105216222D01*
X186218587Y-105244711D01*
X186220000Y-105273477D01*
X186220000Y-106036523D01*
X186218587Y-106065289D01*
X186214361Y-106093778D01*
X186207363Y-106121715D01*
X186197660Y-106148832D01*
X186185347Y-106174867D01*
X186170540Y-106199570D01*
X186153384Y-106222703D01*
X186134043Y-106244043D01*
X186112703Y-106263384D01*
X186089570Y-106280540D01*
X186064867Y-106295347D01*
X186038832Y-106307660D01*
X186011715Y-106317363D01*
X185983778Y-106324361D01*
X185955289Y-106328587D01*
X185926523Y-106330000D01*
X184913477Y-106330000D01*
X184884711Y-106328587D01*
X184856222Y-106324361D01*
X184828285Y-106317363D01*
X184801168Y-106307660D01*
X184775133Y-106295347D01*
X184750430Y-106280540D01*
X184727297Y-106263384D01*
X184705957Y-106244043D01*
X184686616Y-106222703D01*
X184669460Y-106199570D01*
X184654653Y-106174867D01*
X184642340Y-106148832D01*
X184632637Y-106121715D01*
X184625639Y-106093778D01*
X184621413Y-106065289D01*
X184620000Y-106036523D01*
X184620000Y-105273477D01*
X184621413Y-105244711D01*
X184625639Y-105216222D01*
X184632637Y-105188285D01*
X184642340Y-105161168D01*
X184654653Y-105135133D01*
X184669460Y-105110430D01*
X184686616Y-105087297D01*
X184705957Y-105065957D01*
X184727297Y-105046616D01*
X184750430Y-105029460D01*
X184775133Y-105014653D01*
X184801168Y-105002340D01*
X184828285Y-104992637D01*
X184856222Y-104985639D01*
X184884711Y-104981413D01*
X184913477Y-104980000D01*
X185926523Y-104980000D01*
X185955289Y-104981413D01*
X185955289Y-104981413D01*
G37*
D11*
X185420000Y-105655000D03*
D10*
G36*
X185955289Y-107031413D02*
X185983778Y-107035639D01*
X186011715Y-107042637D01*
X186038832Y-107052340D01*
X186064867Y-107064653D01*
X186089570Y-107079460D01*
X186112703Y-107096616D01*
X186134043Y-107115957D01*
X186153384Y-107137297D01*
X186170540Y-107160430D01*
X186185347Y-107185133D01*
X186197660Y-107211168D01*
X186207363Y-107238285D01*
X186214361Y-107266222D01*
X186218587Y-107294711D01*
X186220000Y-107323477D01*
X186220000Y-108086523D01*
X186218587Y-108115289D01*
X186214361Y-108143778D01*
X186207363Y-108171715D01*
X186197660Y-108198832D01*
X186185347Y-108224867D01*
X186170540Y-108249570D01*
X186153384Y-108272703D01*
X186134043Y-108294043D01*
X186112703Y-108313384D01*
X186089570Y-108330540D01*
X186064867Y-108345347D01*
X186038832Y-108357660D01*
X186011715Y-108367363D01*
X185983778Y-108374361D01*
X185955289Y-108378587D01*
X185926523Y-108380000D01*
X184913477Y-108380000D01*
X184884711Y-108378587D01*
X184856222Y-108374361D01*
X184828285Y-108367363D01*
X184801168Y-108357660D01*
X184775133Y-108345347D01*
X184750430Y-108330540D01*
X184727297Y-108313384D01*
X184705957Y-108294043D01*
X184686616Y-108272703D01*
X184669460Y-108249570D01*
X184654653Y-108224867D01*
X184642340Y-108198832D01*
X184632637Y-108171715D01*
X184625639Y-108143778D01*
X184621413Y-108115289D01*
X184620000Y-108086523D01*
X184620000Y-107323477D01*
X184621413Y-107294711D01*
X184625639Y-107266222D01*
X184632637Y-107238285D01*
X184642340Y-107211168D01*
X184654653Y-107185133D01*
X184669460Y-107160430D01*
X184686616Y-107137297D01*
X184705957Y-107115957D01*
X184727297Y-107096616D01*
X184750430Y-107079460D01*
X184775133Y-107064653D01*
X184801168Y-107052340D01*
X184828285Y-107042637D01*
X184856222Y-107035639D01*
X184884711Y-107031413D01*
X184913477Y-107030000D01*
X185926523Y-107030000D01*
X185955289Y-107031413D01*
X185955289Y-107031413D01*
G37*
D11*
X185420000Y-107705000D03*
G04 #@! TD*
D10*
G04 #@! TO.C,R6*
G36*
X175425289Y-119851413D02*
X175453778Y-119855639D01*
X175481715Y-119862637D01*
X175508832Y-119872340D01*
X175534867Y-119884653D01*
X175559570Y-119899460D01*
X175582703Y-119916616D01*
X175604043Y-119935957D01*
X175623384Y-119957297D01*
X175640540Y-119980430D01*
X175655347Y-120005133D01*
X175667660Y-120031168D01*
X175677363Y-120058285D01*
X175684361Y-120086222D01*
X175688587Y-120114711D01*
X175690000Y-120143477D01*
X175690000Y-121156523D01*
X175688587Y-121185289D01*
X175684361Y-121213778D01*
X175677363Y-121241715D01*
X175667660Y-121268832D01*
X175655347Y-121294867D01*
X175640540Y-121319570D01*
X175623384Y-121342703D01*
X175604043Y-121364043D01*
X175582703Y-121383384D01*
X175559570Y-121400540D01*
X175534867Y-121415347D01*
X175508832Y-121427660D01*
X175481715Y-121437363D01*
X175453778Y-121444361D01*
X175425289Y-121448587D01*
X175396523Y-121450000D01*
X174633477Y-121450000D01*
X174604711Y-121448587D01*
X174576222Y-121444361D01*
X174548285Y-121437363D01*
X174521168Y-121427660D01*
X174495133Y-121415347D01*
X174470430Y-121400540D01*
X174447297Y-121383384D01*
X174425957Y-121364043D01*
X174406616Y-121342703D01*
X174389460Y-121319570D01*
X174374653Y-121294867D01*
X174362340Y-121268832D01*
X174352637Y-121241715D01*
X174345639Y-121213778D01*
X174341413Y-121185289D01*
X174340000Y-121156523D01*
X174340000Y-120143477D01*
X174341413Y-120114711D01*
X174345639Y-120086222D01*
X174352637Y-120058285D01*
X174362340Y-120031168D01*
X174374653Y-120005133D01*
X174389460Y-119980430D01*
X174406616Y-119957297D01*
X174425957Y-119935957D01*
X174447297Y-119916616D01*
X174470430Y-119899460D01*
X174495133Y-119884653D01*
X174521168Y-119872340D01*
X174548285Y-119862637D01*
X174576222Y-119855639D01*
X174604711Y-119851413D01*
X174633477Y-119850000D01*
X175396523Y-119850000D01*
X175425289Y-119851413D01*
X175425289Y-119851413D01*
G37*
D11*
X175015000Y-120650000D03*
D10*
G36*
X173375289Y-119851413D02*
X173403778Y-119855639D01*
X173431715Y-119862637D01*
X173458832Y-119872340D01*
X173484867Y-119884653D01*
X173509570Y-119899460D01*
X173532703Y-119916616D01*
X173554043Y-119935957D01*
X173573384Y-119957297D01*
X173590540Y-119980430D01*
X173605347Y-120005133D01*
X173617660Y-120031168D01*
X173627363Y-120058285D01*
X173634361Y-120086222D01*
X173638587Y-120114711D01*
X173640000Y-120143477D01*
X173640000Y-121156523D01*
X173638587Y-121185289D01*
X173634361Y-121213778D01*
X173627363Y-121241715D01*
X173617660Y-121268832D01*
X173605347Y-121294867D01*
X173590540Y-121319570D01*
X173573384Y-121342703D01*
X173554043Y-121364043D01*
X173532703Y-121383384D01*
X173509570Y-121400540D01*
X173484867Y-121415347D01*
X173458832Y-121427660D01*
X173431715Y-121437363D01*
X173403778Y-121444361D01*
X173375289Y-121448587D01*
X173346523Y-121450000D01*
X172583477Y-121450000D01*
X172554711Y-121448587D01*
X172526222Y-121444361D01*
X172498285Y-121437363D01*
X172471168Y-121427660D01*
X172445133Y-121415347D01*
X172420430Y-121400540D01*
X172397297Y-121383384D01*
X172375957Y-121364043D01*
X172356616Y-121342703D01*
X172339460Y-121319570D01*
X172324653Y-121294867D01*
X172312340Y-121268832D01*
X172302637Y-121241715D01*
X172295639Y-121213778D01*
X172291413Y-121185289D01*
X172290000Y-121156523D01*
X172290000Y-120143477D01*
X172291413Y-120114711D01*
X172295639Y-120086222D01*
X172302637Y-120058285D01*
X172312340Y-120031168D01*
X172324653Y-120005133D01*
X172339460Y-119980430D01*
X172356616Y-119957297D01*
X172375957Y-119935957D01*
X172397297Y-119916616D01*
X172420430Y-119899460D01*
X172445133Y-119884653D01*
X172471168Y-119872340D01*
X172498285Y-119862637D01*
X172526222Y-119855639D01*
X172554711Y-119851413D01*
X172583477Y-119850000D01*
X173346523Y-119850000D01*
X173375289Y-119851413D01*
X173375289Y-119851413D01*
G37*
D11*
X172965000Y-120650000D03*
G04 #@! TD*
D10*
G04 #@! TO.C,R5*
G36*
X175425289Y-122391413D02*
X175453778Y-122395639D01*
X175481715Y-122402637D01*
X175508832Y-122412340D01*
X175534867Y-122424653D01*
X175559570Y-122439460D01*
X175582703Y-122456616D01*
X175604043Y-122475957D01*
X175623384Y-122497297D01*
X175640540Y-122520430D01*
X175655347Y-122545133D01*
X175667660Y-122571168D01*
X175677363Y-122598285D01*
X175684361Y-122626222D01*
X175688587Y-122654711D01*
X175690000Y-122683477D01*
X175690000Y-123696523D01*
X175688587Y-123725289D01*
X175684361Y-123753778D01*
X175677363Y-123781715D01*
X175667660Y-123808832D01*
X175655347Y-123834867D01*
X175640540Y-123859570D01*
X175623384Y-123882703D01*
X175604043Y-123904043D01*
X175582703Y-123923384D01*
X175559570Y-123940540D01*
X175534867Y-123955347D01*
X175508832Y-123967660D01*
X175481715Y-123977363D01*
X175453778Y-123984361D01*
X175425289Y-123988587D01*
X175396523Y-123990000D01*
X174633477Y-123990000D01*
X174604711Y-123988587D01*
X174576222Y-123984361D01*
X174548285Y-123977363D01*
X174521168Y-123967660D01*
X174495133Y-123955347D01*
X174470430Y-123940540D01*
X174447297Y-123923384D01*
X174425957Y-123904043D01*
X174406616Y-123882703D01*
X174389460Y-123859570D01*
X174374653Y-123834867D01*
X174362340Y-123808832D01*
X174352637Y-123781715D01*
X174345639Y-123753778D01*
X174341413Y-123725289D01*
X174340000Y-123696523D01*
X174340000Y-122683477D01*
X174341413Y-122654711D01*
X174345639Y-122626222D01*
X174352637Y-122598285D01*
X174362340Y-122571168D01*
X174374653Y-122545133D01*
X174389460Y-122520430D01*
X174406616Y-122497297D01*
X174425957Y-122475957D01*
X174447297Y-122456616D01*
X174470430Y-122439460D01*
X174495133Y-122424653D01*
X174521168Y-122412340D01*
X174548285Y-122402637D01*
X174576222Y-122395639D01*
X174604711Y-122391413D01*
X174633477Y-122390000D01*
X175396523Y-122390000D01*
X175425289Y-122391413D01*
X175425289Y-122391413D01*
G37*
D11*
X175015000Y-123190000D03*
D10*
G36*
X173375289Y-122391413D02*
X173403778Y-122395639D01*
X173431715Y-122402637D01*
X173458832Y-122412340D01*
X173484867Y-122424653D01*
X173509570Y-122439460D01*
X173532703Y-122456616D01*
X173554043Y-122475957D01*
X173573384Y-122497297D01*
X173590540Y-122520430D01*
X173605347Y-122545133D01*
X173617660Y-122571168D01*
X173627363Y-122598285D01*
X173634361Y-122626222D01*
X173638587Y-122654711D01*
X173640000Y-122683477D01*
X173640000Y-123696523D01*
X173638587Y-123725289D01*
X173634361Y-123753778D01*
X173627363Y-123781715D01*
X173617660Y-123808832D01*
X173605347Y-123834867D01*
X173590540Y-123859570D01*
X173573384Y-123882703D01*
X173554043Y-123904043D01*
X173532703Y-123923384D01*
X173509570Y-123940540D01*
X173484867Y-123955347D01*
X173458832Y-123967660D01*
X173431715Y-123977363D01*
X173403778Y-123984361D01*
X173375289Y-123988587D01*
X173346523Y-123990000D01*
X172583477Y-123990000D01*
X172554711Y-123988587D01*
X172526222Y-123984361D01*
X172498285Y-123977363D01*
X172471168Y-123967660D01*
X172445133Y-123955347D01*
X172420430Y-123940540D01*
X172397297Y-123923384D01*
X172375957Y-123904043D01*
X172356616Y-123882703D01*
X172339460Y-123859570D01*
X172324653Y-123834867D01*
X172312340Y-123808832D01*
X172302637Y-123781715D01*
X172295639Y-123753778D01*
X172291413Y-123725289D01*
X172290000Y-123696523D01*
X172290000Y-122683477D01*
X172291413Y-122654711D01*
X172295639Y-122626222D01*
X172302637Y-122598285D01*
X172312340Y-122571168D01*
X172324653Y-122545133D01*
X172339460Y-122520430D01*
X172356616Y-122497297D01*
X172375957Y-122475957D01*
X172397297Y-122456616D01*
X172420430Y-122439460D01*
X172445133Y-122424653D01*
X172471168Y-122412340D01*
X172498285Y-122402637D01*
X172526222Y-122395639D01*
X172554711Y-122391413D01*
X172583477Y-122390000D01*
X173346523Y-122390000D01*
X173375289Y-122391413D01*
X173375289Y-122391413D01*
G37*
D11*
X172965000Y-123190000D03*
G04 #@! TD*
D10*
G04 #@! TO.C,C2*
G36*
X142140289Y-82121413D02*
X142168778Y-82125639D01*
X142196715Y-82132637D01*
X142223832Y-82142340D01*
X142249867Y-82154653D01*
X142274570Y-82169460D01*
X142297703Y-82186616D01*
X142319043Y-82205957D01*
X142338384Y-82227297D01*
X142355540Y-82250430D01*
X142370347Y-82275133D01*
X142382660Y-82301168D01*
X142392363Y-82328285D01*
X142399361Y-82356222D01*
X142403587Y-82384711D01*
X142405000Y-82413477D01*
X142405000Y-83176523D01*
X142403587Y-83205289D01*
X142399361Y-83233778D01*
X142392363Y-83261715D01*
X142382660Y-83288832D01*
X142370347Y-83314867D01*
X142355540Y-83339570D01*
X142338384Y-83362703D01*
X142319043Y-83384043D01*
X142297703Y-83403384D01*
X142274570Y-83420540D01*
X142249867Y-83435347D01*
X142223832Y-83447660D01*
X142196715Y-83457363D01*
X142168778Y-83464361D01*
X142140289Y-83468587D01*
X142111523Y-83470000D01*
X141098477Y-83470000D01*
X141069711Y-83468587D01*
X141041222Y-83464361D01*
X141013285Y-83457363D01*
X140986168Y-83447660D01*
X140960133Y-83435347D01*
X140935430Y-83420540D01*
X140912297Y-83403384D01*
X140890957Y-83384043D01*
X140871616Y-83362703D01*
X140854460Y-83339570D01*
X140839653Y-83314867D01*
X140827340Y-83288832D01*
X140817637Y-83261715D01*
X140810639Y-83233778D01*
X140806413Y-83205289D01*
X140805000Y-83176523D01*
X140805000Y-82413477D01*
X140806413Y-82384711D01*
X140810639Y-82356222D01*
X140817637Y-82328285D01*
X140827340Y-82301168D01*
X140839653Y-82275133D01*
X140854460Y-82250430D01*
X140871616Y-82227297D01*
X140890957Y-82205957D01*
X140912297Y-82186616D01*
X140935430Y-82169460D01*
X140960133Y-82154653D01*
X140986168Y-82142340D01*
X141013285Y-82132637D01*
X141041222Y-82125639D01*
X141069711Y-82121413D01*
X141098477Y-82120000D01*
X142111523Y-82120000D01*
X142140289Y-82121413D01*
X142140289Y-82121413D01*
G37*
D11*
X141605000Y-82795000D03*
D10*
G36*
X142140289Y-84171413D02*
X142168778Y-84175639D01*
X142196715Y-84182637D01*
X142223832Y-84192340D01*
X142249867Y-84204653D01*
X142274570Y-84219460D01*
X142297703Y-84236616D01*
X142319043Y-84255957D01*
X142338384Y-84277297D01*
X142355540Y-84300430D01*
X142370347Y-84325133D01*
X142382660Y-84351168D01*
X142392363Y-84378285D01*
X142399361Y-84406222D01*
X142403587Y-84434711D01*
X142405000Y-84463477D01*
X142405000Y-85226523D01*
X142403587Y-85255289D01*
X142399361Y-85283778D01*
X142392363Y-85311715D01*
X142382660Y-85338832D01*
X142370347Y-85364867D01*
X142355540Y-85389570D01*
X142338384Y-85412703D01*
X142319043Y-85434043D01*
X142297703Y-85453384D01*
X142274570Y-85470540D01*
X142249867Y-85485347D01*
X142223832Y-85497660D01*
X142196715Y-85507363D01*
X142168778Y-85514361D01*
X142140289Y-85518587D01*
X142111523Y-85520000D01*
X141098477Y-85520000D01*
X141069711Y-85518587D01*
X141041222Y-85514361D01*
X141013285Y-85507363D01*
X140986168Y-85497660D01*
X140960133Y-85485347D01*
X140935430Y-85470540D01*
X140912297Y-85453384D01*
X140890957Y-85434043D01*
X140871616Y-85412703D01*
X140854460Y-85389570D01*
X140839653Y-85364867D01*
X140827340Y-85338832D01*
X140817637Y-85311715D01*
X140810639Y-85283778D01*
X140806413Y-85255289D01*
X140805000Y-85226523D01*
X140805000Y-84463477D01*
X140806413Y-84434711D01*
X140810639Y-84406222D01*
X140817637Y-84378285D01*
X140827340Y-84351168D01*
X140839653Y-84325133D01*
X140854460Y-84300430D01*
X140871616Y-84277297D01*
X140890957Y-84255957D01*
X140912297Y-84236616D01*
X140935430Y-84219460D01*
X140960133Y-84204653D01*
X140986168Y-84192340D01*
X141013285Y-84182637D01*
X141041222Y-84175639D01*
X141069711Y-84171413D01*
X141098477Y-84170000D01*
X142111523Y-84170000D01*
X142140289Y-84171413D01*
X142140289Y-84171413D01*
G37*
D11*
X141605000Y-84845000D03*
G04 #@! TD*
D10*
G04 #@! TO.C,C3*
G36*
X198020289Y-109571413D02*
X198048778Y-109575639D01*
X198076715Y-109582637D01*
X198103832Y-109592340D01*
X198129867Y-109604653D01*
X198154570Y-109619460D01*
X198177703Y-109636616D01*
X198199043Y-109655957D01*
X198218384Y-109677297D01*
X198235540Y-109700430D01*
X198250347Y-109725133D01*
X198262660Y-109751168D01*
X198272363Y-109778285D01*
X198279361Y-109806222D01*
X198283587Y-109834711D01*
X198285000Y-109863477D01*
X198285000Y-110626523D01*
X198283587Y-110655289D01*
X198279361Y-110683778D01*
X198272363Y-110711715D01*
X198262660Y-110738832D01*
X198250347Y-110764867D01*
X198235540Y-110789570D01*
X198218384Y-110812703D01*
X198199043Y-110834043D01*
X198177703Y-110853384D01*
X198154570Y-110870540D01*
X198129867Y-110885347D01*
X198103832Y-110897660D01*
X198076715Y-110907363D01*
X198048778Y-110914361D01*
X198020289Y-110918587D01*
X197991523Y-110920000D01*
X196978477Y-110920000D01*
X196949711Y-110918587D01*
X196921222Y-110914361D01*
X196893285Y-110907363D01*
X196866168Y-110897660D01*
X196840133Y-110885347D01*
X196815430Y-110870540D01*
X196792297Y-110853384D01*
X196770957Y-110834043D01*
X196751616Y-110812703D01*
X196734460Y-110789570D01*
X196719653Y-110764867D01*
X196707340Y-110738832D01*
X196697637Y-110711715D01*
X196690639Y-110683778D01*
X196686413Y-110655289D01*
X196685000Y-110626523D01*
X196685000Y-109863477D01*
X196686413Y-109834711D01*
X196690639Y-109806222D01*
X196697637Y-109778285D01*
X196707340Y-109751168D01*
X196719653Y-109725133D01*
X196734460Y-109700430D01*
X196751616Y-109677297D01*
X196770957Y-109655957D01*
X196792297Y-109636616D01*
X196815430Y-109619460D01*
X196840133Y-109604653D01*
X196866168Y-109592340D01*
X196893285Y-109582637D01*
X196921222Y-109575639D01*
X196949711Y-109571413D01*
X196978477Y-109570000D01*
X197991523Y-109570000D01*
X198020289Y-109571413D01*
X198020289Y-109571413D01*
G37*
D11*
X197485000Y-110245000D03*
D10*
G36*
X198020289Y-107521413D02*
X198048778Y-107525639D01*
X198076715Y-107532637D01*
X198103832Y-107542340D01*
X198129867Y-107554653D01*
X198154570Y-107569460D01*
X198177703Y-107586616D01*
X198199043Y-107605957D01*
X198218384Y-107627297D01*
X198235540Y-107650430D01*
X198250347Y-107675133D01*
X198262660Y-107701168D01*
X198272363Y-107728285D01*
X198279361Y-107756222D01*
X198283587Y-107784711D01*
X198285000Y-107813477D01*
X198285000Y-108576523D01*
X198283587Y-108605289D01*
X198279361Y-108633778D01*
X198272363Y-108661715D01*
X198262660Y-108688832D01*
X198250347Y-108714867D01*
X198235540Y-108739570D01*
X198218384Y-108762703D01*
X198199043Y-108784043D01*
X198177703Y-108803384D01*
X198154570Y-108820540D01*
X198129867Y-108835347D01*
X198103832Y-108847660D01*
X198076715Y-108857363D01*
X198048778Y-108864361D01*
X198020289Y-108868587D01*
X197991523Y-108870000D01*
X196978477Y-108870000D01*
X196949711Y-108868587D01*
X196921222Y-108864361D01*
X196893285Y-108857363D01*
X196866168Y-108847660D01*
X196840133Y-108835347D01*
X196815430Y-108820540D01*
X196792297Y-108803384D01*
X196770957Y-108784043D01*
X196751616Y-108762703D01*
X196734460Y-108739570D01*
X196719653Y-108714867D01*
X196707340Y-108688832D01*
X196697637Y-108661715D01*
X196690639Y-108633778D01*
X196686413Y-108605289D01*
X196685000Y-108576523D01*
X196685000Y-107813477D01*
X196686413Y-107784711D01*
X196690639Y-107756222D01*
X196697637Y-107728285D01*
X196707340Y-107701168D01*
X196719653Y-107675133D01*
X196734460Y-107650430D01*
X196751616Y-107627297D01*
X196770957Y-107605957D01*
X196792297Y-107586616D01*
X196815430Y-107569460D01*
X196840133Y-107554653D01*
X196866168Y-107542340D01*
X196893285Y-107532637D01*
X196921222Y-107525639D01*
X196949711Y-107521413D01*
X196978477Y-107520000D01*
X197991523Y-107520000D01*
X198020289Y-107521413D01*
X198020289Y-107521413D01*
G37*
D11*
X197485000Y-108195000D03*
G04 #@! TD*
D10*
G04 #@! TO.C,C4*
G36*
X191035289Y-112111413D02*
X191063778Y-112115639D01*
X191091715Y-112122637D01*
X191118832Y-112132340D01*
X191144867Y-112144653D01*
X191169570Y-112159460D01*
X191192703Y-112176616D01*
X191214043Y-112195957D01*
X191233384Y-112217297D01*
X191250540Y-112240430D01*
X191265347Y-112265133D01*
X191277660Y-112291168D01*
X191287363Y-112318285D01*
X191294361Y-112346222D01*
X191298587Y-112374711D01*
X191300000Y-112403477D01*
X191300000Y-113166523D01*
X191298587Y-113195289D01*
X191294361Y-113223778D01*
X191287363Y-113251715D01*
X191277660Y-113278832D01*
X191265347Y-113304867D01*
X191250540Y-113329570D01*
X191233384Y-113352703D01*
X191214043Y-113374043D01*
X191192703Y-113393384D01*
X191169570Y-113410540D01*
X191144867Y-113425347D01*
X191118832Y-113437660D01*
X191091715Y-113447363D01*
X191063778Y-113454361D01*
X191035289Y-113458587D01*
X191006523Y-113460000D01*
X189993477Y-113460000D01*
X189964711Y-113458587D01*
X189936222Y-113454361D01*
X189908285Y-113447363D01*
X189881168Y-113437660D01*
X189855133Y-113425347D01*
X189830430Y-113410540D01*
X189807297Y-113393384D01*
X189785957Y-113374043D01*
X189766616Y-113352703D01*
X189749460Y-113329570D01*
X189734653Y-113304867D01*
X189722340Y-113278832D01*
X189712637Y-113251715D01*
X189705639Y-113223778D01*
X189701413Y-113195289D01*
X189700000Y-113166523D01*
X189700000Y-112403477D01*
X189701413Y-112374711D01*
X189705639Y-112346222D01*
X189712637Y-112318285D01*
X189722340Y-112291168D01*
X189734653Y-112265133D01*
X189749460Y-112240430D01*
X189766616Y-112217297D01*
X189785957Y-112195957D01*
X189807297Y-112176616D01*
X189830430Y-112159460D01*
X189855133Y-112144653D01*
X189881168Y-112132340D01*
X189908285Y-112122637D01*
X189936222Y-112115639D01*
X189964711Y-112111413D01*
X189993477Y-112110000D01*
X191006523Y-112110000D01*
X191035289Y-112111413D01*
X191035289Y-112111413D01*
G37*
D11*
X190500000Y-112785000D03*
D10*
G36*
X191035289Y-110061413D02*
X191063778Y-110065639D01*
X191091715Y-110072637D01*
X191118832Y-110082340D01*
X191144867Y-110094653D01*
X191169570Y-110109460D01*
X191192703Y-110126616D01*
X191214043Y-110145957D01*
X191233384Y-110167297D01*
X191250540Y-110190430D01*
X191265347Y-110215133D01*
X191277660Y-110241168D01*
X191287363Y-110268285D01*
X191294361Y-110296222D01*
X191298587Y-110324711D01*
X191300000Y-110353477D01*
X191300000Y-111116523D01*
X191298587Y-111145289D01*
X191294361Y-111173778D01*
X191287363Y-111201715D01*
X191277660Y-111228832D01*
X191265347Y-111254867D01*
X191250540Y-111279570D01*
X191233384Y-111302703D01*
X191214043Y-111324043D01*
X191192703Y-111343384D01*
X191169570Y-111360540D01*
X191144867Y-111375347D01*
X191118832Y-111387660D01*
X191091715Y-111397363D01*
X191063778Y-111404361D01*
X191035289Y-111408587D01*
X191006523Y-111410000D01*
X189993477Y-111410000D01*
X189964711Y-111408587D01*
X189936222Y-111404361D01*
X189908285Y-111397363D01*
X189881168Y-111387660D01*
X189855133Y-111375347D01*
X189830430Y-111360540D01*
X189807297Y-111343384D01*
X189785957Y-111324043D01*
X189766616Y-111302703D01*
X189749460Y-111279570D01*
X189734653Y-111254867D01*
X189722340Y-111228832D01*
X189712637Y-111201715D01*
X189705639Y-111173778D01*
X189701413Y-111145289D01*
X189700000Y-111116523D01*
X189700000Y-110353477D01*
X189701413Y-110324711D01*
X189705639Y-110296222D01*
X189712637Y-110268285D01*
X189722340Y-110241168D01*
X189734653Y-110215133D01*
X189749460Y-110190430D01*
X189766616Y-110167297D01*
X189785957Y-110145957D01*
X189807297Y-110126616D01*
X189830430Y-110109460D01*
X189855133Y-110094653D01*
X189881168Y-110082340D01*
X189908285Y-110072637D01*
X189936222Y-110065639D01*
X189964711Y-110061413D01*
X189993477Y-110060000D01*
X191006523Y-110060000D01*
X191035289Y-110061413D01*
X191035289Y-110061413D01*
G37*
D11*
X190500000Y-110735000D03*
G04 #@! TD*
D10*
G04 #@! TO.C,C5*
G36*
X174525289Y-88471413D02*
X174553778Y-88475639D01*
X174581715Y-88482637D01*
X174608832Y-88492340D01*
X174634867Y-88504653D01*
X174659570Y-88519460D01*
X174682703Y-88536616D01*
X174704043Y-88555957D01*
X174723384Y-88577297D01*
X174740540Y-88600430D01*
X174755347Y-88625133D01*
X174767660Y-88651168D01*
X174777363Y-88678285D01*
X174784361Y-88706222D01*
X174788587Y-88734711D01*
X174790000Y-88763477D01*
X174790000Y-89526523D01*
X174788587Y-89555289D01*
X174784361Y-89583778D01*
X174777363Y-89611715D01*
X174767660Y-89638832D01*
X174755347Y-89664867D01*
X174740540Y-89689570D01*
X174723384Y-89712703D01*
X174704043Y-89734043D01*
X174682703Y-89753384D01*
X174659570Y-89770540D01*
X174634867Y-89785347D01*
X174608832Y-89797660D01*
X174581715Y-89807363D01*
X174553778Y-89814361D01*
X174525289Y-89818587D01*
X174496523Y-89820000D01*
X173483477Y-89820000D01*
X173454711Y-89818587D01*
X173426222Y-89814361D01*
X173398285Y-89807363D01*
X173371168Y-89797660D01*
X173345133Y-89785347D01*
X173320430Y-89770540D01*
X173297297Y-89753384D01*
X173275957Y-89734043D01*
X173256616Y-89712703D01*
X173239460Y-89689570D01*
X173224653Y-89664867D01*
X173212340Y-89638832D01*
X173202637Y-89611715D01*
X173195639Y-89583778D01*
X173191413Y-89555289D01*
X173190000Y-89526523D01*
X173190000Y-88763477D01*
X173191413Y-88734711D01*
X173195639Y-88706222D01*
X173202637Y-88678285D01*
X173212340Y-88651168D01*
X173224653Y-88625133D01*
X173239460Y-88600430D01*
X173256616Y-88577297D01*
X173275957Y-88555957D01*
X173297297Y-88536616D01*
X173320430Y-88519460D01*
X173345133Y-88504653D01*
X173371168Y-88492340D01*
X173398285Y-88482637D01*
X173426222Y-88475639D01*
X173454711Y-88471413D01*
X173483477Y-88470000D01*
X174496523Y-88470000D01*
X174525289Y-88471413D01*
X174525289Y-88471413D01*
G37*
D11*
X173990000Y-89145000D03*
D10*
G36*
X174525289Y-90521413D02*
X174553778Y-90525639D01*
X174581715Y-90532637D01*
X174608832Y-90542340D01*
X174634867Y-90554653D01*
X174659570Y-90569460D01*
X174682703Y-90586616D01*
X174704043Y-90605957D01*
X174723384Y-90627297D01*
X174740540Y-90650430D01*
X174755347Y-90675133D01*
X174767660Y-90701168D01*
X174777363Y-90728285D01*
X174784361Y-90756222D01*
X174788587Y-90784711D01*
X174790000Y-90813477D01*
X174790000Y-91576523D01*
X174788587Y-91605289D01*
X174784361Y-91633778D01*
X174777363Y-91661715D01*
X174767660Y-91688832D01*
X174755347Y-91714867D01*
X174740540Y-91739570D01*
X174723384Y-91762703D01*
X174704043Y-91784043D01*
X174682703Y-91803384D01*
X174659570Y-91820540D01*
X174634867Y-91835347D01*
X174608832Y-91847660D01*
X174581715Y-91857363D01*
X174553778Y-91864361D01*
X174525289Y-91868587D01*
X174496523Y-91870000D01*
X173483477Y-91870000D01*
X173454711Y-91868587D01*
X173426222Y-91864361D01*
X173398285Y-91857363D01*
X173371168Y-91847660D01*
X173345133Y-91835347D01*
X173320430Y-91820540D01*
X173297297Y-91803384D01*
X173275957Y-91784043D01*
X173256616Y-91762703D01*
X173239460Y-91739570D01*
X173224653Y-91714867D01*
X173212340Y-91688832D01*
X173202637Y-91661715D01*
X173195639Y-91633778D01*
X173191413Y-91605289D01*
X173190000Y-91576523D01*
X173190000Y-90813477D01*
X173191413Y-90784711D01*
X173195639Y-90756222D01*
X173202637Y-90728285D01*
X173212340Y-90701168D01*
X173224653Y-90675133D01*
X173239460Y-90650430D01*
X173256616Y-90627297D01*
X173275957Y-90605957D01*
X173297297Y-90586616D01*
X173320430Y-90569460D01*
X173345133Y-90554653D01*
X173371168Y-90542340D01*
X173398285Y-90532637D01*
X173426222Y-90525639D01*
X173454711Y-90521413D01*
X173483477Y-90520000D01*
X174496523Y-90520000D01*
X174525289Y-90521413D01*
X174525289Y-90521413D01*
G37*
D11*
X173990000Y-91195000D03*
G04 #@! TD*
D10*
G04 #@! TO.C,C6*
G36*
X193575289Y-78946413D02*
X193603778Y-78950639D01*
X193631715Y-78957637D01*
X193658832Y-78967340D01*
X193684867Y-78979653D01*
X193709570Y-78994460D01*
X193732703Y-79011616D01*
X193754043Y-79030957D01*
X193773384Y-79052297D01*
X193790540Y-79075430D01*
X193805347Y-79100133D01*
X193817660Y-79126168D01*
X193827363Y-79153285D01*
X193834361Y-79181222D01*
X193838587Y-79209711D01*
X193840000Y-79238477D01*
X193840000Y-80001523D01*
X193838587Y-80030289D01*
X193834361Y-80058778D01*
X193827363Y-80086715D01*
X193817660Y-80113832D01*
X193805347Y-80139867D01*
X193790540Y-80164570D01*
X193773384Y-80187703D01*
X193754043Y-80209043D01*
X193732703Y-80228384D01*
X193709570Y-80245540D01*
X193684867Y-80260347D01*
X193658832Y-80272660D01*
X193631715Y-80282363D01*
X193603778Y-80289361D01*
X193575289Y-80293587D01*
X193546523Y-80295000D01*
X192533477Y-80295000D01*
X192504711Y-80293587D01*
X192476222Y-80289361D01*
X192448285Y-80282363D01*
X192421168Y-80272660D01*
X192395133Y-80260347D01*
X192370430Y-80245540D01*
X192347297Y-80228384D01*
X192325957Y-80209043D01*
X192306616Y-80187703D01*
X192289460Y-80164570D01*
X192274653Y-80139867D01*
X192262340Y-80113832D01*
X192252637Y-80086715D01*
X192245639Y-80058778D01*
X192241413Y-80030289D01*
X192240000Y-80001523D01*
X192240000Y-79238477D01*
X192241413Y-79209711D01*
X192245639Y-79181222D01*
X192252637Y-79153285D01*
X192262340Y-79126168D01*
X192274653Y-79100133D01*
X192289460Y-79075430D01*
X192306616Y-79052297D01*
X192325957Y-79030957D01*
X192347297Y-79011616D01*
X192370430Y-78994460D01*
X192395133Y-78979653D01*
X192421168Y-78967340D01*
X192448285Y-78957637D01*
X192476222Y-78950639D01*
X192504711Y-78946413D01*
X192533477Y-78945000D01*
X193546523Y-78945000D01*
X193575289Y-78946413D01*
X193575289Y-78946413D01*
G37*
D11*
X193040000Y-79620000D03*
D10*
G36*
X193575289Y-80996413D02*
X193603778Y-81000639D01*
X193631715Y-81007637D01*
X193658832Y-81017340D01*
X193684867Y-81029653D01*
X193709570Y-81044460D01*
X193732703Y-81061616D01*
X193754043Y-81080957D01*
X193773384Y-81102297D01*
X193790540Y-81125430D01*
X193805347Y-81150133D01*
X193817660Y-81176168D01*
X193827363Y-81203285D01*
X193834361Y-81231222D01*
X193838587Y-81259711D01*
X193840000Y-81288477D01*
X193840000Y-82051523D01*
X193838587Y-82080289D01*
X193834361Y-82108778D01*
X193827363Y-82136715D01*
X193817660Y-82163832D01*
X193805347Y-82189867D01*
X193790540Y-82214570D01*
X193773384Y-82237703D01*
X193754043Y-82259043D01*
X193732703Y-82278384D01*
X193709570Y-82295540D01*
X193684867Y-82310347D01*
X193658832Y-82322660D01*
X193631715Y-82332363D01*
X193603778Y-82339361D01*
X193575289Y-82343587D01*
X193546523Y-82345000D01*
X192533477Y-82345000D01*
X192504711Y-82343587D01*
X192476222Y-82339361D01*
X192448285Y-82332363D01*
X192421168Y-82322660D01*
X192395133Y-82310347D01*
X192370430Y-82295540D01*
X192347297Y-82278384D01*
X192325957Y-82259043D01*
X192306616Y-82237703D01*
X192289460Y-82214570D01*
X192274653Y-82189867D01*
X192262340Y-82163832D01*
X192252637Y-82136715D01*
X192245639Y-82108778D01*
X192241413Y-82080289D01*
X192240000Y-82051523D01*
X192240000Y-81288477D01*
X192241413Y-81259711D01*
X192245639Y-81231222D01*
X192252637Y-81203285D01*
X192262340Y-81176168D01*
X192274653Y-81150133D01*
X192289460Y-81125430D01*
X192306616Y-81102297D01*
X192325957Y-81080957D01*
X192347297Y-81061616D01*
X192370430Y-81044460D01*
X192395133Y-81029653D01*
X192421168Y-81017340D01*
X192448285Y-81007637D01*
X192476222Y-81000639D01*
X192504711Y-80996413D01*
X192533477Y-80995000D01*
X193546523Y-80995000D01*
X193575289Y-80996413D01*
X193575289Y-80996413D01*
G37*
D11*
X193040000Y-81670000D03*
G04 #@! TD*
D10*
G04 #@! TO.C,C1*
G36*
X118010289Y-68296413D02*
X118038778Y-68300639D01*
X118066715Y-68307637D01*
X118093832Y-68317340D01*
X118119867Y-68329653D01*
X118144570Y-68344460D01*
X118167703Y-68361616D01*
X118189043Y-68380957D01*
X118208384Y-68402297D01*
X118225540Y-68425430D01*
X118240347Y-68450133D01*
X118252660Y-68476168D01*
X118262363Y-68503285D01*
X118269361Y-68531222D01*
X118273587Y-68559711D01*
X118275000Y-68588477D01*
X118275000Y-69351523D01*
X118273587Y-69380289D01*
X118269361Y-69408778D01*
X118262363Y-69436715D01*
X118252660Y-69463832D01*
X118240347Y-69489867D01*
X118225540Y-69514570D01*
X118208384Y-69537703D01*
X118189043Y-69559043D01*
X118167703Y-69578384D01*
X118144570Y-69595540D01*
X118119867Y-69610347D01*
X118093832Y-69622660D01*
X118066715Y-69632363D01*
X118038778Y-69639361D01*
X118010289Y-69643587D01*
X117981523Y-69645000D01*
X116968477Y-69645000D01*
X116939711Y-69643587D01*
X116911222Y-69639361D01*
X116883285Y-69632363D01*
X116856168Y-69622660D01*
X116830133Y-69610347D01*
X116805430Y-69595540D01*
X116782297Y-69578384D01*
X116760957Y-69559043D01*
X116741616Y-69537703D01*
X116724460Y-69514570D01*
X116709653Y-69489867D01*
X116697340Y-69463832D01*
X116687637Y-69436715D01*
X116680639Y-69408778D01*
X116676413Y-69380289D01*
X116675000Y-69351523D01*
X116675000Y-68588477D01*
X116676413Y-68559711D01*
X116680639Y-68531222D01*
X116687637Y-68503285D01*
X116697340Y-68476168D01*
X116709653Y-68450133D01*
X116724460Y-68425430D01*
X116741616Y-68402297D01*
X116760957Y-68380957D01*
X116782297Y-68361616D01*
X116805430Y-68344460D01*
X116830133Y-68329653D01*
X116856168Y-68317340D01*
X116883285Y-68307637D01*
X116911222Y-68300639D01*
X116939711Y-68296413D01*
X116968477Y-68295000D01*
X117981523Y-68295000D01*
X118010289Y-68296413D01*
X118010289Y-68296413D01*
G37*
D11*
X117475000Y-68970000D03*
D10*
G36*
X118010289Y-66246413D02*
X118038778Y-66250639D01*
X118066715Y-66257637D01*
X118093832Y-66267340D01*
X118119867Y-66279653D01*
X118144570Y-66294460D01*
X118167703Y-66311616D01*
X118189043Y-66330957D01*
X118208384Y-66352297D01*
X118225540Y-66375430D01*
X118240347Y-66400133D01*
X118252660Y-66426168D01*
X118262363Y-66453285D01*
X118269361Y-66481222D01*
X118273587Y-66509711D01*
X118275000Y-66538477D01*
X118275000Y-67301523D01*
X118273587Y-67330289D01*
X118269361Y-67358778D01*
X118262363Y-67386715D01*
X118252660Y-67413832D01*
X118240347Y-67439867D01*
X118225540Y-67464570D01*
X118208384Y-67487703D01*
X118189043Y-67509043D01*
X118167703Y-67528384D01*
X118144570Y-67545540D01*
X118119867Y-67560347D01*
X118093832Y-67572660D01*
X118066715Y-67582363D01*
X118038778Y-67589361D01*
X118010289Y-67593587D01*
X117981523Y-67595000D01*
X116968477Y-67595000D01*
X116939711Y-67593587D01*
X116911222Y-67589361D01*
X116883285Y-67582363D01*
X116856168Y-67572660D01*
X116830133Y-67560347D01*
X116805430Y-67545540D01*
X116782297Y-67528384D01*
X116760957Y-67509043D01*
X116741616Y-67487703D01*
X116724460Y-67464570D01*
X116709653Y-67439867D01*
X116697340Y-67413832D01*
X116687637Y-67386715D01*
X116680639Y-67358778D01*
X116676413Y-67330289D01*
X116675000Y-67301523D01*
X116675000Y-66538477D01*
X116676413Y-66509711D01*
X116680639Y-66481222D01*
X116687637Y-66453285D01*
X116697340Y-66426168D01*
X116709653Y-66400133D01*
X116724460Y-66375430D01*
X116741616Y-66352297D01*
X116760957Y-66330957D01*
X116782297Y-66311616D01*
X116805430Y-66294460D01*
X116830133Y-66279653D01*
X116856168Y-66267340D01*
X116883285Y-66257637D01*
X116911222Y-66250639D01*
X116939711Y-66246413D01*
X116968477Y-66245000D01*
X117981523Y-66245000D01*
X118010289Y-66246413D01*
X118010289Y-66246413D01*
G37*
D11*
X117475000Y-66920000D03*
G04 #@! TD*
D12*
G04 #@! TO.C,Y1*
X183515000Y-87450000D03*
X183515000Y-82550000D03*
G04 #@! TD*
D10*
G04 #@! TO.C,R4*
G36*
X185955289Y-112111413D02*
X185983778Y-112115639D01*
X186011715Y-112122637D01*
X186038832Y-112132340D01*
X186064867Y-112144653D01*
X186089570Y-112159460D01*
X186112703Y-112176616D01*
X186134043Y-112195957D01*
X186153384Y-112217297D01*
X186170540Y-112240430D01*
X186185347Y-112265133D01*
X186197660Y-112291168D01*
X186207363Y-112318285D01*
X186214361Y-112346222D01*
X186218587Y-112374711D01*
X186220000Y-112403477D01*
X186220000Y-113166523D01*
X186218587Y-113195289D01*
X186214361Y-113223778D01*
X186207363Y-113251715D01*
X186197660Y-113278832D01*
X186185347Y-113304867D01*
X186170540Y-113329570D01*
X186153384Y-113352703D01*
X186134043Y-113374043D01*
X186112703Y-113393384D01*
X186089570Y-113410540D01*
X186064867Y-113425347D01*
X186038832Y-113437660D01*
X186011715Y-113447363D01*
X185983778Y-113454361D01*
X185955289Y-113458587D01*
X185926523Y-113460000D01*
X184913477Y-113460000D01*
X184884711Y-113458587D01*
X184856222Y-113454361D01*
X184828285Y-113447363D01*
X184801168Y-113437660D01*
X184775133Y-113425347D01*
X184750430Y-113410540D01*
X184727297Y-113393384D01*
X184705957Y-113374043D01*
X184686616Y-113352703D01*
X184669460Y-113329570D01*
X184654653Y-113304867D01*
X184642340Y-113278832D01*
X184632637Y-113251715D01*
X184625639Y-113223778D01*
X184621413Y-113195289D01*
X184620000Y-113166523D01*
X184620000Y-112403477D01*
X184621413Y-112374711D01*
X184625639Y-112346222D01*
X184632637Y-112318285D01*
X184642340Y-112291168D01*
X184654653Y-112265133D01*
X184669460Y-112240430D01*
X184686616Y-112217297D01*
X184705957Y-112195957D01*
X184727297Y-112176616D01*
X184750430Y-112159460D01*
X184775133Y-112144653D01*
X184801168Y-112132340D01*
X184828285Y-112122637D01*
X184856222Y-112115639D01*
X184884711Y-112111413D01*
X184913477Y-112110000D01*
X185926523Y-112110000D01*
X185955289Y-112111413D01*
X185955289Y-112111413D01*
G37*
D11*
X185420000Y-112785000D03*
D10*
G36*
X185955289Y-110061413D02*
X185983778Y-110065639D01*
X186011715Y-110072637D01*
X186038832Y-110082340D01*
X186064867Y-110094653D01*
X186089570Y-110109460D01*
X186112703Y-110126616D01*
X186134043Y-110145957D01*
X186153384Y-110167297D01*
X186170540Y-110190430D01*
X186185347Y-110215133D01*
X186197660Y-110241168D01*
X186207363Y-110268285D01*
X186214361Y-110296222D01*
X186218587Y-110324711D01*
X186220000Y-110353477D01*
X186220000Y-111116523D01*
X186218587Y-111145289D01*
X186214361Y-111173778D01*
X186207363Y-111201715D01*
X186197660Y-111228832D01*
X186185347Y-111254867D01*
X186170540Y-111279570D01*
X186153384Y-111302703D01*
X186134043Y-111324043D01*
X186112703Y-111343384D01*
X186089570Y-111360540D01*
X186064867Y-111375347D01*
X186038832Y-111387660D01*
X186011715Y-111397363D01*
X185983778Y-111404361D01*
X185955289Y-111408587D01*
X185926523Y-111410000D01*
X184913477Y-111410000D01*
X184884711Y-111408587D01*
X184856222Y-111404361D01*
X184828285Y-111397363D01*
X184801168Y-111387660D01*
X184775133Y-111375347D01*
X184750430Y-111360540D01*
X184727297Y-111343384D01*
X184705957Y-111324043D01*
X184686616Y-111302703D01*
X184669460Y-111279570D01*
X184654653Y-111254867D01*
X184642340Y-111228832D01*
X184632637Y-111201715D01*
X184625639Y-111173778D01*
X184621413Y-111145289D01*
X184620000Y-111116523D01*
X184620000Y-110353477D01*
X184621413Y-110324711D01*
X184625639Y-110296222D01*
X184632637Y-110268285D01*
X184642340Y-110241168D01*
X184654653Y-110215133D01*
X184669460Y-110190430D01*
X184686616Y-110167297D01*
X184705957Y-110145957D01*
X184727297Y-110126616D01*
X184750430Y-110109460D01*
X184775133Y-110094653D01*
X184801168Y-110082340D01*
X184828285Y-110072637D01*
X184856222Y-110065639D01*
X184884711Y-110061413D01*
X184913477Y-110060000D01*
X185926523Y-110060000D01*
X185955289Y-110061413D01*
X185955289Y-110061413D01*
G37*
D11*
X185420000Y-110735000D03*
G04 #@! TD*
D14*
G04 #@! TO.C,U3*
X196850000Y-64135000D03*
X189230000Y-97155000D03*
X196850000Y-66675000D03*
X189230000Y-94615000D03*
X196850000Y-69215000D03*
X189230000Y-92075000D03*
X196850000Y-71755000D03*
X189230000Y-89535000D03*
X196850000Y-74295000D03*
X189230000Y-86995000D03*
X196850000Y-76835000D03*
X189230000Y-84455000D03*
X196850000Y-79375000D03*
X189230000Y-81915000D03*
X196850000Y-81915000D03*
X189230000Y-79375000D03*
X196850000Y-84455000D03*
X189230000Y-76835000D03*
X196850000Y-86995000D03*
X189230000Y-74295000D03*
X196850000Y-89535000D03*
X189230000Y-71755000D03*
X196850000Y-92075000D03*
X189230000Y-69215000D03*
X196850000Y-94615000D03*
X189230000Y-66675000D03*
X196850000Y-97155000D03*
D13*
X189230000Y-64135000D03*
G04 #@! TD*
M02*
