G04 #@! TF.GenerationSoftware,KiCad,Pcbnew,(5.0.0)*
G04 #@! TF.CreationDate,2019-08-14T15:07:07-04:00*
G04 #@! TF.ProjectId,Multi Programmer,4D756C74692050726F6772616D6D6572,rev?*
G04 #@! TF.SameCoordinates,Original*
G04 #@! TF.FileFunction,Legend,Top*
G04 #@! TF.FilePolarity,Positive*
%FSLAX46Y46*%
G04 Gerber Fmt 4.6, Leading zero omitted, Abs format (unit mm)*
G04 Created by KiCad (PCBNEW (5.0.0)) date 08/14/19 15:07:07*
%MOMM*%
%LPD*%
G01*
G04 APERTURE LIST*
%ADD10C,0.100000*%
%ADD11C,0.200000*%
%ADD12C,0.300000*%
%ADD13C,0.150000*%
%ADD14C,0.120000*%
G04 APERTURE END LIST*
D10*
X164085476Y-85256666D02*
X164561666Y-85256666D01*
X163990238Y-85542380D02*
X164323571Y-84542380D01*
X164656904Y-85542380D01*
X164847380Y-84542380D02*
X165418809Y-84542380D01*
X165133095Y-85542380D02*
X165133095Y-84542380D01*
X165609285Y-84542380D02*
X166180714Y-84542380D01*
X165895000Y-85542380D02*
X165895000Y-84542380D01*
X166514047Y-85542380D02*
X166514047Y-84542380D01*
X166990238Y-85542380D02*
X166990238Y-84542380D01*
X167561666Y-85542380D01*
X167561666Y-84542380D01*
X168228333Y-85066190D02*
X168228333Y-85542380D01*
X167895000Y-84542380D02*
X168228333Y-85066190D01*
X168561666Y-84542380D01*
X169323571Y-84875714D02*
X169323571Y-85542380D01*
X169085476Y-84494761D02*
X168847380Y-85209047D01*
X169466428Y-85209047D01*
X170323571Y-84542380D02*
X169847380Y-84542380D01*
X169799761Y-85018571D01*
X169847380Y-84970952D01*
X169942619Y-84923333D01*
X170180714Y-84923333D01*
X170275952Y-84970952D01*
X170323571Y-85018571D01*
X170371190Y-85113809D01*
X170371190Y-85351904D01*
X170323571Y-85447142D01*
X170275952Y-85494761D01*
X170180714Y-85542380D01*
X169942619Y-85542380D01*
X169847380Y-85494761D01*
X169799761Y-85447142D01*
X171514047Y-84494761D02*
X170656904Y-85780476D01*
X171990238Y-84970952D02*
X171895000Y-84923333D01*
X171847380Y-84875714D01*
X171799761Y-84780476D01*
X171799761Y-84732857D01*
X171847380Y-84637619D01*
X171895000Y-84590000D01*
X171990238Y-84542380D01*
X172180714Y-84542380D01*
X172275952Y-84590000D01*
X172323571Y-84637619D01*
X172371190Y-84732857D01*
X172371190Y-84780476D01*
X172323571Y-84875714D01*
X172275952Y-84923333D01*
X172180714Y-84970952D01*
X171990238Y-84970952D01*
X171895000Y-85018571D01*
X171847380Y-85066190D01*
X171799761Y-85161428D01*
X171799761Y-85351904D01*
X171847380Y-85447142D01*
X171895000Y-85494761D01*
X171990238Y-85542380D01*
X172180714Y-85542380D01*
X172275952Y-85494761D01*
X172323571Y-85447142D01*
X172371190Y-85351904D01*
X172371190Y-85161428D01*
X172323571Y-85066190D01*
X172275952Y-85018571D01*
X172180714Y-84970952D01*
X173275952Y-84542380D02*
X172799761Y-84542380D01*
X172752142Y-85018571D01*
X172799761Y-84970952D01*
X172895000Y-84923333D01*
X173133095Y-84923333D01*
X173228333Y-84970952D01*
X173275952Y-85018571D01*
X173323571Y-85113809D01*
X173323571Y-85351904D01*
X173275952Y-85447142D01*
X173228333Y-85494761D01*
X173133095Y-85542380D01*
X172895000Y-85542380D01*
X172799761Y-85494761D01*
X172752142Y-85447142D01*
X164085476Y-57316666D02*
X164561666Y-57316666D01*
X163990238Y-57602380D02*
X164323571Y-56602380D01*
X164656904Y-57602380D01*
X164847380Y-56602380D02*
X165418809Y-56602380D01*
X165133095Y-57602380D02*
X165133095Y-56602380D01*
X165609285Y-56602380D02*
X166180714Y-56602380D01*
X165895000Y-57602380D02*
X165895000Y-56602380D01*
X166514047Y-57602380D02*
X166514047Y-56602380D01*
X166990238Y-57602380D02*
X166990238Y-56602380D01*
X167561666Y-57602380D01*
X167561666Y-56602380D01*
X168228333Y-57126190D02*
X168228333Y-57602380D01*
X167895000Y-56602380D02*
X168228333Y-57126190D01*
X168561666Y-56602380D01*
X169323571Y-56935714D02*
X169323571Y-57602380D01*
X169085476Y-56554761D02*
X168847380Y-57269047D01*
X169466428Y-57269047D01*
X170275952Y-56935714D02*
X170275952Y-57602380D01*
X170037857Y-56554761D02*
X169799761Y-57269047D01*
X170418809Y-57269047D01*
X171514047Y-56554761D02*
X170656904Y-57840476D01*
X171990238Y-57030952D02*
X171895000Y-56983333D01*
X171847380Y-56935714D01*
X171799761Y-56840476D01*
X171799761Y-56792857D01*
X171847380Y-56697619D01*
X171895000Y-56650000D01*
X171990238Y-56602380D01*
X172180714Y-56602380D01*
X172275952Y-56650000D01*
X172323571Y-56697619D01*
X172371190Y-56792857D01*
X172371190Y-56840476D01*
X172323571Y-56935714D01*
X172275952Y-56983333D01*
X172180714Y-57030952D01*
X171990238Y-57030952D01*
X171895000Y-57078571D01*
X171847380Y-57126190D01*
X171799761Y-57221428D01*
X171799761Y-57411904D01*
X171847380Y-57507142D01*
X171895000Y-57554761D01*
X171990238Y-57602380D01*
X172180714Y-57602380D01*
X172275952Y-57554761D01*
X172323571Y-57507142D01*
X172371190Y-57411904D01*
X172371190Y-57221428D01*
X172323571Y-57126190D01*
X172275952Y-57078571D01*
X172180714Y-57030952D01*
X173228333Y-56935714D02*
X173228333Y-57602380D01*
X172990238Y-56554761D02*
X172752142Y-57269047D01*
X173371190Y-57269047D01*
D11*
X179070000Y-83820000D02*
X179070000Y-71120000D01*
X163830000Y-83820000D02*
X179070000Y-83820000D01*
X163830000Y-71120000D02*
X163830000Y-83820000D01*
X185420000Y-71120000D02*
X163830000Y-71120000D01*
X185420000Y-58420000D02*
X185420000Y-71120000D01*
X163830000Y-58420000D02*
X185420000Y-58420000D01*
X163830000Y-71120000D02*
X163830000Y-58420000D01*
D12*
X104140000Y-105410000D02*
X104140000Y-129540000D01*
X139700000Y-129540000D02*
X104140000Y-129540000D01*
D11*
X129540000Y-140970000D02*
X129540000Y-143510000D01*
X124460000Y-143510000D02*
X124460000Y-140970000D01*
X119380000Y-143510000D02*
X119380000Y-140970000D01*
X114300000Y-143510000D02*
X114300000Y-140970000D01*
D10*
X131896666Y-142737619D02*
X131530000Y-142213809D01*
X131268095Y-142737619D02*
X131268095Y-141637619D01*
X131687142Y-141637619D01*
X131791904Y-141690000D01*
X131844285Y-141742380D01*
X131896666Y-141847142D01*
X131896666Y-142004285D01*
X131844285Y-142109047D01*
X131791904Y-142161428D01*
X131687142Y-142213809D01*
X131268095Y-142213809D01*
X132263333Y-141637619D02*
X132996666Y-142737619D01*
X132996666Y-141637619D02*
X132263333Y-142737619D01*
X126161904Y-141637619D02*
X126790476Y-141637619D01*
X126476190Y-142737619D02*
X126476190Y-141637619D01*
X127052380Y-141637619D02*
X127785714Y-142737619D01*
X127785714Y-141637619D02*
X127052380Y-142737619D01*
X120427142Y-141318000D02*
X121527142Y-141318000D01*
X121317619Y-142737619D02*
X120950952Y-142213809D01*
X120689047Y-142737619D02*
X120689047Y-141637619D01*
X121108095Y-141637619D01*
X121212857Y-141690000D01*
X121265238Y-141742380D01*
X121317619Y-141847142D01*
X121317619Y-142004285D01*
X121265238Y-142109047D01*
X121212857Y-142161428D01*
X121108095Y-142213809D01*
X120689047Y-142213809D01*
X121527142Y-141318000D02*
X122574761Y-141318000D01*
X121736666Y-142685238D02*
X121893809Y-142737619D01*
X122155714Y-142737619D01*
X122260476Y-142685238D01*
X122312857Y-142632857D01*
X122365238Y-142528095D01*
X122365238Y-142423333D01*
X122312857Y-142318571D01*
X122260476Y-142266190D01*
X122155714Y-142213809D01*
X121946190Y-142161428D01*
X121841428Y-142109047D01*
X121789047Y-142056666D01*
X121736666Y-141951904D01*
X121736666Y-141847142D01*
X121789047Y-141742380D01*
X121841428Y-141690000D01*
X121946190Y-141637619D01*
X122208095Y-141637619D01*
X122365238Y-141690000D01*
X122574761Y-141318000D02*
X123412857Y-141318000D01*
X122679523Y-141637619D02*
X123308095Y-141637619D01*
X122993809Y-142737619D02*
X122993809Y-141637619D01*
X115373333Y-141637619D02*
X115740000Y-142737619D01*
X116106666Y-141637619D01*
X117101904Y-142632857D02*
X117049523Y-142685238D01*
X116892380Y-142737619D01*
X116787619Y-142737619D01*
X116630476Y-142685238D01*
X116525714Y-142580476D01*
X116473333Y-142475714D01*
X116420952Y-142266190D01*
X116420952Y-142109047D01*
X116473333Y-141899523D01*
X116525714Y-141794761D01*
X116630476Y-141690000D01*
X116787619Y-141637619D01*
X116892380Y-141637619D01*
X117049523Y-141690000D01*
X117101904Y-141742380D01*
X118201904Y-142632857D02*
X118149523Y-142685238D01*
X117992380Y-142737619D01*
X117887619Y-142737619D01*
X117730476Y-142685238D01*
X117625714Y-142580476D01*
X117573333Y-142475714D01*
X117520952Y-142266190D01*
X117520952Y-142109047D01*
X117573333Y-141899523D01*
X117625714Y-141794761D01*
X117730476Y-141690000D01*
X117887619Y-141637619D01*
X117992380Y-141637619D01*
X118149523Y-141690000D01*
X118201904Y-141742380D01*
X110921904Y-141690000D02*
X110817142Y-141637619D01*
X110660000Y-141637619D01*
X110502857Y-141690000D01*
X110398095Y-141794761D01*
X110345714Y-141899523D01*
X110293333Y-142109047D01*
X110293333Y-142266190D01*
X110345714Y-142475714D01*
X110398095Y-142580476D01*
X110502857Y-142685238D01*
X110660000Y-142737619D01*
X110764761Y-142737619D01*
X110921904Y-142685238D01*
X110974285Y-142632857D01*
X110974285Y-142266190D01*
X110764761Y-142266190D01*
X111445714Y-142737619D02*
X111445714Y-141637619D01*
X112074285Y-142737619D01*
X112074285Y-141637619D01*
X112598095Y-142737619D02*
X112598095Y-141637619D01*
X112860000Y-141637619D01*
X113017142Y-141690000D01*
X113121904Y-141794761D01*
X113174285Y-141899523D01*
X113226666Y-142109047D01*
X113226666Y-142266190D01*
X113174285Y-142475714D01*
X113121904Y-142580476D01*
X113017142Y-142685238D01*
X112860000Y-142737619D01*
X112598095Y-142737619D01*
D11*
X137767142Y-137729284D02*
X137838571Y-137514999D01*
X137838571Y-137157856D01*
X137767142Y-137014999D01*
X137695714Y-136943570D01*
X137552857Y-136872141D01*
X137410000Y-136872141D01*
X137267142Y-136943570D01*
X137195714Y-137014999D01*
X137124285Y-137157856D01*
X137052857Y-137443570D01*
X136981428Y-137586427D01*
X136910000Y-137657856D01*
X136767142Y-137729284D01*
X136624285Y-137729284D01*
X136481428Y-137657856D01*
X136410000Y-137586427D01*
X136338571Y-137443570D01*
X136338571Y-137086427D01*
X136410000Y-136872141D01*
X137052857Y-136229284D02*
X137052857Y-135729284D01*
X137838571Y-135514999D02*
X137838571Y-136229284D01*
X136338571Y-136229284D01*
X136338571Y-135514999D01*
X137838571Y-134014999D02*
X137124285Y-134514999D01*
X137838571Y-134872141D02*
X136338571Y-134872141D01*
X136338571Y-134300713D01*
X136410000Y-134157856D01*
X136481428Y-134086427D01*
X136624285Y-134014999D01*
X136838571Y-134014999D01*
X136981428Y-134086427D01*
X137052857Y-134157856D01*
X137124285Y-134300713D01*
X137124285Y-134872141D01*
X137838571Y-133372141D02*
X136338571Y-133372141D01*
X137410000Y-132729284D02*
X137410000Y-132014999D01*
X137838571Y-132872141D02*
X136338571Y-132372141D01*
X137838571Y-131872141D01*
X137838571Y-130657856D02*
X137838571Y-131372141D01*
X136338571Y-131372141D01*
X109220000Y-140970000D02*
X134620000Y-140970000D01*
D12*
X109220000Y-143510000D02*
X139700000Y-143510000D01*
X109220000Y-129540000D02*
X109220000Y-143510000D01*
D11*
X137767142Y-116470714D02*
X137838571Y-116256428D01*
X137838571Y-115899285D01*
X137767142Y-115756428D01*
X137695714Y-115685000D01*
X137552857Y-115613571D01*
X137410000Y-115613571D01*
X137267142Y-115685000D01*
X137195714Y-115756428D01*
X137124285Y-115899285D01*
X137052857Y-116185000D01*
X136981428Y-116327857D01*
X136910000Y-116399285D01*
X136767142Y-116470714D01*
X136624285Y-116470714D01*
X136481428Y-116399285D01*
X136410000Y-116327857D01*
X136338571Y-116185000D01*
X136338571Y-115827857D01*
X136410000Y-115613571D01*
X137838571Y-114970714D02*
X136338571Y-114970714D01*
X136338571Y-114399285D01*
X136410000Y-114256428D01*
X136481428Y-114185000D01*
X136624285Y-114113571D01*
X136838571Y-114113571D01*
X136981428Y-114185000D01*
X137052857Y-114256428D01*
X137124285Y-114399285D01*
X137124285Y-114970714D01*
X137838571Y-113470714D02*
X136338571Y-113470714D01*
D12*
X134620000Y-105410000D02*
X134620000Y-143510000D01*
X139700000Y-143510000D02*
X139700000Y-105410000D01*
D11*
X162560000Y-58420000D02*
X142240000Y-58420000D01*
X162560000Y-109220000D02*
X162560000Y-58420000D01*
X142240000Y-109220000D02*
X162560000Y-109220000D01*
X142240000Y-58420000D02*
X142240000Y-109220000D01*
X139700000Y-101600000D02*
X104140000Y-101600000D01*
X139700000Y-58420000D02*
X139700000Y-101600000D01*
X104140000Y-58420000D02*
X104140000Y-101600000D01*
X139700000Y-58420000D02*
X104140000Y-58420000D01*
D10*
X119635476Y-57316666D02*
X120111666Y-57316666D01*
X119540238Y-57602380D02*
X119873571Y-56602380D01*
X120206904Y-57602380D01*
X120397380Y-56602380D02*
X120968809Y-56602380D01*
X120683095Y-57602380D02*
X120683095Y-56602380D01*
X121302142Y-57602380D02*
X121302142Y-56602380D01*
X121635476Y-57316666D01*
X121968809Y-56602380D01*
X121968809Y-57602380D01*
X122445000Y-57078571D02*
X122778333Y-57078571D01*
X122921190Y-57602380D02*
X122445000Y-57602380D01*
X122445000Y-56602380D01*
X122921190Y-56602380D01*
X123873571Y-56650000D02*
X123778333Y-56602380D01*
X123635476Y-56602380D01*
X123492619Y-56650000D01*
X123397380Y-56745238D01*
X123349761Y-56840476D01*
X123302142Y-57030952D01*
X123302142Y-57173809D01*
X123349761Y-57364285D01*
X123397380Y-57459523D01*
X123492619Y-57554761D01*
X123635476Y-57602380D01*
X123730714Y-57602380D01*
X123873571Y-57554761D01*
X123921190Y-57507142D01*
X123921190Y-57173809D01*
X123730714Y-57173809D01*
X124302142Y-57316666D02*
X124778333Y-57316666D01*
X124206904Y-57602380D02*
X124540238Y-56602380D01*
X124873571Y-57602380D01*
X125111666Y-56602380D02*
X125730714Y-56602380D01*
X125397380Y-56983333D01*
X125540238Y-56983333D01*
X125635476Y-57030952D01*
X125683095Y-57078571D01*
X125730714Y-57173809D01*
X125730714Y-57411904D01*
X125683095Y-57507142D01*
X125635476Y-57554761D01*
X125540238Y-57602380D01*
X125254523Y-57602380D01*
X125159285Y-57554761D01*
X125111666Y-57507142D01*
X126111666Y-56697619D02*
X126159285Y-56650000D01*
X126254523Y-56602380D01*
X126492619Y-56602380D01*
X126587857Y-56650000D01*
X126635476Y-56697619D01*
X126683095Y-56792857D01*
X126683095Y-56888095D01*
X126635476Y-57030952D01*
X126064047Y-57602380D01*
X126683095Y-57602380D01*
X127254523Y-57030952D02*
X127159285Y-56983333D01*
X127111666Y-56935714D01*
X127064047Y-56840476D01*
X127064047Y-56792857D01*
X127111666Y-56697619D01*
X127159285Y-56650000D01*
X127254523Y-56602380D01*
X127445000Y-56602380D01*
X127540238Y-56650000D01*
X127587857Y-56697619D01*
X127635476Y-56792857D01*
X127635476Y-56840476D01*
X127587857Y-56935714D01*
X127540238Y-56983333D01*
X127445000Y-57030952D01*
X127254523Y-57030952D01*
X127159285Y-57078571D01*
X127111666Y-57126190D01*
X127064047Y-57221428D01*
X127064047Y-57411904D01*
X127111666Y-57507142D01*
X127159285Y-57554761D01*
X127254523Y-57602380D01*
X127445000Y-57602380D01*
X127540238Y-57554761D01*
X127587857Y-57507142D01*
X127635476Y-57411904D01*
X127635476Y-57221428D01*
X127587857Y-57126190D01*
X127540238Y-57078571D01*
X127445000Y-57030952D01*
X128064047Y-57602380D02*
X128064047Y-56602380D01*
X128445000Y-56602380D01*
X128540238Y-56650000D01*
X128587857Y-56697619D01*
X128635476Y-56792857D01*
X128635476Y-56935714D01*
X128587857Y-57030952D01*
X128540238Y-57078571D01*
X128445000Y-57126190D01*
X128064047Y-57126190D01*
X129683095Y-56602380D02*
X130254523Y-56602380D01*
X129968809Y-57602380D02*
X129968809Y-56602380D01*
X131254523Y-57697619D02*
X131159285Y-57650000D01*
X131064047Y-57554761D01*
X130921190Y-57411904D01*
X130825952Y-57364285D01*
X130730714Y-57364285D01*
X130778333Y-57602380D02*
X130683095Y-57554761D01*
X130587857Y-57459523D01*
X130540238Y-57269047D01*
X130540238Y-56935714D01*
X130587857Y-56745238D01*
X130683095Y-56650000D01*
X130778333Y-56602380D01*
X130968809Y-56602380D01*
X131064047Y-56650000D01*
X131159285Y-56745238D01*
X131206904Y-56935714D01*
X131206904Y-57269047D01*
X131159285Y-57459523D01*
X131064047Y-57554761D01*
X130968809Y-57602380D01*
X130778333Y-57602380D01*
X131968809Y-57078571D02*
X131635476Y-57078571D01*
X131635476Y-57602380D02*
X131635476Y-56602380D01*
X132111666Y-56602380D01*
X132492619Y-57602380D02*
X132492619Y-56602380D01*
X132873571Y-56602380D01*
X132968809Y-56650000D01*
X133016428Y-56697619D01*
X133064047Y-56792857D01*
X133064047Y-56935714D01*
X133016428Y-57030952D01*
X132968809Y-57078571D01*
X132873571Y-57126190D01*
X132492619Y-57126190D01*
X134159285Y-56602380D02*
X134778333Y-56602380D01*
X134445000Y-56983333D01*
X134587857Y-56983333D01*
X134683095Y-57030952D01*
X134730714Y-57078571D01*
X134778333Y-57173809D01*
X134778333Y-57411904D01*
X134730714Y-57507142D01*
X134683095Y-57554761D01*
X134587857Y-57602380D01*
X134302142Y-57602380D01*
X134206904Y-57554761D01*
X134159285Y-57507142D01*
X135159285Y-56697619D02*
X135206904Y-56650000D01*
X135302142Y-56602380D01*
X135540238Y-56602380D01*
X135635476Y-56650000D01*
X135683095Y-56697619D01*
X135730714Y-56792857D01*
X135730714Y-56888095D01*
X135683095Y-57030952D01*
X135111666Y-57602380D01*
X135730714Y-57602380D01*
X136921190Y-57602380D02*
X136921190Y-56602380D01*
X137302142Y-56602380D01*
X137397380Y-56650000D01*
X137445000Y-56697619D01*
X137492619Y-56792857D01*
X137492619Y-56935714D01*
X137445000Y-57030952D01*
X137397380Y-57078571D01*
X137302142Y-57126190D01*
X136921190Y-57126190D01*
X137921190Y-57602380D02*
X137921190Y-56602380D01*
X138397380Y-57602380D02*
X138397380Y-56602380D01*
X138968809Y-57602380D01*
X138968809Y-56602380D01*
X139397380Y-57554761D02*
X139540238Y-57602380D01*
X139778333Y-57602380D01*
X139873571Y-57554761D01*
X139921190Y-57507142D01*
X139968809Y-57411904D01*
X139968809Y-57316666D01*
X139921190Y-57221428D01*
X139873571Y-57173809D01*
X139778333Y-57126190D01*
X139587857Y-57078571D01*
X139492619Y-57030952D01*
X139445000Y-56983333D01*
X139397380Y-56888095D01*
X139397380Y-56792857D01*
X139445000Y-56697619D01*
X139492619Y-56650000D01*
X139587857Y-56602380D01*
X139825952Y-56602380D01*
X139968809Y-56650000D01*
X142495476Y-57316666D02*
X142971666Y-57316666D01*
X142400238Y-57602380D02*
X142733571Y-56602380D01*
X143066904Y-57602380D01*
X143257380Y-56602380D02*
X143828809Y-56602380D01*
X143543095Y-57602380D02*
X143543095Y-56602380D01*
X144162142Y-57602380D02*
X144162142Y-56602380D01*
X144495476Y-57316666D01*
X144828809Y-56602380D01*
X144828809Y-57602380D01*
X145305000Y-57078571D02*
X145638333Y-57078571D01*
X145781190Y-57602380D02*
X145305000Y-57602380D01*
X145305000Y-56602380D01*
X145781190Y-56602380D01*
X146733571Y-56650000D02*
X146638333Y-56602380D01*
X146495476Y-56602380D01*
X146352619Y-56650000D01*
X146257380Y-56745238D01*
X146209761Y-56840476D01*
X146162142Y-57030952D01*
X146162142Y-57173809D01*
X146209761Y-57364285D01*
X146257380Y-57459523D01*
X146352619Y-57554761D01*
X146495476Y-57602380D01*
X146590714Y-57602380D01*
X146733571Y-57554761D01*
X146781190Y-57507142D01*
X146781190Y-57173809D01*
X146590714Y-57173809D01*
X147162142Y-57316666D02*
X147638333Y-57316666D01*
X147066904Y-57602380D02*
X147400238Y-56602380D01*
X147733571Y-57602380D01*
X147971666Y-56602380D02*
X148590714Y-56602380D01*
X148257380Y-56983333D01*
X148400238Y-56983333D01*
X148495476Y-57030952D01*
X148543095Y-57078571D01*
X148590714Y-57173809D01*
X148590714Y-57411904D01*
X148543095Y-57507142D01*
X148495476Y-57554761D01*
X148400238Y-57602380D01*
X148114523Y-57602380D01*
X148019285Y-57554761D01*
X147971666Y-57507142D01*
X148971666Y-56697619D02*
X149019285Y-56650000D01*
X149114523Y-56602380D01*
X149352619Y-56602380D01*
X149447857Y-56650000D01*
X149495476Y-56697619D01*
X149543095Y-56792857D01*
X149543095Y-56888095D01*
X149495476Y-57030952D01*
X148924047Y-57602380D01*
X149543095Y-57602380D01*
X150114523Y-57030952D02*
X150019285Y-56983333D01*
X149971666Y-56935714D01*
X149924047Y-56840476D01*
X149924047Y-56792857D01*
X149971666Y-56697619D01*
X150019285Y-56650000D01*
X150114523Y-56602380D01*
X150305000Y-56602380D01*
X150400238Y-56650000D01*
X150447857Y-56697619D01*
X150495476Y-56792857D01*
X150495476Y-56840476D01*
X150447857Y-56935714D01*
X150400238Y-56983333D01*
X150305000Y-57030952D01*
X150114523Y-57030952D01*
X150019285Y-57078571D01*
X149971666Y-57126190D01*
X149924047Y-57221428D01*
X149924047Y-57411904D01*
X149971666Y-57507142D01*
X150019285Y-57554761D01*
X150114523Y-57602380D01*
X150305000Y-57602380D01*
X150400238Y-57554761D01*
X150447857Y-57507142D01*
X150495476Y-57411904D01*
X150495476Y-57221428D01*
X150447857Y-57126190D01*
X150400238Y-57078571D01*
X150305000Y-57030952D01*
X150924047Y-57602380D02*
X150924047Y-56602380D01*
X151305000Y-56602380D01*
X151400238Y-56650000D01*
X151447857Y-56697619D01*
X151495476Y-56792857D01*
X151495476Y-56935714D01*
X151447857Y-57030952D01*
X151400238Y-57078571D01*
X151305000Y-57126190D01*
X150924047Y-57126190D01*
X152685952Y-57602380D02*
X152685952Y-56602380D01*
X152924047Y-56602380D01*
X153066904Y-56650000D01*
X153162142Y-56745238D01*
X153209761Y-56840476D01*
X153257380Y-57030952D01*
X153257380Y-57173809D01*
X153209761Y-57364285D01*
X153162142Y-57459523D01*
X153066904Y-57554761D01*
X152924047Y-57602380D01*
X152685952Y-57602380D01*
X153685952Y-57602380D02*
X153685952Y-56602380D01*
X154162142Y-57602380D02*
X154162142Y-56602380D01*
X154543095Y-56602380D01*
X154638333Y-56650000D01*
X154685952Y-56697619D01*
X154733571Y-56792857D01*
X154733571Y-56935714D01*
X154685952Y-57030952D01*
X154638333Y-57078571D01*
X154543095Y-57126190D01*
X154162142Y-57126190D01*
X155876428Y-56697619D02*
X155924047Y-56650000D01*
X156019285Y-56602380D01*
X156257380Y-56602380D01*
X156352619Y-56650000D01*
X156400238Y-56697619D01*
X156447857Y-56792857D01*
X156447857Y-56888095D01*
X156400238Y-57030952D01*
X155828809Y-57602380D01*
X156447857Y-57602380D01*
X157019285Y-57030952D02*
X156924047Y-56983333D01*
X156876428Y-56935714D01*
X156828809Y-56840476D01*
X156828809Y-56792857D01*
X156876428Y-56697619D01*
X156924047Y-56650000D01*
X157019285Y-56602380D01*
X157209761Y-56602380D01*
X157305000Y-56650000D01*
X157352619Y-56697619D01*
X157400238Y-56792857D01*
X157400238Y-56840476D01*
X157352619Y-56935714D01*
X157305000Y-56983333D01*
X157209761Y-57030952D01*
X157019285Y-57030952D01*
X156924047Y-57078571D01*
X156876428Y-57126190D01*
X156828809Y-57221428D01*
X156828809Y-57411904D01*
X156876428Y-57507142D01*
X156924047Y-57554761D01*
X157019285Y-57602380D01*
X157209761Y-57602380D01*
X157305000Y-57554761D01*
X157352619Y-57507142D01*
X157400238Y-57411904D01*
X157400238Y-57221428D01*
X157352619Y-57126190D01*
X157305000Y-57078571D01*
X157209761Y-57030952D01*
X158590714Y-57602380D02*
X158590714Y-56602380D01*
X158971666Y-56602380D01*
X159066904Y-56650000D01*
X159114523Y-56697619D01*
X159162142Y-56792857D01*
X159162142Y-56935714D01*
X159114523Y-57030952D01*
X159066904Y-57078571D01*
X158971666Y-57126190D01*
X158590714Y-57126190D01*
X159590714Y-57602380D02*
X159590714Y-56602380D01*
X160066904Y-57602380D02*
X160066904Y-56602380D01*
X160638333Y-57602380D01*
X160638333Y-56602380D01*
X161066904Y-57554761D02*
X161209761Y-57602380D01*
X161447857Y-57602380D01*
X161543095Y-57554761D01*
X161590714Y-57507142D01*
X161638333Y-57411904D01*
X161638333Y-57316666D01*
X161590714Y-57221428D01*
X161543095Y-57173809D01*
X161447857Y-57126190D01*
X161257380Y-57078571D01*
X161162142Y-57030952D01*
X161114523Y-56983333D01*
X161066904Y-56888095D01*
X161066904Y-56792857D01*
X161114523Y-56697619D01*
X161162142Y-56650000D01*
X161257380Y-56602380D01*
X161495476Y-56602380D01*
X161638333Y-56650000D01*
D11*
X180340000Y-143510000D02*
X180340000Y-129540000D01*
X166370000Y-143510000D02*
X180340000Y-143510000D01*
X166370000Y-129540000D02*
X180340000Y-129540000D01*
D13*
X119226309Y-53837619D02*
X119226309Y-52737619D01*
X119592976Y-53523333D01*
X119959643Y-52737619D01*
X119959643Y-53837619D01*
X120954881Y-53104285D02*
X120954881Y-53837619D01*
X120483452Y-53104285D02*
X120483452Y-53680476D01*
X120535833Y-53785238D01*
X120640595Y-53837619D01*
X120797738Y-53837619D01*
X120902500Y-53785238D01*
X120954881Y-53732857D01*
X121635833Y-53837619D02*
X121531071Y-53785238D01*
X121478690Y-53680476D01*
X121478690Y-52737619D01*
X121897738Y-53104285D02*
X122316785Y-53104285D01*
X122054881Y-52737619D02*
X122054881Y-53680476D01*
X122107262Y-53785238D01*
X122212024Y-53837619D01*
X122316785Y-53837619D01*
X122683452Y-53837619D02*
X122683452Y-53104285D01*
X122683452Y-52737619D02*
X122631071Y-52790000D01*
X122683452Y-52842380D01*
X122735833Y-52790000D01*
X122683452Y-52737619D01*
X122683452Y-52842380D01*
X124045357Y-53837619D02*
X124045357Y-52737619D01*
X124464405Y-52737619D01*
X124569166Y-52790000D01*
X124621547Y-52842380D01*
X124673928Y-52947142D01*
X124673928Y-53104285D01*
X124621547Y-53209047D01*
X124569166Y-53261428D01*
X124464405Y-53313809D01*
X124045357Y-53313809D01*
X125145357Y-53837619D02*
X125145357Y-53104285D01*
X125145357Y-53313809D02*
X125197738Y-53209047D01*
X125250119Y-53156666D01*
X125354881Y-53104285D01*
X125459643Y-53104285D01*
X125983452Y-53837619D02*
X125878690Y-53785238D01*
X125826309Y-53732857D01*
X125773928Y-53628095D01*
X125773928Y-53313809D01*
X125826309Y-53209047D01*
X125878690Y-53156666D01*
X125983452Y-53104285D01*
X126140595Y-53104285D01*
X126245357Y-53156666D01*
X126297738Y-53209047D01*
X126350119Y-53313809D01*
X126350119Y-53628095D01*
X126297738Y-53732857D01*
X126245357Y-53785238D01*
X126140595Y-53837619D01*
X125983452Y-53837619D01*
X127292976Y-53104285D02*
X127292976Y-53994761D01*
X127240595Y-54099523D01*
X127188214Y-54151904D01*
X127083452Y-54204285D01*
X126926309Y-54204285D01*
X126821547Y-54151904D01*
X127292976Y-53785238D02*
X127188214Y-53837619D01*
X126978690Y-53837619D01*
X126873928Y-53785238D01*
X126821547Y-53732857D01*
X126769166Y-53628095D01*
X126769166Y-53313809D01*
X126821547Y-53209047D01*
X126873928Y-53156666D01*
X126978690Y-53104285D01*
X127188214Y-53104285D01*
X127292976Y-53156666D01*
X127816785Y-53837619D02*
X127816785Y-53104285D01*
X127816785Y-53313809D02*
X127869166Y-53209047D01*
X127921547Y-53156666D01*
X128026309Y-53104285D01*
X128131071Y-53104285D01*
X128969166Y-53837619D02*
X128969166Y-53261428D01*
X128916785Y-53156666D01*
X128812024Y-53104285D01*
X128602500Y-53104285D01*
X128497738Y-53156666D01*
X128969166Y-53785238D02*
X128864405Y-53837619D01*
X128602500Y-53837619D01*
X128497738Y-53785238D01*
X128445357Y-53680476D01*
X128445357Y-53575714D01*
X128497738Y-53470952D01*
X128602500Y-53418571D01*
X128864405Y-53418571D01*
X128969166Y-53366190D01*
X129492976Y-53837619D02*
X129492976Y-53104285D01*
X129492976Y-53209047D02*
X129545357Y-53156666D01*
X129650119Y-53104285D01*
X129807262Y-53104285D01*
X129912024Y-53156666D01*
X129964405Y-53261428D01*
X129964405Y-53837619D01*
X129964405Y-53261428D02*
X130016785Y-53156666D01*
X130121547Y-53104285D01*
X130278690Y-53104285D01*
X130383452Y-53156666D01*
X130435833Y-53261428D01*
X130435833Y-53837619D01*
X130959643Y-53837619D02*
X130959643Y-53104285D01*
X130959643Y-53209047D02*
X131012024Y-53156666D01*
X131116785Y-53104285D01*
X131273928Y-53104285D01*
X131378690Y-53156666D01*
X131431071Y-53261428D01*
X131431071Y-53837619D01*
X131431071Y-53261428D02*
X131483452Y-53156666D01*
X131588214Y-53104285D01*
X131745357Y-53104285D01*
X131850119Y-53156666D01*
X131902500Y-53261428D01*
X131902500Y-53837619D01*
X132845357Y-53785238D02*
X132740595Y-53837619D01*
X132531071Y-53837619D01*
X132426309Y-53785238D01*
X132373928Y-53680476D01*
X132373928Y-53261428D01*
X132426309Y-53156666D01*
X132531071Y-53104285D01*
X132740595Y-53104285D01*
X132845357Y-53156666D01*
X132897738Y-53261428D01*
X132897738Y-53366190D01*
X132373928Y-53470952D01*
X133369166Y-53837619D02*
X133369166Y-53104285D01*
X133369166Y-53313809D02*
X133421547Y-53209047D01*
X133473928Y-53156666D01*
X133578690Y-53104285D01*
X133683452Y-53104285D01*
X135673928Y-52685238D02*
X134731071Y-54099523D01*
X137507262Y-53837619D02*
X137140595Y-53313809D01*
X136878690Y-53837619D02*
X136878690Y-52737619D01*
X137297738Y-52737619D01*
X137402500Y-52790000D01*
X137454881Y-52842380D01*
X137507262Y-52947142D01*
X137507262Y-53104285D01*
X137454881Y-53209047D01*
X137402500Y-53261428D01*
X137297738Y-53313809D01*
X136878690Y-53313809D01*
X138397738Y-53785238D02*
X138292976Y-53837619D01*
X138083452Y-53837619D01*
X137978690Y-53785238D01*
X137926309Y-53680476D01*
X137926309Y-53261428D01*
X137978690Y-53156666D01*
X138083452Y-53104285D01*
X138292976Y-53104285D01*
X138397738Y-53156666D01*
X138450119Y-53261428D01*
X138450119Y-53366190D01*
X137926309Y-53470952D01*
X138816785Y-53104285D02*
X139078690Y-53837619D01*
X139340595Y-53104285D01*
X140545357Y-53523333D02*
X141069166Y-53523333D01*
X140440595Y-53837619D02*
X140807262Y-52737619D01*
X141173928Y-53837619D01*
X143164405Y-52685238D02*
X142221547Y-54099523D01*
X144316785Y-52842380D02*
X144369166Y-52790000D01*
X144473928Y-52737619D01*
X144735833Y-52737619D01*
X144840595Y-52790000D01*
X144892976Y-52842380D01*
X144945357Y-52947142D01*
X144945357Y-53051904D01*
X144892976Y-53209047D01*
X144264405Y-53837619D01*
X144945357Y-53837619D01*
X145626309Y-52737619D02*
X145731071Y-52737619D01*
X145835833Y-52790000D01*
X145888214Y-52842380D01*
X145940595Y-52947142D01*
X145992976Y-53156666D01*
X145992976Y-53418571D01*
X145940595Y-53628095D01*
X145888214Y-53732857D01*
X145835833Y-53785238D01*
X145731071Y-53837619D01*
X145626309Y-53837619D01*
X145521547Y-53785238D01*
X145469166Y-53732857D01*
X145416785Y-53628095D01*
X145364405Y-53418571D01*
X145364405Y-53156666D01*
X145416785Y-52947142D01*
X145469166Y-52842380D01*
X145521547Y-52790000D01*
X145626309Y-52737619D01*
X147040595Y-53837619D02*
X146412024Y-53837619D01*
X146726309Y-53837619D02*
X146726309Y-52737619D01*
X146621547Y-52894761D01*
X146516785Y-52999523D01*
X146412024Y-53051904D01*
X147564405Y-53837619D02*
X147773928Y-53837619D01*
X147878690Y-53785238D01*
X147931071Y-53732857D01*
X148035833Y-53575714D01*
X148088214Y-53366190D01*
X148088214Y-52947142D01*
X148035833Y-52842380D01*
X147983452Y-52790000D01*
X147878690Y-52737619D01*
X147669166Y-52737619D01*
X147564405Y-52790000D01*
X147512024Y-52842380D01*
X147459643Y-52947142D01*
X147459643Y-53209047D01*
X147512024Y-53313809D01*
X147564405Y-53366190D01*
X147669166Y-53418571D01*
X147878690Y-53418571D01*
X147983452Y-53366190D01*
X148035833Y-53313809D01*
X148088214Y-53209047D01*
X149397738Y-53837619D02*
X149397738Y-52737619D01*
X149659643Y-52737619D01*
X149816785Y-52790000D01*
X149921547Y-52894761D01*
X149973928Y-52999523D01*
X150026309Y-53209047D01*
X150026309Y-53366190D01*
X149973928Y-53575714D01*
X149921547Y-53680476D01*
X149816785Y-53785238D01*
X149659643Y-53837619D01*
X149397738Y-53837619D01*
X150654881Y-53837619D02*
X150550119Y-53785238D01*
X150497738Y-53732857D01*
X150445357Y-53628095D01*
X150445357Y-53313809D01*
X150497738Y-53209047D01*
X150550119Y-53156666D01*
X150654881Y-53104285D01*
X150812024Y-53104285D01*
X150916785Y-53156666D01*
X150969166Y-53209047D01*
X151021547Y-53313809D01*
X151021547Y-53628095D01*
X150969166Y-53732857D01*
X150916785Y-53785238D01*
X150812024Y-53837619D01*
X150654881Y-53837619D01*
X151492976Y-53837619D02*
X151492976Y-53104285D01*
X151492976Y-53209047D02*
X151545357Y-53156666D01*
X151650119Y-53104285D01*
X151807262Y-53104285D01*
X151912024Y-53156666D01*
X151964405Y-53261428D01*
X151964405Y-53837619D01*
X151964405Y-53261428D02*
X152016785Y-53156666D01*
X152121547Y-53104285D01*
X152278690Y-53104285D01*
X152383452Y-53156666D01*
X152435833Y-53261428D01*
X152435833Y-53837619D01*
X152959643Y-53837619D02*
X152959643Y-53104285D01*
X152959643Y-52737619D02*
X152907262Y-52790000D01*
X152959643Y-52842380D01*
X153012024Y-52790000D01*
X152959643Y-52737619D01*
X152959643Y-52842380D01*
X153483452Y-53104285D02*
X153483452Y-53837619D01*
X153483452Y-53209047D02*
X153535833Y-53156666D01*
X153640595Y-53104285D01*
X153797738Y-53104285D01*
X153902500Y-53156666D01*
X153954881Y-53261428D01*
X153954881Y-53837619D01*
X154478690Y-53837619D02*
X154478690Y-53104285D01*
X154478690Y-52737619D02*
X154426309Y-52790000D01*
X154478690Y-52842380D01*
X154531071Y-52790000D01*
X154478690Y-52737619D01*
X154478690Y-52842380D01*
X155473928Y-53785238D02*
X155369166Y-53837619D01*
X155159643Y-53837619D01*
X155054881Y-53785238D01*
X155002500Y-53732857D01*
X154950119Y-53628095D01*
X154950119Y-53313809D01*
X155002500Y-53209047D01*
X155054881Y-53156666D01*
X155159643Y-53104285D01*
X155369166Y-53104285D01*
X155473928Y-53156666D01*
X156626309Y-52737619D02*
X157254881Y-52737619D01*
X156940595Y-53837619D02*
X156940595Y-52737619D01*
X157621547Y-53837619D02*
X157621547Y-52737619D01*
X158092976Y-53837619D02*
X158092976Y-53261428D01*
X158040595Y-53156666D01*
X157935833Y-53104285D01*
X157778690Y-53104285D01*
X157673928Y-53156666D01*
X157621547Y-53209047D01*
X158616785Y-53837619D02*
X158616785Y-53104285D01*
X158616785Y-52737619D02*
X158564405Y-52790000D01*
X158616785Y-52842380D01*
X158669166Y-52790000D01*
X158616785Y-52737619D01*
X158616785Y-52842380D01*
X159140595Y-53837619D02*
X159140595Y-52737619D01*
X159140595Y-53156666D02*
X159245357Y-53104285D01*
X159454881Y-53104285D01*
X159559643Y-53156666D01*
X159612024Y-53209047D01*
X159664405Y-53313809D01*
X159664405Y-53628095D01*
X159612024Y-53732857D01*
X159559643Y-53785238D01*
X159454881Y-53837619D01*
X159245357Y-53837619D01*
X159140595Y-53785238D01*
X160292976Y-53837619D02*
X160188214Y-53785238D01*
X160135833Y-53732857D01*
X160083452Y-53628095D01*
X160083452Y-53313809D01*
X160135833Y-53209047D01*
X160188214Y-53156666D01*
X160292976Y-53104285D01*
X160450119Y-53104285D01*
X160554881Y-53156666D01*
X160607262Y-53209047D01*
X160659643Y-53313809D01*
X160659643Y-53628095D01*
X160607262Y-53732857D01*
X160554881Y-53785238D01*
X160450119Y-53837619D01*
X160292976Y-53837619D01*
X161602500Y-53837619D02*
X161602500Y-52737619D01*
X161602500Y-53785238D02*
X161497738Y-53837619D01*
X161288214Y-53837619D01*
X161183452Y-53785238D01*
X161131071Y-53732857D01*
X161078690Y-53628095D01*
X161078690Y-53313809D01*
X161131071Y-53209047D01*
X161183452Y-53156666D01*
X161288214Y-53104285D01*
X161497738Y-53104285D01*
X161602500Y-53156666D01*
X162545357Y-53785238D02*
X162440595Y-53837619D01*
X162231071Y-53837619D01*
X162126309Y-53785238D01*
X162073928Y-53680476D01*
X162073928Y-53261428D01*
X162126309Y-53156666D01*
X162231071Y-53104285D01*
X162440595Y-53104285D01*
X162545357Y-53156666D01*
X162597738Y-53261428D01*
X162597738Y-53366190D01*
X162073928Y-53470952D01*
X163540595Y-53837619D02*
X163540595Y-53261428D01*
X163488214Y-53156666D01*
X163383452Y-53104285D01*
X163173928Y-53104285D01*
X163069166Y-53156666D01*
X163540595Y-53785238D02*
X163435833Y-53837619D01*
X163173928Y-53837619D01*
X163069166Y-53785238D01*
X163016785Y-53680476D01*
X163016785Y-53575714D01*
X163069166Y-53470952D01*
X163173928Y-53418571D01*
X163435833Y-53418571D01*
X163540595Y-53366190D01*
X164535833Y-53104285D02*
X164535833Y-53837619D01*
X164064405Y-53104285D02*
X164064405Y-53680476D01*
X164116785Y-53785238D01*
X164221547Y-53837619D01*
X164378690Y-53837619D01*
X164483452Y-53785238D01*
X164535833Y-53732857D01*
X166683452Y-52685238D02*
X165740595Y-54099523D01*
X168359643Y-53837619D02*
X168359643Y-52737619D01*
X168359643Y-53785238D02*
X168254881Y-53837619D01*
X168045357Y-53837619D01*
X167940595Y-53785238D01*
X167888214Y-53732857D01*
X167835833Y-53628095D01*
X167835833Y-53313809D01*
X167888214Y-53209047D01*
X167940595Y-53156666D01*
X168045357Y-53104285D01*
X168254881Y-53104285D01*
X168359643Y-53156666D01*
X169302500Y-53785238D02*
X169197738Y-53837619D01*
X168988214Y-53837619D01*
X168883452Y-53785238D01*
X168831071Y-53680476D01*
X168831071Y-53261428D01*
X168883452Y-53156666D01*
X168988214Y-53104285D01*
X169197738Y-53104285D01*
X169302500Y-53156666D01*
X169354881Y-53261428D01*
X169354881Y-53366190D01*
X168831071Y-53470952D01*
X169721547Y-53104285D02*
X169983452Y-53837619D01*
X170245357Y-53104285D01*
X171345357Y-53313809D02*
X171292976Y-53261428D01*
X171188214Y-53209047D01*
X171083452Y-53209047D01*
X170978690Y-53261428D01*
X170926309Y-53313809D01*
X170873928Y-53418571D01*
X170873928Y-53523333D01*
X170926309Y-53628095D01*
X170978690Y-53680476D01*
X171083452Y-53732857D01*
X171188214Y-53732857D01*
X171292976Y-53680476D01*
X171345357Y-53628095D01*
X171345357Y-53209047D02*
X171345357Y-53628095D01*
X171397738Y-53680476D01*
X171450119Y-53680476D01*
X171554881Y-53628095D01*
X171607262Y-53523333D01*
X171607262Y-53261428D01*
X171502500Y-53104285D01*
X171345357Y-52999523D01*
X171135833Y-52947142D01*
X170926309Y-52999523D01*
X170769166Y-53104285D01*
X170664405Y-53261428D01*
X170612024Y-53470952D01*
X170664405Y-53680476D01*
X170769166Y-53837619D01*
X170926309Y-53942380D01*
X171135833Y-53994761D01*
X171345357Y-53942380D01*
X171502500Y-53837619D01*
X172078690Y-53837619D02*
X172078690Y-52737619D01*
X172550119Y-53837619D02*
X172550119Y-53261428D01*
X172497738Y-53156666D01*
X172392976Y-53104285D01*
X172235833Y-53104285D01*
X172131071Y-53156666D01*
X172078690Y-53209047D01*
X173231071Y-53837619D02*
X173126309Y-53785238D01*
X173073928Y-53732857D01*
X173021547Y-53628095D01*
X173021547Y-53313809D01*
X173073928Y-53209047D01*
X173126309Y-53156666D01*
X173231071Y-53104285D01*
X173388214Y-53104285D01*
X173492976Y-53156666D01*
X173545357Y-53209047D01*
X173597738Y-53313809D01*
X173597738Y-53628095D01*
X173545357Y-53732857D01*
X173492976Y-53785238D01*
X173388214Y-53837619D01*
X173231071Y-53837619D01*
X173912024Y-53104285D02*
X174331071Y-53104285D01*
X174069166Y-52737619D02*
X174069166Y-53680476D01*
X174121547Y-53785238D01*
X174226309Y-53837619D01*
X174331071Y-53837619D01*
X174697738Y-53837619D02*
X174697738Y-52737619D01*
X174802500Y-53418571D02*
X175116785Y-53837619D01*
X175116785Y-53104285D02*
X174697738Y-53523333D01*
X176007262Y-53785238D02*
X175902500Y-53837619D01*
X175692976Y-53837619D01*
X175588214Y-53785238D01*
X175535833Y-53680476D01*
X175535833Y-53261428D01*
X175588214Y-53156666D01*
X175692976Y-53104285D01*
X175902500Y-53104285D01*
X176007262Y-53156666D01*
X176059643Y-53261428D01*
X176059643Y-53366190D01*
X175535833Y-53470952D01*
X176426309Y-53104285D02*
X176688214Y-53837619D01*
X176950119Y-53104285D02*
X176688214Y-53837619D01*
X176583452Y-54099523D01*
X176531071Y-54151904D01*
X176426309Y-54204285D01*
X177316785Y-53785238D02*
X177421547Y-53837619D01*
X177631071Y-53837619D01*
X177735833Y-53785238D01*
X177788214Y-53680476D01*
X177788214Y-53628095D01*
X177735833Y-53523333D01*
X177631071Y-53470952D01*
X177473928Y-53470952D01*
X177369166Y-53418571D01*
X177316785Y-53313809D01*
X177316785Y-53261428D01*
X177369166Y-53156666D01*
X177473928Y-53104285D01*
X177631071Y-53104285D01*
X177735833Y-53156666D01*
X178416785Y-53837619D02*
X178312024Y-53785238D01*
X178259643Y-53732857D01*
X178207262Y-53628095D01*
X178207262Y-53313809D01*
X178259643Y-53209047D01*
X178312024Y-53156666D01*
X178416785Y-53104285D01*
X178573928Y-53104285D01*
X178678690Y-53156666D01*
X178731071Y-53209047D01*
X178783452Y-53313809D01*
X178783452Y-53628095D01*
X178731071Y-53732857D01*
X178678690Y-53785238D01*
X178573928Y-53837619D01*
X178416785Y-53837619D01*
X179097738Y-53104285D02*
X179516785Y-53104285D01*
X179254881Y-53837619D02*
X179254881Y-52894761D01*
X179307262Y-52790000D01*
X179412024Y-52737619D01*
X179516785Y-52737619D01*
X179726309Y-53104285D02*
X180145357Y-53104285D01*
X179883452Y-52737619D02*
X179883452Y-53680476D01*
X179935833Y-53785238D01*
X180040595Y-53837619D01*
X180145357Y-53837619D01*
X180512024Y-53732857D02*
X180564405Y-53785238D01*
X180512024Y-53837619D01*
X180459643Y-53785238D01*
X180512024Y-53732857D01*
X180512024Y-53837619D01*
X181035833Y-53104285D02*
X181035833Y-53837619D01*
X181035833Y-53209047D02*
X181088214Y-53156666D01*
X181192976Y-53104285D01*
X181350119Y-53104285D01*
X181454881Y-53156666D01*
X181507262Y-53261428D01*
X181507262Y-53837619D01*
X182450119Y-53785238D02*
X182345357Y-53837619D01*
X182135833Y-53837619D01*
X182031071Y-53785238D01*
X181978690Y-53680476D01*
X181978690Y-53261428D01*
X182031071Y-53156666D01*
X182135833Y-53104285D01*
X182345357Y-53104285D01*
X182450119Y-53156666D01*
X182502500Y-53261428D01*
X182502500Y-53366190D01*
X181978690Y-53470952D01*
X182816785Y-53104285D02*
X183235833Y-53104285D01*
X182973928Y-52737619D02*
X182973928Y-53680476D01*
X183026309Y-53785238D01*
X183131071Y-53837619D01*
X183235833Y-53837619D01*
D11*
X171811428Y-141648571D02*
X171311428Y-140934285D01*
X170954285Y-141648571D02*
X170954285Y-140148571D01*
X171525714Y-140148571D01*
X171668571Y-140220000D01*
X171740000Y-140291428D01*
X171811428Y-140434285D01*
X171811428Y-140648571D01*
X171740000Y-140791428D01*
X171668571Y-140862857D01*
X171525714Y-140934285D01*
X170954285Y-140934285D01*
X172454285Y-140862857D02*
X172954285Y-140862857D01*
X173168571Y-141648571D02*
X172454285Y-141648571D01*
X172454285Y-140148571D01*
X173168571Y-140148571D01*
X173740000Y-141577142D02*
X173954285Y-141648571D01*
X174311428Y-141648571D01*
X174454285Y-141577142D01*
X174525714Y-141505714D01*
X174597142Y-141362857D01*
X174597142Y-141220000D01*
X174525714Y-141077142D01*
X174454285Y-141005714D01*
X174311428Y-140934285D01*
X174025714Y-140862857D01*
X173882857Y-140791428D01*
X173811428Y-140720000D01*
X173740000Y-140577142D01*
X173740000Y-140434285D01*
X173811428Y-140291428D01*
X173882857Y-140220000D01*
X174025714Y-140148571D01*
X174382857Y-140148571D01*
X174597142Y-140220000D01*
X175240000Y-140862857D02*
X175740000Y-140862857D01*
X175954285Y-141648571D02*
X175240000Y-141648571D01*
X175240000Y-140148571D01*
X175954285Y-140148571D01*
X176382857Y-140148571D02*
X177240000Y-140148571D01*
X176811428Y-141648571D02*
X176811428Y-140148571D01*
X162560000Y-124460000D02*
X142240000Y-124460000D01*
X162560000Y-114300000D02*
X162560000Y-124460000D01*
X142240000Y-114300000D02*
X162560000Y-114300000D01*
X142240000Y-124460000D02*
X142240000Y-114300000D01*
X167640000Y-129540000D02*
X167640000Y-143510000D01*
X154940000Y-143510000D02*
X154940000Y-129540000D01*
X134620000Y-115570000D02*
X134620000Y-105410000D01*
X142240000Y-124460000D02*
X149860000Y-124460000D01*
X151130000Y-124460000D02*
X162560000Y-124460000D01*
X163830000Y-143510000D02*
X167640000Y-143510000D01*
X142240000Y-143510000D02*
X149860000Y-143510000D01*
X151130000Y-143510000D02*
X162560000Y-143510000D01*
X149860000Y-129540000D02*
X149860000Y-124460000D01*
X162560000Y-129540000D02*
X162560000Y-124460000D01*
X162560000Y-143510000D02*
X162560000Y-129540000D01*
X146050000Y-143510000D02*
X146050000Y-129540000D01*
X163830000Y-129540000D02*
X163830000Y-143510000D01*
X163830000Y-129540000D02*
X167640000Y-129540000D01*
X142240000Y-129540000D02*
X149860000Y-129540000D01*
X151130000Y-129540000D02*
X162560000Y-129540000D01*
X142240000Y-143510000D02*
X142240000Y-124460000D01*
X151130000Y-138430000D02*
X151130000Y-124460000D01*
X149860000Y-143510000D02*
X149860000Y-129540000D01*
X158750000Y-143510000D02*
X158750000Y-129540000D01*
X151130000Y-138430000D02*
X151130000Y-143510000D01*
D10*
X155821190Y-126123094D02*
X155964047Y-126170713D01*
X156202142Y-126170713D01*
X156297380Y-126123094D01*
X156345000Y-126075475D01*
X156392619Y-125980237D01*
X156392619Y-125884999D01*
X156345000Y-125789761D01*
X156297380Y-125742142D01*
X156202142Y-125694523D01*
X156011666Y-125646904D01*
X155916428Y-125599285D01*
X155868809Y-125551666D01*
X155821190Y-125456428D01*
X155821190Y-125361190D01*
X155868809Y-125265952D01*
X155916428Y-125218333D01*
X156011666Y-125170713D01*
X156249761Y-125170713D01*
X156392619Y-125218333D01*
X156821190Y-126170713D02*
X156821190Y-125170713D01*
X157202142Y-125170713D01*
X157297380Y-125218333D01*
X157345000Y-125265952D01*
X157392619Y-125361190D01*
X157392619Y-125504047D01*
X157345000Y-125599285D01*
X157297380Y-125646904D01*
X157202142Y-125694523D01*
X156821190Y-125694523D01*
X157821190Y-126170713D02*
X157821190Y-125170713D01*
X143740476Y-126123094D02*
X143883333Y-126170713D01*
X144121428Y-126170713D01*
X144216666Y-126123094D01*
X144264285Y-126075475D01*
X144311904Y-125980237D01*
X144311904Y-125884999D01*
X144264285Y-125789761D01*
X144216666Y-125742142D01*
X144121428Y-125694523D01*
X143930952Y-125646904D01*
X143835714Y-125599285D01*
X143788095Y-125551666D01*
X143740476Y-125456428D01*
X143740476Y-125361190D01*
X143788095Y-125265952D01*
X143835714Y-125218333D01*
X143930952Y-125170713D01*
X144169047Y-125170713D01*
X144311904Y-125218333D01*
X144740476Y-125646904D02*
X145073809Y-125646904D01*
X145216666Y-126170713D02*
X144740476Y-126170713D01*
X144740476Y-125170713D01*
X145216666Y-125170713D01*
X146216666Y-126170713D02*
X145883333Y-125694523D01*
X145645238Y-126170713D02*
X145645238Y-125170713D01*
X146026190Y-125170713D01*
X146121428Y-125218333D01*
X146169047Y-125265952D01*
X146216666Y-125361190D01*
X146216666Y-125504047D01*
X146169047Y-125599285D01*
X146121428Y-125646904D01*
X146026190Y-125694523D01*
X145645238Y-125694523D01*
X146645238Y-126170713D02*
X146645238Y-125170713D01*
X147073809Y-125884999D02*
X147550000Y-125884999D01*
X146978571Y-126170713D02*
X147311904Y-125170713D01*
X147645238Y-126170713D01*
X148454761Y-126170713D02*
X147978571Y-126170713D01*
X147978571Y-125170713D01*
D11*
X155468412Y-120058571D02*
X155468412Y-118558571D01*
X155968412Y-119630000D01*
X156468412Y-118558571D01*
X156468412Y-120058571D01*
X157468412Y-118558571D02*
X157754126Y-118558571D01*
X157896983Y-118630000D01*
X158039840Y-118772857D01*
X158111269Y-119058571D01*
X158111269Y-119558571D01*
X158039840Y-119844285D01*
X157896983Y-119987142D01*
X157754126Y-120058571D01*
X157468412Y-120058571D01*
X157325555Y-119987142D01*
X157182698Y-119844285D01*
X157111269Y-119558571D01*
X157111269Y-119058571D01*
X157182698Y-118772857D01*
X157325555Y-118630000D01*
X157468412Y-118558571D01*
X158754126Y-120058571D02*
X158754126Y-118558571D01*
X159111269Y-118558571D01*
X159325555Y-118630000D01*
X159468412Y-118772857D01*
X159539840Y-118915714D01*
X159611269Y-119201428D01*
X159611269Y-119415714D01*
X159539840Y-119701428D01*
X159468412Y-119844285D01*
X159325555Y-119987142D01*
X159111269Y-120058571D01*
X158754126Y-120058571D01*
X160254126Y-119272857D02*
X160754126Y-119272857D01*
X160968412Y-120058571D02*
X160254126Y-120058571D01*
X160254126Y-118558571D01*
X160968412Y-118558571D01*
D10*
X153487380Y-138126904D02*
X152487380Y-138126904D01*
X152963571Y-138126904D02*
X152963571Y-137555476D01*
X153487380Y-137555476D02*
X152487380Y-137555476D01*
X152963571Y-137079285D02*
X152963571Y-136745952D01*
X153487380Y-136603095D02*
X153487380Y-137079285D01*
X152487380Y-137079285D01*
X152487380Y-136603095D01*
X153201666Y-136222142D02*
X153201666Y-135745952D01*
X153487380Y-136317380D02*
X152487380Y-135984047D01*
X153487380Y-135650714D01*
X153487380Y-134745952D02*
X153011190Y-135079285D01*
X153487380Y-135317380D02*
X152487380Y-135317380D01*
X152487380Y-134936428D01*
X152535000Y-134841190D01*
X152582619Y-134793571D01*
X152677857Y-134745952D01*
X152820714Y-134745952D01*
X152915952Y-134793571D01*
X152963571Y-134841190D01*
X153011190Y-134936428D01*
X153011190Y-135317380D01*
X152487380Y-134460238D02*
X152487380Y-133888809D01*
X153487380Y-134174523D02*
X152487380Y-134174523D01*
X152963571Y-133222142D02*
X153011190Y-133079285D01*
X153058809Y-133031666D01*
X153154047Y-132984047D01*
X153296904Y-132984047D01*
X153392142Y-133031666D01*
X153439761Y-133079285D01*
X153487380Y-133174523D01*
X153487380Y-133555476D01*
X152487380Y-133555476D01*
X152487380Y-133222142D01*
X152535000Y-133126904D01*
X152582619Y-133079285D01*
X152677857Y-133031666D01*
X152773095Y-133031666D01*
X152868333Y-133079285D01*
X152915952Y-133126904D01*
X152963571Y-133222142D01*
X152963571Y-133555476D01*
X152963571Y-132555476D02*
X152963571Y-132222142D01*
X153487380Y-132079285D02*
X153487380Y-132555476D01*
X152487380Y-132555476D01*
X152487380Y-132079285D01*
X153201666Y-131698333D02*
X153201666Y-131222142D01*
X153487380Y-131793571D02*
X152487380Y-131460238D01*
X153487380Y-131126904D01*
X152487380Y-130936428D02*
X152487380Y-130365000D01*
X153487380Y-130650714D02*
X152487380Y-130650714D01*
X157297380Y-138126904D02*
X156297380Y-138126904D01*
X156297380Y-137745952D01*
X156345000Y-137650714D01*
X156392619Y-137603095D01*
X156487857Y-137555476D01*
X156630714Y-137555476D01*
X156725952Y-137603095D01*
X156773571Y-137650714D01*
X156821190Y-137745952D01*
X156821190Y-138126904D01*
X157297380Y-136555476D02*
X156821190Y-136888809D01*
X157297380Y-137126904D02*
X156297380Y-137126904D01*
X156297380Y-136745952D01*
X156345000Y-136650714D01*
X156392619Y-136603095D01*
X156487857Y-136555476D01*
X156630714Y-136555476D01*
X156725952Y-136603095D01*
X156773571Y-136650714D01*
X156821190Y-136745952D01*
X156821190Y-137126904D01*
X156297380Y-135936428D02*
X156297380Y-135745952D01*
X156345000Y-135650714D01*
X156440238Y-135555476D01*
X156630714Y-135507857D01*
X156964047Y-135507857D01*
X157154523Y-135555476D01*
X157249761Y-135650714D01*
X157297380Y-135745952D01*
X157297380Y-135936428D01*
X157249761Y-136031666D01*
X157154523Y-136126904D01*
X156964047Y-136174523D01*
X156630714Y-136174523D01*
X156440238Y-136126904D01*
X156345000Y-136031666D01*
X156297380Y-135936428D01*
X156345000Y-134555476D02*
X156297380Y-134650714D01*
X156297380Y-134793571D01*
X156345000Y-134936428D01*
X156440238Y-135031666D01*
X156535476Y-135079285D01*
X156725952Y-135126904D01*
X156868809Y-135126904D01*
X157059285Y-135079285D01*
X157154523Y-135031666D01*
X157249761Y-134936428D01*
X157297380Y-134793571D01*
X157297380Y-134698333D01*
X157249761Y-134555476D01*
X157202142Y-134507857D01*
X156868809Y-134507857D01*
X156868809Y-134698333D01*
X157297380Y-133507857D02*
X156821190Y-133841190D01*
X157297380Y-134079285D02*
X156297380Y-134079285D01*
X156297380Y-133698333D01*
X156345000Y-133603095D01*
X156392619Y-133555476D01*
X156487857Y-133507857D01*
X156630714Y-133507857D01*
X156725952Y-133555476D01*
X156773571Y-133603095D01*
X156821190Y-133698333D01*
X156821190Y-134079285D01*
X157011666Y-133126904D02*
X157011666Y-132650714D01*
X157297380Y-133222142D02*
X156297380Y-132888809D01*
X157297380Y-132555476D01*
X157297380Y-132222142D02*
X156297380Y-132222142D01*
X157011666Y-131888809D01*
X156297380Y-131555476D01*
X157297380Y-131555476D01*
X160583571Y-138126904D02*
X160583571Y-137793571D01*
X161107380Y-137650714D02*
X161107380Y-138126904D01*
X160107380Y-138126904D01*
X160107380Y-137650714D01*
X161107380Y-136650714D02*
X160631190Y-136984047D01*
X161107380Y-137222142D02*
X160107380Y-137222142D01*
X160107380Y-136841190D01*
X160155000Y-136745952D01*
X160202619Y-136698333D01*
X160297857Y-136650714D01*
X160440714Y-136650714D01*
X160535952Y-136698333D01*
X160583571Y-136745952D01*
X160631190Y-136841190D01*
X160631190Y-137222142D01*
X161107380Y-135650714D02*
X160631190Y-135984047D01*
X161107380Y-136222142D02*
X160107380Y-136222142D01*
X160107380Y-135841190D01*
X160155000Y-135745952D01*
X160202619Y-135698333D01*
X160297857Y-135650714D01*
X160440714Y-135650714D01*
X160535952Y-135698333D01*
X160583571Y-135745952D01*
X160631190Y-135841190D01*
X160631190Y-136222142D01*
X160107380Y-135031666D02*
X160107380Y-134841190D01*
X160155000Y-134745952D01*
X160250238Y-134650714D01*
X160440714Y-134603095D01*
X160774047Y-134603095D01*
X160964523Y-134650714D01*
X161059761Y-134745952D01*
X161107380Y-134841190D01*
X161107380Y-135031666D01*
X161059761Y-135126904D01*
X160964523Y-135222142D01*
X160774047Y-135269761D01*
X160440714Y-135269761D01*
X160250238Y-135222142D01*
X160155000Y-135126904D01*
X160107380Y-135031666D01*
X161107380Y-133603095D02*
X160631190Y-133936428D01*
X161107380Y-134174523D02*
X160107380Y-134174523D01*
X160107380Y-133793571D01*
X160155000Y-133698333D01*
X160202619Y-133650714D01*
X160297857Y-133603095D01*
X160440714Y-133603095D01*
X160535952Y-133650714D01*
X160583571Y-133698333D01*
X160631190Y-133793571D01*
X160631190Y-134174523D01*
X144597380Y-137555476D02*
X144121190Y-137888809D01*
X144597380Y-138126904D02*
X143597380Y-138126904D01*
X143597380Y-137745952D01*
X143645000Y-137650714D01*
X143692619Y-137603095D01*
X143787857Y-137555476D01*
X143930714Y-137555476D01*
X144025952Y-137603095D01*
X144073571Y-137650714D01*
X144121190Y-137745952D01*
X144121190Y-138126904D01*
X143597380Y-137222142D02*
X144597380Y-136555476D01*
X143597380Y-136555476D02*
X144597380Y-137222142D01*
X147407380Y-138269761D02*
X147407380Y-137698333D01*
X148407380Y-137984047D02*
X147407380Y-137984047D01*
X147407380Y-137460238D02*
X148407380Y-136793571D01*
X147407380Y-136793571D02*
X148407380Y-137460238D01*
X166187380Y-138126904D02*
X165187380Y-138126904D01*
X165187380Y-137745952D01*
X165235000Y-137650714D01*
X165282619Y-137603095D01*
X165377857Y-137555476D01*
X165520714Y-137555476D01*
X165615952Y-137603095D01*
X165663571Y-137650714D01*
X165711190Y-137745952D01*
X165711190Y-138126904D01*
X165187380Y-136936428D02*
X165187380Y-136745952D01*
X165235000Y-136650714D01*
X165330238Y-136555476D01*
X165520714Y-136507857D01*
X165854047Y-136507857D01*
X166044523Y-136555476D01*
X166139761Y-136650714D01*
X166187380Y-136745952D01*
X166187380Y-136936428D01*
X166139761Y-137031666D01*
X166044523Y-137126904D01*
X165854047Y-137174523D01*
X165520714Y-137174523D01*
X165330238Y-137126904D01*
X165235000Y-137031666D01*
X165187380Y-136936428D01*
X165187380Y-136174523D02*
X166187380Y-135936428D01*
X165473095Y-135745952D01*
X166187380Y-135555476D01*
X165187380Y-135317380D01*
X165663571Y-134936428D02*
X165663571Y-134603095D01*
X166187380Y-134460238D02*
X166187380Y-134936428D01*
X165187380Y-134936428D01*
X165187380Y-134460238D01*
X166187380Y-133460238D02*
X165711190Y-133793571D01*
X166187380Y-134031666D02*
X165187380Y-134031666D01*
X165187380Y-133650714D01*
X165235000Y-133555476D01*
X165282619Y-133507857D01*
X165377857Y-133460238D01*
X165520714Y-133460238D01*
X165615952Y-133507857D01*
X165663571Y-133555476D01*
X165711190Y-133650714D01*
X165711190Y-134031666D01*
D12*
X104140000Y-115570000D02*
X134595000Y-115570000D01*
D11*
X104140000Y-120650000D02*
X134620000Y-120650000D01*
X134620000Y-120650000D02*
X134620000Y-129540000D01*
X129540000Y-105410000D02*
X129540000Y-107950000D01*
X124460000Y-105410000D02*
X124460000Y-107950000D01*
X119380000Y-105410000D02*
X119380000Y-107950000D01*
X114300000Y-107950000D02*
X114300000Y-105410000D01*
X109220000Y-105410000D02*
X109220000Y-107950000D01*
D12*
X104140000Y-105410000D02*
X139700000Y-105410000D01*
D11*
X134620000Y-107950000D02*
X104140000Y-107950000D01*
D10*
X131241904Y-106130000D02*
X131137142Y-106077619D01*
X130980000Y-106077619D01*
X130822857Y-106130000D01*
X130718095Y-106234761D01*
X130665714Y-106339523D01*
X130613333Y-106549047D01*
X130613333Y-106706190D01*
X130665714Y-106915714D01*
X130718095Y-107020476D01*
X130822857Y-107125238D01*
X130980000Y-107177619D01*
X131084761Y-107177619D01*
X131241904Y-107125238D01*
X131294285Y-107072857D01*
X131294285Y-106706190D01*
X131084761Y-106706190D01*
X131765714Y-107177619D02*
X131765714Y-106077619D01*
X132394285Y-107177619D01*
X132394285Y-106077619D01*
X132918095Y-107177619D02*
X132918095Y-106077619D01*
X133180000Y-106077619D01*
X133337142Y-106130000D01*
X133441904Y-106234761D01*
X133494285Y-106339523D01*
X133546666Y-106549047D01*
X133546666Y-106706190D01*
X133494285Y-106915714D01*
X133441904Y-107020476D01*
X133337142Y-107125238D01*
X133180000Y-107177619D01*
X132918095Y-107177619D01*
X125507142Y-105758000D02*
X126607142Y-105758000D01*
X126397619Y-107177619D02*
X126030952Y-106653809D01*
X125769047Y-107177619D02*
X125769047Y-106077619D01*
X126188095Y-106077619D01*
X126292857Y-106130000D01*
X126345238Y-106182380D01*
X126397619Y-106287142D01*
X126397619Y-106444285D01*
X126345238Y-106549047D01*
X126292857Y-106601428D01*
X126188095Y-106653809D01*
X125769047Y-106653809D01*
X126607142Y-105758000D02*
X127654761Y-105758000D01*
X126816666Y-107125238D02*
X126973809Y-107177619D01*
X127235714Y-107177619D01*
X127340476Y-107125238D01*
X127392857Y-107072857D01*
X127445238Y-106968095D01*
X127445238Y-106863333D01*
X127392857Y-106758571D01*
X127340476Y-106706190D01*
X127235714Y-106653809D01*
X127026190Y-106601428D01*
X126921428Y-106549047D01*
X126869047Y-106496666D01*
X126816666Y-106391904D01*
X126816666Y-106287142D01*
X126869047Y-106182380D01*
X126921428Y-106130000D01*
X127026190Y-106077619D01*
X127288095Y-106077619D01*
X127445238Y-106130000D01*
X127654761Y-105758000D02*
X128492857Y-105758000D01*
X127759523Y-106077619D02*
X128388095Y-106077619D01*
X128073809Y-107177619D02*
X128073809Y-106077619D01*
X120191428Y-107177619D02*
X120191428Y-106077619D01*
X120558095Y-106863333D01*
X120924761Y-106077619D01*
X120924761Y-107177619D01*
X121658095Y-106077619D02*
X121867619Y-106077619D01*
X121972380Y-106130000D01*
X122077142Y-106234761D01*
X122129523Y-106444285D01*
X122129523Y-106810952D01*
X122077142Y-107020476D01*
X121972380Y-107125238D01*
X121867619Y-107177619D01*
X121658095Y-107177619D01*
X121553333Y-107125238D01*
X121448571Y-107020476D01*
X121396190Y-106810952D01*
X121396190Y-106444285D01*
X121448571Y-106234761D01*
X121553333Y-106130000D01*
X121658095Y-106077619D01*
X122548571Y-107125238D02*
X122705714Y-107177619D01*
X122967619Y-107177619D01*
X123072380Y-107125238D01*
X123124761Y-107072857D01*
X123177142Y-106968095D01*
X123177142Y-106863333D01*
X123124761Y-106758571D01*
X123072380Y-106706190D01*
X122967619Y-106653809D01*
X122758095Y-106601428D01*
X122653333Y-106549047D01*
X122600952Y-106496666D01*
X122548571Y-106391904D01*
X122548571Y-106287142D01*
X122600952Y-106182380D01*
X122653333Y-106130000D01*
X122758095Y-106077619D01*
X123020000Y-106077619D01*
X123177142Y-106130000D01*
X123648571Y-107177619D02*
X123648571Y-106077619D01*
X115425714Y-107125238D02*
X115582857Y-107177619D01*
X115844761Y-107177619D01*
X115949523Y-107125238D01*
X116001904Y-107072857D01*
X116054285Y-106968095D01*
X116054285Y-106863333D01*
X116001904Y-106758571D01*
X115949523Y-106706190D01*
X115844761Y-106653809D01*
X115635238Y-106601428D01*
X115530476Y-106549047D01*
X115478095Y-106496666D01*
X115425714Y-106391904D01*
X115425714Y-106287142D01*
X115478095Y-106182380D01*
X115530476Y-106130000D01*
X115635238Y-106077619D01*
X115897142Y-106077619D01*
X116054285Y-106130000D01*
X117154285Y-107072857D02*
X117101904Y-107125238D01*
X116944761Y-107177619D01*
X116840000Y-107177619D01*
X116682857Y-107125238D01*
X116578095Y-107020476D01*
X116525714Y-106915714D01*
X116473333Y-106706190D01*
X116473333Y-106549047D01*
X116525714Y-106339523D01*
X116578095Y-106234761D01*
X116682857Y-106130000D01*
X116840000Y-106077619D01*
X116944761Y-106077619D01*
X117101904Y-106130000D01*
X117154285Y-106182380D01*
X117625714Y-107177619D02*
X117625714Y-106077619D01*
X118254285Y-107177619D02*
X117782857Y-106549047D01*
X118254285Y-106077619D02*
X117625714Y-106706190D01*
X110293333Y-106077619D02*
X110660000Y-107177619D01*
X111026666Y-106077619D01*
X112021904Y-107072857D02*
X111969523Y-107125238D01*
X111812380Y-107177619D01*
X111707619Y-107177619D01*
X111550476Y-107125238D01*
X111445714Y-107020476D01*
X111393333Y-106915714D01*
X111340952Y-106706190D01*
X111340952Y-106549047D01*
X111393333Y-106339523D01*
X111445714Y-106234761D01*
X111550476Y-106130000D01*
X111707619Y-106077619D01*
X111812380Y-106077619D01*
X111969523Y-106130000D01*
X112021904Y-106182380D01*
X113121904Y-107072857D02*
X113069523Y-107125238D01*
X112912380Y-107177619D01*
X112807619Y-107177619D01*
X112650476Y-107125238D01*
X112545714Y-107020476D01*
X112493333Y-106915714D01*
X112440952Y-106706190D01*
X112440952Y-106549047D01*
X112493333Y-106339523D01*
X112545714Y-106234761D01*
X112650476Y-106130000D01*
X112807619Y-106077619D01*
X112912380Y-106077619D01*
X113069523Y-106130000D01*
X113121904Y-106182380D01*
X104951428Y-107177619D02*
X104951428Y-106077619D01*
X105318095Y-106863333D01*
X105684761Y-106077619D01*
X105684761Y-107177619D01*
X106208571Y-107177619D02*
X106208571Y-106077619D01*
X106680000Y-107125238D02*
X106837142Y-107177619D01*
X107099047Y-107177619D01*
X107203809Y-107125238D01*
X107256190Y-107072857D01*
X107308571Y-106968095D01*
X107308571Y-106863333D01*
X107256190Y-106758571D01*
X107203809Y-106706190D01*
X107099047Y-106653809D01*
X106889523Y-106601428D01*
X106784761Y-106549047D01*
X106732380Y-106496666D01*
X106680000Y-106391904D01*
X106680000Y-106287142D01*
X106732380Y-106182380D01*
X106784761Y-106130000D01*
X106889523Y-106077619D01*
X107151428Y-106077619D01*
X107308571Y-106130000D01*
X107989523Y-106077619D02*
X108199047Y-106077619D01*
X108303809Y-106130000D01*
X108408571Y-106234761D01*
X108460952Y-106444285D01*
X108460952Y-106810952D01*
X108408571Y-107020476D01*
X108303809Y-107125238D01*
X108199047Y-107177619D01*
X107989523Y-107177619D01*
X107884761Y-107125238D01*
X107780000Y-107020476D01*
X107727619Y-106810952D01*
X107727619Y-106444285D01*
X107780000Y-106234761D01*
X107884761Y-106130000D01*
X107989523Y-106077619D01*
D11*
X119380000Y-115570000D02*
X119380000Y-120650000D01*
X114300000Y-115570000D02*
X114300000Y-120650000D01*
X111760000Y-120650000D02*
X104140000Y-120650000D01*
X109220000Y-115570000D02*
X109220000Y-120650000D01*
X104140000Y-118110000D02*
X119380000Y-118110000D01*
D10*
X116001904Y-116290000D02*
X115897142Y-116237619D01*
X115740000Y-116237619D01*
X115582857Y-116290000D01*
X115478095Y-116394761D01*
X115425714Y-116499523D01*
X115373333Y-116709047D01*
X115373333Y-116866190D01*
X115425714Y-117075714D01*
X115478095Y-117180476D01*
X115582857Y-117285238D01*
X115740000Y-117337619D01*
X115844761Y-117337619D01*
X116001904Y-117285238D01*
X116054285Y-117232857D01*
X116054285Y-116866190D01*
X115844761Y-116866190D01*
X116525714Y-117337619D02*
X116525714Y-116237619D01*
X117154285Y-117337619D01*
X117154285Y-116237619D01*
X117678095Y-117337619D02*
X117678095Y-116237619D01*
X117940000Y-116237619D01*
X118097142Y-116290000D01*
X118201904Y-116394761D01*
X118254285Y-116499523D01*
X118306666Y-116709047D01*
X118306666Y-116866190D01*
X118254285Y-117075714D01*
X118201904Y-117180476D01*
X118097142Y-117285238D01*
X117940000Y-117337619D01*
X117678095Y-117337619D01*
X105213333Y-116237619D02*
X105580000Y-117337619D01*
X105946666Y-116237619D01*
X106941904Y-117232857D02*
X106889523Y-117285238D01*
X106732380Y-117337619D01*
X106627619Y-117337619D01*
X106470476Y-117285238D01*
X106365714Y-117180476D01*
X106313333Y-117075714D01*
X106260952Y-116866190D01*
X106260952Y-116709047D01*
X106313333Y-116499523D01*
X106365714Y-116394761D01*
X106470476Y-116290000D01*
X106627619Y-116237619D01*
X106732380Y-116237619D01*
X106889523Y-116290000D01*
X106941904Y-116342380D01*
X108041904Y-117232857D02*
X107989523Y-117285238D01*
X107832380Y-117337619D01*
X107727619Y-117337619D01*
X107570476Y-117285238D01*
X107465714Y-117180476D01*
X107413333Y-117075714D01*
X107360952Y-116866190D01*
X107360952Y-116709047D01*
X107413333Y-116499523D01*
X107465714Y-116394761D01*
X107570476Y-116290000D01*
X107727619Y-116237619D01*
X107832380Y-116237619D01*
X107989523Y-116290000D01*
X108041904Y-116342380D01*
X110031428Y-117337619D02*
X110031428Y-116237619D01*
X110398095Y-117023333D01*
X110764761Y-116237619D01*
X110764761Y-117337619D01*
X111498095Y-116237619D02*
X111707619Y-116237619D01*
X111812380Y-116290000D01*
X111917142Y-116394761D01*
X111969523Y-116604285D01*
X111969523Y-116970952D01*
X111917142Y-117180476D01*
X111812380Y-117285238D01*
X111707619Y-117337619D01*
X111498095Y-117337619D01*
X111393333Y-117285238D01*
X111288571Y-117180476D01*
X111236190Y-116970952D01*
X111236190Y-116604285D01*
X111288571Y-116394761D01*
X111393333Y-116290000D01*
X111498095Y-116237619D01*
X112388571Y-117285238D02*
X112545714Y-117337619D01*
X112807619Y-117337619D01*
X112912380Y-117285238D01*
X112964761Y-117232857D01*
X113017142Y-117128095D01*
X113017142Y-117023333D01*
X112964761Y-116918571D01*
X112912380Y-116866190D01*
X112807619Y-116813809D01*
X112598095Y-116761428D01*
X112493333Y-116709047D01*
X112440952Y-116656666D01*
X112388571Y-116551904D01*
X112388571Y-116447142D01*
X112440952Y-116342380D01*
X112493333Y-116290000D01*
X112598095Y-116237619D01*
X112860000Y-116237619D01*
X113017142Y-116290000D01*
X113488571Y-117337619D02*
X113488571Y-116237619D01*
X115347142Y-118458000D02*
X116447142Y-118458000D01*
X116237619Y-119877619D02*
X115870952Y-119353809D01*
X115609047Y-119877619D02*
X115609047Y-118777619D01*
X116028095Y-118777619D01*
X116132857Y-118830000D01*
X116185238Y-118882380D01*
X116237619Y-118987142D01*
X116237619Y-119144285D01*
X116185238Y-119249047D01*
X116132857Y-119301428D01*
X116028095Y-119353809D01*
X115609047Y-119353809D01*
X116447142Y-118458000D02*
X117494761Y-118458000D01*
X116656666Y-119825238D02*
X116813809Y-119877619D01*
X117075714Y-119877619D01*
X117180476Y-119825238D01*
X117232857Y-119772857D01*
X117285238Y-119668095D01*
X117285238Y-119563333D01*
X117232857Y-119458571D01*
X117180476Y-119406190D01*
X117075714Y-119353809D01*
X116866190Y-119301428D01*
X116761428Y-119249047D01*
X116709047Y-119196666D01*
X116656666Y-119091904D01*
X116656666Y-118987142D01*
X116709047Y-118882380D01*
X116761428Y-118830000D01*
X116866190Y-118777619D01*
X117128095Y-118777619D01*
X117285238Y-118830000D01*
X117494761Y-118458000D02*
X118332857Y-118458000D01*
X117599523Y-118777619D02*
X118228095Y-118777619D01*
X117913809Y-119877619D02*
X117913809Y-118777619D01*
X110345714Y-119825238D02*
X110502857Y-119877619D01*
X110764761Y-119877619D01*
X110869523Y-119825238D01*
X110921904Y-119772857D01*
X110974285Y-119668095D01*
X110974285Y-119563333D01*
X110921904Y-119458571D01*
X110869523Y-119406190D01*
X110764761Y-119353809D01*
X110555238Y-119301428D01*
X110450476Y-119249047D01*
X110398095Y-119196666D01*
X110345714Y-119091904D01*
X110345714Y-118987142D01*
X110398095Y-118882380D01*
X110450476Y-118830000D01*
X110555238Y-118777619D01*
X110817142Y-118777619D01*
X110974285Y-118830000D01*
X112074285Y-119772857D02*
X112021904Y-119825238D01*
X111864761Y-119877619D01*
X111760000Y-119877619D01*
X111602857Y-119825238D01*
X111498095Y-119720476D01*
X111445714Y-119615714D01*
X111393333Y-119406190D01*
X111393333Y-119249047D01*
X111445714Y-119039523D01*
X111498095Y-118934761D01*
X111602857Y-118830000D01*
X111760000Y-118777619D01*
X111864761Y-118777619D01*
X112021904Y-118830000D01*
X112074285Y-118882380D01*
X112545714Y-119877619D02*
X112545714Y-118777619D01*
X113174285Y-119877619D02*
X112702857Y-119249047D01*
X113174285Y-118777619D02*
X112545714Y-119406190D01*
X104951428Y-119877619D02*
X104951428Y-118777619D01*
X105318095Y-119563333D01*
X105684761Y-118777619D01*
X105684761Y-119877619D01*
X106208571Y-119877619D02*
X106208571Y-118777619D01*
X106680000Y-119825238D02*
X106837142Y-119877619D01*
X107099047Y-119877619D01*
X107203809Y-119825238D01*
X107256190Y-119772857D01*
X107308571Y-119668095D01*
X107308571Y-119563333D01*
X107256190Y-119458571D01*
X107203809Y-119406190D01*
X107099047Y-119353809D01*
X106889523Y-119301428D01*
X106784761Y-119249047D01*
X106732380Y-119196666D01*
X106680000Y-119091904D01*
X106680000Y-118987142D01*
X106732380Y-118882380D01*
X106784761Y-118830000D01*
X106889523Y-118777619D01*
X107151428Y-118777619D01*
X107308571Y-118830000D01*
X107989523Y-118777619D02*
X108199047Y-118777619D01*
X108303809Y-118830000D01*
X108408571Y-118934761D01*
X108460952Y-119144285D01*
X108460952Y-119510952D01*
X108408571Y-119720476D01*
X108303809Y-119825238D01*
X108199047Y-119877619D01*
X107989523Y-119877619D01*
X107884761Y-119825238D01*
X107780000Y-119720476D01*
X107727619Y-119510952D01*
X107727619Y-119144285D01*
X107780000Y-118934761D01*
X107884761Y-118830000D01*
X107989523Y-118777619D01*
D14*
G04 #@! TO.C,Y2*
X139685000Y-72985000D02*
X139685000Y-79235000D01*
X134635000Y-72985000D02*
X134635000Y-79235000D01*
X134635000Y-72985000D02*
G75*
G02X139685000Y-72985000I2525000J0D01*
G01*
X134635000Y-79235000D02*
G75*
G03X139685000Y-79235000I2525000J0D01*
G01*
G04 #@! TO.C,SK4*
X166310000Y-63770000D02*
G75*
G02X166310000Y-65770000I0J-1000000D01*
G01*
X166310000Y-65770000D02*
X166310000Y-67420000D01*
X166310000Y-67420000D02*
X184210000Y-67420000D01*
X184210000Y-67420000D02*
X184210000Y-62120000D01*
X184210000Y-62120000D02*
X166310000Y-62120000D01*
X166310000Y-62120000D02*
X166310000Y-63770000D01*
G04 #@! TO.C,SK3*
X166310000Y-76470000D02*
G75*
G02X166310000Y-78470000I0J-1000000D01*
G01*
X166310000Y-78470000D02*
X166310000Y-80120000D01*
X166310000Y-80120000D02*
X176590000Y-80120000D01*
X176590000Y-80120000D02*
X176590000Y-74820000D01*
X176590000Y-74820000D02*
X166310000Y-74820000D01*
X166310000Y-74820000D02*
X166310000Y-76470000D01*
G04 #@! TO.C,D10*
X145280000Y-143430000D02*
X145280000Y-139370000D01*
X143010000Y-143430000D02*
X145280000Y-143430000D01*
X143010000Y-139370000D02*
X143010000Y-143430000D01*
G04 #@! TO.C,D9*
X146820000Y-139370000D02*
X146820000Y-143430000D01*
X146820000Y-143430000D02*
X149090000Y-143430000D01*
X149090000Y-143430000D02*
X149090000Y-139370000D01*
G04 #@! TO.C,D7*
X157980000Y-143430000D02*
X157980000Y-139370000D01*
X155710000Y-143430000D02*
X157980000Y-143430000D01*
X155710000Y-139370000D02*
X155710000Y-143430000D01*
G04 #@! TO.C,D6*
X159520000Y-139370000D02*
X159520000Y-143430000D01*
X159520000Y-143430000D02*
X161790000Y-143430000D01*
X161790000Y-143430000D02*
X161790000Y-139370000D01*
G04 #@! TO.C,D5*
X154170000Y-143430000D02*
X154170000Y-139370000D01*
X151900000Y-143430000D02*
X154170000Y-143430000D01*
X151900000Y-139370000D02*
X151900000Y-143430000D01*
G04 #@! TO.C,D4*
X136025000Y-139114998D02*
X136025000Y-143174998D01*
X136025000Y-143174998D02*
X138295000Y-143174998D01*
X138295000Y-143174998D02*
X138295000Y-139114998D01*
G04 #@! TO.C,D8*
X166870000Y-143430000D02*
X166870000Y-139370000D01*
X164600000Y-143430000D02*
X166870000Y-143430000D01*
X164600000Y-139370000D02*
X164600000Y-143430000D01*
G04 #@! TO.C,D2*
X136025000Y-118025000D02*
X136025000Y-122085000D01*
X136025000Y-122085000D02*
X138295000Y-122085000D01*
X138295000Y-122085000D02*
X138295000Y-118025000D01*
G04 #@! TO.C,D3*
X148510000Y-126500000D02*
X144450000Y-126500000D01*
X148510000Y-128770000D02*
X148510000Y-126500000D01*
X144450000Y-128770000D02*
X148510000Y-128770000D01*
G04 #@! TO.C,D1*
X155245000Y-128770000D02*
X159305000Y-128770000D01*
X159305000Y-128770000D02*
X159305000Y-126500000D01*
X159305000Y-126500000D02*
X155245000Y-126500000D01*
G04 #@! TO.C,C16*
X196065000Y-119380000D02*
G75*
G03X196065000Y-119380000I-2120000J0D01*
G01*
X193945000Y-121460000D02*
X193945000Y-117300000D01*
X193905000Y-121460000D02*
X193905000Y-117300000D01*
X193865000Y-121459000D02*
X193865000Y-117301000D01*
X193825000Y-121457000D02*
X193825000Y-117303000D01*
X193785000Y-121454000D02*
X193785000Y-117306000D01*
X193745000Y-121451000D02*
X193745000Y-120220000D01*
X193745000Y-118540000D02*
X193745000Y-117309000D01*
X193705000Y-121447000D02*
X193705000Y-120220000D01*
X193705000Y-118540000D02*
X193705000Y-117313000D01*
X193665000Y-121442000D02*
X193665000Y-120220000D01*
X193665000Y-118540000D02*
X193665000Y-117318000D01*
X193625000Y-121436000D02*
X193625000Y-120220000D01*
X193625000Y-118540000D02*
X193625000Y-117324000D01*
X193585000Y-121430000D02*
X193585000Y-120220000D01*
X193585000Y-118540000D02*
X193585000Y-117330000D01*
X193545000Y-121422000D02*
X193545000Y-120220000D01*
X193545000Y-118540000D02*
X193545000Y-117338000D01*
X193505000Y-121414000D02*
X193505000Y-120220000D01*
X193505000Y-118540000D02*
X193505000Y-117346000D01*
X193465000Y-121405000D02*
X193465000Y-120220000D01*
X193465000Y-118540000D02*
X193465000Y-117355000D01*
X193425000Y-121396000D02*
X193425000Y-120220000D01*
X193425000Y-118540000D02*
X193425000Y-117364000D01*
X193385000Y-121385000D02*
X193385000Y-120220000D01*
X193385000Y-118540000D02*
X193385000Y-117375000D01*
X193345000Y-121374000D02*
X193345000Y-120220000D01*
X193345000Y-118540000D02*
X193345000Y-117386000D01*
X193305000Y-121362000D02*
X193305000Y-120220000D01*
X193305000Y-118540000D02*
X193305000Y-117398000D01*
X193265000Y-121348000D02*
X193265000Y-120220000D01*
X193265000Y-118540000D02*
X193265000Y-117412000D01*
X193224000Y-121334000D02*
X193224000Y-120220000D01*
X193224000Y-118540000D02*
X193224000Y-117426000D01*
X193184000Y-121320000D02*
X193184000Y-120220000D01*
X193184000Y-118540000D02*
X193184000Y-117440000D01*
X193144000Y-121304000D02*
X193144000Y-120220000D01*
X193144000Y-118540000D02*
X193144000Y-117456000D01*
X193104000Y-121287000D02*
X193104000Y-120220000D01*
X193104000Y-118540000D02*
X193104000Y-117473000D01*
X193064000Y-121269000D02*
X193064000Y-120220000D01*
X193064000Y-118540000D02*
X193064000Y-117491000D01*
X193024000Y-121250000D02*
X193024000Y-120220000D01*
X193024000Y-118540000D02*
X193024000Y-117510000D01*
X192984000Y-121231000D02*
X192984000Y-120220000D01*
X192984000Y-118540000D02*
X192984000Y-117529000D01*
X192944000Y-121210000D02*
X192944000Y-120220000D01*
X192944000Y-118540000D02*
X192944000Y-117550000D01*
X192904000Y-121188000D02*
X192904000Y-120220000D01*
X192904000Y-118540000D02*
X192904000Y-117572000D01*
X192864000Y-121165000D02*
X192864000Y-120220000D01*
X192864000Y-118540000D02*
X192864000Y-117595000D01*
X192824000Y-121140000D02*
X192824000Y-120220000D01*
X192824000Y-118540000D02*
X192824000Y-117620000D01*
X192784000Y-121115000D02*
X192784000Y-120220000D01*
X192784000Y-118540000D02*
X192784000Y-117645000D01*
X192744000Y-121088000D02*
X192744000Y-120220000D01*
X192744000Y-118540000D02*
X192744000Y-117672000D01*
X192704000Y-121060000D02*
X192704000Y-120220000D01*
X192704000Y-118540000D02*
X192704000Y-117700000D01*
X192664000Y-121030000D02*
X192664000Y-120220000D01*
X192664000Y-118540000D02*
X192664000Y-117730000D01*
X192624000Y-120999000D02*
X192624000Y-120220000D01*
X192624000Y-118540000D02*
X192624000Y-117761000D01*
X192584000Y-120967000D02*
X192584000Y-120220000D01*
X192584000Y-118540000D02*
X192584000Y-117793000D01*
X192544000Y-120932000D02*
X192544000Y-120220000D01*
X192544000Y-118540000D02*
X192544000Y-117828000D01*
X192504000Y-120896000D02*
X192504000Y-120220000D01*
X192504000Y-118540000D02*
X192504000Y-117864000D01*
X192464000Y-120858000D02*
X192464000Y-120220000D01*
X192464000Y-118540000D02*
X192464000Y-117902000D01*
X192424000Y-120818000D02*
X192424000Y-120220000D01*
X192424000Y-118540000D02*
X192424000Y-117942000D01*
X192384000Y-120776000D02*
X192384000Y-120220000D01*
X192384000Y-118540000D02*
X192384000Y-117984000D01*
X192344000Y-120731000D02*
X192344000Y-120220000D01*
X192344000Y-118540000D02*
X192344000Y-118029000D01*
X192304000Y-120684000D02*
X192304000Y-120220000D01*
X192304000Y-118540000D02*
X192304000Y-118076000D01*
X192264000Y-120634000D02*
X192264000Y-120220000D01*
X192264000Y-118540000D02*
X192264000Y-118126000D01*
X192224000Y-120580000D02*
X192224000Y-120220000D01*
X192224000Y-118540000D02*
X192224000Y-118180000D01*
X192184000Y-120522000D02*
X192184000Y-120220000D01*
X192184000Y-118540000D02*
X192184000Y-118238000D01*
X192144000Y-120460000D02*
X192144000Y-120220000D01*
X192144000Y-118540000D02*
X192144000Y-118300000D01*
X192104000Y-120393000D02*
X192104000Y-118367000D01*
X192064000Y-120320000D02*
X192064000Y-118440000D01*
X192024000Y-120239000D02*
X192024000Y-118521000D01*
X191984000Y-120148000D02*
X191984000Y-118612000D01*
X191944000Y-120044000D02*
X191944000Y-118716000D01*
X191904000Y-119917000D02*
X191904000Y-118843000D01*
X191864000Y-119750000D02*
X191864000Y-119010000D01*
X196214801Y-120575000D02*
X195814801Y-120575000D01*
X196014801Y-120775000D02*
X196014801Y-120375000D01*
G04 #@! TO.C,U4*
X174990000Y-116780000D02*
G75*
G02X172990000Y-116780000I-1000000J0D01*
G01*
X172990000Y-116780000D02*
X171340000Y-116780000D01*
X171340000Y-116780000D02*
X171340000Y-127060000D01*
X171340000Y-127060000D02*
X176640000Y-127060000D01*
X176640000Y-127060000D02*
X176640000Y-116780000D01*
X176640000Y-116780000D02*
X174990000Y-116780000D01*
X168850000Y-116720000D02*
X168850000Y-127120000D01*
X168850000Y-127120000D02*
X179130000Y-127120000D01*
X179130000Y-127120000D02*
X179130000Y-116720000D01*
X179130000Y-116720000D02*
X168850000Y-116720000D01*
G04 #@! TO.C,C15*
X189715000Y-119380000D02*
G75*
G03X189715000Y-119380000I-2120000J0D01*
G01*
X187595000Y-121460000D02*
X187595000Y-117300000D01*
X187555000Y-121460000D02*
X187555000Y-117300000D01*
X187515000Y-121459000D02*
X187515000Y-117301000D01*
X187475000Y-121457000D02*
X187475000Y-117303000D01*
X187435000Y-121454000D02*
X187435000Y-117306000D01*
X187395000Y-121451000D02*
X187395000Y-120220000D01*
X187395000Y-118540000D02*
X187395000Y-117309000D01*
X187355000Y-121447000D02*
X187355000Y-120220000D01*
X187355000Y-118540000D02*
X187355000Y-117313000D01*
X187315000Y-121442000D02*
X187315000Y-120220000D01*
X187315000Y-118540000D02*
X187315000Y-117318000D01*
X187275000Y-121436000D02*
X187275000Y-120220000D01*
X187275000Y-118540000D02*
X187275000Y-117324000D01*
X187235000Y-121430000D02*
X187235000Y-120220000D01*
X187235000Y-118540000D02*
X187235000Y-117330000D01*
X187195000Y-121422000D02*
X187195000Y-120220000D01*
X187195000Y-118540000D02*
X187195000Y-117338000D01*
X187155000Y-121414000D02*
X187155000Y-120220000D01*
X187155000Y-118540000D02*
X187155000Y-117346000D01*
X187115000Y-121405000D02*
X187115000Y-120220000D01*
X187115000Y-118540000D02*
X187115000Y-117355000D01*
X187075000Y-121396000D02*
X187075000Y-120220000D01*
X187075000Y-118540000D02*
X187075000Y-117364000D01*
X187035000Y-121385000D02*
X187035000Y-120220000D01*
X187035000Y-118540000D02*
X187035000Y-117375000D01*
X186995000Y-121374000D02*
X186995000Y-120220000D01*
X186995000Y-118540000D02*
X186995000Y-117386000D01*
X186955000Y-121362000D02*
X186955000Y-120220000D01*
X186955000Y-118540000D02*
X186955000Y-117398000D01*
X186915000Y-121348000D02*
X186915000Y-120220000D01*
X186915000Y-118540000D02*
X186915000Y-117412000D01*
X186874000Y-121334000D02*
X186874000Y-120220000D01*
X186874000Y-118540000D02*
X186874000Y-117426000D01*
X186834000Y-121320000D02*
X186834000Y-120220000D01*
X186834000Y-118540000D02*
X186834000Y-117440000D01*
X186794000Y-121304000D02*
X186794000Y-120220000D01*
X186794000Y-118540000D02*
X186794000Y-117456000D01*
X186754000Y-121287000D02*
X186754000Y-120220000D01*
X186754000Y-118540000D02*
X186754000Y-117473000D01*
X186714000Y-121269000D02*
X186714000Y-120220000D01*
X186714000Y-118540000D02*
X186714000Y-117491000D01*
X186674000Y-121250000D02*
X186674000Y-120220000D01*
X186674000Y-118540000D02*
X186674000Y-117510000D01*
X186634000Y-121231000D02*
X186634000Y-120220000D01*
X186634000Y-118540000D02*
X186634000Y-117529000D01*
X186594000Y-121210000D02*
X186594000Y-120220000D01*
X186594000Y-118540000D02*
X186594000Y-117550000D01*
X186554000Y-121188000D02*
X186554000Y-120220000D01*
X186554000Y-118540000D02*
X186554000Y-117572000D01*
X186514000Y-121165000D02*
X186514000Y-120220000D01*
X186514000Y-118540000D02*
X186514000Y-117595000D01*
X186474000Y-121140000D02*
X186474000Y-120220000D01*
X186474000Y-118540000D02*
X186474000Y-117620000D01*
X186434000Y-121115000D02*
X186434000Y-120220000D01*
X186434000Y-118540000D02*
X186434000Y-117645000D01*
X186394000Y-121088000D02*
X186394000Y-120220000D01*
X186394000Y-118540000D02*
X186394000Y-117672000D01*
X186354000Y-121060000D02*
X186354000Y-120220000D01*
X186354000Y-118540000D02*
X186354000Y-117700000D01*
X186314000Y-121030000D02*
X186314000Y-120220000D01*
X186314000Y-118540000D02*
X186314000Y-117730000D01*
X186274000Y-120999000D02*
X186274000Y-120220000D01*
X186274000Y-118540000D02*
X186274000Y-117761000D01*
X186234000Y-120967000D02*
X186234000Y-120220000D01*
X186234000Y-118540000D02*
X186234000Y-117793000D01*
X186194000Y-120932000D02*
X186194000Y-120220000D01*
X186194000Y-118540000D02*
X186194000Y-117828000D01*
X186154000Y-120896000D02*
X186154000Y-120220000D01*
X186154000Y-118540000D02*
X186154000Y-117864000D01*
X186114000Y-120858000D02*
X186114000Y-120220000D01*
X186114000Y-118540000D02*
X186114000Y-117902000D01*
X186074000Y-120818000D02*
X186074000Y-120220000D01*
X186074000Y-118540000D02*
X186074000Y-117942000D01*
X186034000Y-120776000D02*
X186034000Y-120220000D01*
X186034000Y-118540000D02*
X186034000Y-117984000D01*
X185994000Y-120731000D02*
X185994000Y-120220000D01*
X185994000Y-118540000D02*
X185994000Y-118029000D01*
X185954000Y-120684000D02*
X185954000Y-120220000D01*
X185954000Y-118540000D02*
X185954000Y-118076000D01*
X185914000Y-120634000D02*
X185914000Y-120220000D01*
X185914000Y-118540000D02*
X185914000Y-118126000D01*
X185874000Y-120580000D02*
X185874000Y-120220000D01*
X185874000Y-118540000D02*
X185874000Y-118180000D01*
X185834000Y-120522000D02*
X185834000Y-120220000D01*
X185834000Y-118540000D02*
X185834000Y-118238000D01*
X185794000Y-120460000D02*
X185794000Y-120220000D01*
X185794000Y-118540000D02*
X185794000Y-118300000D01*
X185754000Y-120393000D02*
X185754000Y-118367000D01*
X185714000Y-120320000D02*
X185714000Y-118440000D01*
X185674000Y-120239000D02*
X185674000Y-118521000D01*
X185634000Y-120148000D02*
X185634000Y-118612000D01*
X185594000Y-120044000D02*
X185594000Y-118716000D01*
X185554000Y-119917000D02*
X185554000Y-118843000D01*
X185514000Y-119750000D02*
X185514000Y-119010000D01*
X189864801Y-120575000D02*
X189464801Y-120575000D01*
X189664801Y-120775000D02*
X189664801Y-120375000D01*
G04 #@! TO.C,J2*
X118140000Y-136560000D02*
X118140000Y-133900000D01*
X118140000Y-136560000D02*
X128360000Y-136560000D01*
X128360000Y-136560000D02*
X128360000Y-133900000D01*
X118140000Y-133900000D02*
X128360000Y-133900000D01*
X115540000Y-133900000D02*
X116870000Y-133900000D01*
X115540000Y-135230000D02*
X115540000Y-133900000D01*
G04 #@! TO.C,H4*
X126682500Y-126360000D02*
X126682500Y-125725000D01*
X127317500Y-126360000D02*
X126682500Y-126360000D01*
G04 #@! TO.C,H3*
X114655000Y-109960000D02*
X114655000Y-113560000D01*
X114655000Y-113560000D02*
X124005000Y-113560000D01*
X124005000Y-113560000D02*
X124005000Y-109960000D01*
X124005000Y-109960000D02*
X114655000Y-109960000D01*
X114345000Y-111960000D02*
X114345000Y-113870000D01*
X114345000Y-113870000D02*
X116255000Y-113870000D01*
X114655000Y-112260000D02*
X114955000Y-112260000D01*
X114955000Y-112260000D02*
X114955000Y-113260000D01*
X114955000Y-113260000D02*
X123705000Y-113260000D01*
X123705000Y-113260000D02*
X123705000Y-112260000D01*
X123705000Y-112260000D02*
X124005000Y-112260000D01*
X114655000Y-111510000D02*
X114955000Y-111510000D01*
X114955000Y-111510000D02*
X114955000Y-110410000D01*
X114955000Y-110410000D02*
X115255000Y-110410000D01*
X115255000Y-110410000D02*
X115255000Y-109960000D01*
X124005000Y-111510000D02*
X123705000Y-111510000D01*
X123705000Y-111510000D02*
X123705000Y-110410000D01*
X123705000Y-110410000D02*
X123405000Y-110410000D01*
X123405000Y-110410000D02*
X123405000Y-109960000D01*
X115255000Y-110410000D02*
X116455000Y-110410000D01*
X116455000Y-110410000D02*
X116455000Y-110110000D01*
X116455000Y-110110000D02*
X117205000Y-110110000D01*
X117205000Y-110110000D02*
X117205000Y-110410000D01*
X117205000Y-110410000D02*
X121455000Y-110410000D01*
X121455000Y-110410000D02*
X121455000Y-110110000D01*
X121455000Y-110110000D02*
X122205000Y-110110000D01*
X122205000Y-110110000D02*
X122205000Y-110410000D01*
X122205000Y-110410000D02*
X123405000Y-110410000D01*
G04 #@! TO.C,H2*
X122165000Y-126845000D02*
X122165000Y-126022530D01*
X122165000Y-124137470D02*
X122165000Y-123315000D01*
X122165000Y-125407470D02*
X122165000Y-124752530D01*
X119690000Y-126845000D02*
X122165000Y-126845000D01*
X118235000Y-123315000D02*
X122165000Y-123315000D01*
X119690000Y-126845000D02*
X119690000Y-126278471D01*
X119690000Y-125151529D02*
X119690000Y-125008471D01*
X119636529Y-124955000D02*
X119493471Y-124955000D01*
X118366529Y-124955000D02*
X118235000Y-124955000D01*
X118235000Y-124955000D02*
X118235000Y-124752530D01*
X118235000Y-124137470D02*
X118235000Y-123315000D01*
X118930000Y-126845000D02*
X118170000Y-126845000D01*
X118170000Y-126845000D02*
X118170000Y-125715000D01*
G04 #@! TO.C,H1*
X114882500Y-127695000D02*
X114882500Y-122495000D01*
X109742500Y-127695000D02*
X114882500Y-127695000D01*
X107142500Y-122495000D02*
X114882500Y-122495000D01*
X109742500Y-127695000D02*
X109742500Y-125095000D01*
X109742500Y-125095000D02*
X107142500Y-125095000D01*
X107142500Y-125095000D02*
X107142500Y-122495000D01*
X108472500Y-127695000D02*
X107142500Y-127695000D01*
X107142500Y-127695000D02*
X107142500Y-126365000D01*
G04 #@! TO.C,SK2*
X153400000Y-65345000D02*
G75*
G02X151400000Y-65345000I-1000000J0D01*
G01*
X151400000Y-65345000D02*
X145940000Y-65345000D01*
X149750000Y-65345000D02*
X149750000Y-101660000D01*
X155050000Y-101660000D02*
X155050000Y-65345000D01*
X155050000Y-65345000D02*
X153400000Y-65345000D01*
X142240000Y-58420000D02*
X142240000Y-109220000D01*
X142240000Y-109220000D02*
X162560000Y-109220000D01*
X162560000Y-109320000D02*
X162560000Y-58420000D01*
X162560000Y-58420000D02*
X142240000Y-58420000D01*
X157210000Y-65345000D02*
G75*
G02X155210000Y-65345000I-1000000J0D01*
G01*
X155210000Y-65345000D02*
X153560000Y-65345000D01*
X158860000Y-101660000D02*
X158860000Y-65345000D01*
X153560000Y-65345000D02*
X153560000Y-101660000D01*
X158860000Y-65345000D02*
X157210000Y-65345000D01*
X145940000Y-101660000D02*
X158860000Y-101660000D01*
X145940000Y-65345000D02*
X145940000Y-101660000D01*
G04 #@! TO.C,J1*
X188080000Y-125900000D02*
X183820000Y-125900000D01*
X183820000Y-125900000D02*
X183820000Y-138220000D01*
X183820000Y-138220000D02*
X188080000Y-138220000D01*
X192180000Y-125900000D02*
X200540000Y-125900000D01*
X200540000Y-125900000D02*
X200540000Y-138220000D01*
X200540000Y-138220000D02*
X192180000Y-138220000D01*
X183600000Y-130810000D02*
X183100000Y-130310000D01*
X183100000Y-130310000D02*
X183100000Y-131310000D01*
X183100000Y-131310000D02*
X183600000Y-130810000D01*
G04 #@! TO.C,U1*
X174990000Y-87570000D02*
G75*
G02X172990000Y-87570000I-1000000J0D01*
G01*
X172990000Y-87570000D02*
X171340000Y-87570000D01*
X171340000Y-87570000D02*
X171340000Y-113090000D01*
X171340000Y-113090000D02*
X176640000Y-113090000D01*
X176640000Y-113090000D02*
X176640000Y-87570000D01*
X176640000Y-87570000D02*
X174990000Y-87570000D01*
X168850000Y-87510000D02*
X168850000Y-113150000D01*
X168850000Y-113150000D02*
X179130000Y-113150000D01*
X179130000Y-113150000D02*
X179130000Y-87510000D01*
X179130000Y-87510000D02*
X168850000Y-87510000D01*
G04 #@! TO.C,SK1*
X122920000Y-60265000D02*
G75*
G02X120920000Y-60265000I-1000000J0D01*
G01*
X120920000Y-60265000D02*
X115460000Y-60265000D01*
X115460000Y-60265000D02*
X115460000Y-101025000D01*
X115460000Y-101025000D02*
X128380000Y-101025000D01*
X128380000Y-101025000D02*
X128380000Y-60265000D01*
X128380000Y-60265000D02*
X122920000Y-60265000D01*
X112970000Y-60205000D02*
X112970000Y-101085000D01*
X112970000Y-101085000D02*
X130870000Y-101085000D01*
X130870000Y-101085000D02*
X130870000Y-60205000D01*
X130870000Y-60205000D02*
X112970000Y-60205000D01*
D13*
G04 #@! TO.C,U2*
X187625000Y-103260000D02*
X187625000Y-103835000D01*
X193375000Y-103260000D02*
X193375000Y-103910000D01*
X193375000Y-113910000D02*
X193375000Y-113260000D01*
X187625000Y-113910000D02*
X187625000Y-113260000D01*
X187625000Y-103260000D02*
X193375000Y-103260000D01*
X187625000Y-113910000D02*
X193375000Y-113910000D01*
X187625000Y-103835000D02*
X186025000Y-103835000D01*
D10*
G04 #@! TO.C,SW2*
X145780397Y-119380000D02*
X145780397Y-118880000D01*
X145780397Y-119380000D02*
X145780397Y-119880000D01*
X151980397Y-119380000D02*
X151980397Y-118880000D01*
X151980397Y-119380000D02*
X151980397Y-119880000D01*
X148880397Y-122480000D02*
X148380397Y-122480000D01*
X148880397Y-122480000D02*
X149380397Y-122480000D01*
X148880397Y-116280000D02*
X149380397Y-116280000D01*
X148880397Y-116280000D02*
X148380397Y-116280000D01*
X145480397Y-116380000D02*
X144280397Y-116380000D01*
X145780397Y-116380000D02*
X145480397Y-116380000D01*
X145780397Y-116280000D02*
X145780397Y-116380000D01*
X146280397Y-116280000D02*
X145780397Y-116280000D01*
G04 #@! TO.C,SW1*
X170890000Y-135255000D02*
X170890000Y-134755000D01*
X170890000Y-135255000D02*
X170890000Y-135755000D01*
X177090000Y-135255000D02*
X177090000Y-134755000D01*
X177090000Y-135255000D02*
X177090000Y-135755000D01*
X173990000Y-138355000D02*
X173490000Y-138355000D01*
X173990000Y-138355000D02*
X174490000Y-138355000D01*
X173990000Y-132155000D02*
X174490000Y-132155000D01*
X173990000Y-132155000D02*
X173490000Y-132155000D01*
X170590000Y-132255000D02*
X169390000Y-132255000D01*
X170890000Y-132255000D02*
X170590000Y-132255000D01*
X170890000Y-132155000D02*
X170890000Y-132255000D01*
X171390000Y-132155000D02*
X170890000Y-132155000D01*
D14*
G04 #@! TO.C,MH3*
X199136000Y-143510000D02*
G75*
G03X199136000Y-143510000I-2286000J0D01*
G01*
G04 #@! TO.C,MH4*
X107696000Y-143510000D02*
G75*
G03X107696000Y-143510000I-2286000J0D01*
G01*
G04 #@! TO.C,MH2*
X199136000Y-54610000D02*
G75*
G03X199136000Y-54610000I-2286000J0D01*
G01*
G04 #@! TO.C,MH1*
X107696000Y-54610000D02*
G75*
G03X107696000Y-54610000I-2286000J0D01*
G01*
G04 #@! TO.C,Y1*
X180990000Y-88125000D02*
G75*
G03X186040000Y-88125000I2525000J0D01*
G01*
X180990000Y-81875000D02*
G75*
G02X186040000Y-81875000I2525000J0D01*
G01*
X180990000Y-81875000D02*
X180990000Y-88125000D01*
X186040000Y-81875000D02*
X186040000Y-88125000D01*
G04 #@! TO.C,U3*
X198180000Y-62745000D02*
X187900000Y-62745000D01*
X198180000Y-98545000D02*
X198180000Y-62745000D01*
X187900000Y-98545000D02*
X198180000Y-98545000D01*
X187900000Y-62745000D02*
X187900000Y-98545000D01*
X195690000Y-62805000D02*
X194040000Y-62805000D01*
X195690000Y-98485000D02*
X195690000Y-62805000D01*
X190390000Y-98485000D02*
X195690000Y-98485000D01*
X190390000Y-62805000D02*
X190390000Y-98485000D01*
X192040000Y-62805000D02*
X190390000Y-62805000D01*
X194040000Y-62805000D02*
G75*
G02X192040000Y-62805000I-1000000J0D01*
G01*
G04 #@! TO.C,Y2*
D13*
X136683809Y-69826190D02*
X136683809Y-70302380D01*
X136350476Y-69302380D02*
X136683809Y-69826190D01*
X137017142Y-69302380D01*
X137302857Y-69397619D02*
X137350476Y-69350000D01*
X137445714Y-69302380D01*
X137683809Y-69302380D01*
X137779047Y-69350000D01*
X137826666Y-69397619D01*
X137874285Y-69492857D01*
X137874285Y-69588095D01*
X137826666Y-69730952D01*
X137255238Y-70302380D01*
X137874285Y-70302380D01*
G04 #@! TO.C,C16*
X193302142Y-116562142D02*
X193254523Y-116609761D01*
X193111666Y-116657380D01*
X193016428Y-116657380D01*
X192873571Y-116609761D01*
X192778333Y-116514523D01*
X192730714Y-116419285D01*
X192683095Y-116228809D01*
X192683095Y-116085952D01*
X192730714Y-115895476D01*
X192778333Y-115800238D01*
X192873571Y-115705000D01*
X193016428Y-115657380D01*
X193111666Y-115657380D01*
X193254523Y-115705000D01*
X193302142Y-115752619D01*
X194254523Y-116657380D02*
X193683095Y-116657380D01*
X193968809Y-116657380D02*
X193968809Y-115657380D01*
X193873571Y-115800238D01*
X193778333Y-115895476D01*
X193683095Y-115943095D01*
X195111666Y-115657380D02*
X194921190Y-115657380D01*
X194825952Y-115705000D01*
X194778333Y-115752619D01*
X194683095Y-115895476D01*
X194635476Y-116085952D01*
X194635476Y-116466904D01*
X194683095Y-116562142D01*
X194730714Y-116609761D01*
X194825952Y-116657380D01*
X195016428Y-116657380D01*
X195111666Y-116609761D01*
X195159285Y-116562142D01*
X195206904Y-116466904D01*
X195206904Y-116228809D01*
X195159285Y-116133571D01*
X195111666Y-116085952D01*
X195016428Y-116038333D01*
X194825952Y-116038333D01*
X194730714Y-116085952D01*
X194683095Y-116133571D01*
X194635476Y-116228809D01*
G04 #@! TO.C,U4*
X173228095Y-115232380D02*
X173228095Y-116041904D01*
X173275714Y-116137142D01*
X173323333Y-116184761D01*
X173418571Y-116232380D01*
X173609047Y-116232380D01*
X173704285Y-116184761D01*
X173751904Y-116137142D01*
X173799523Y-116041904D01*
X173799523Y-115232380D01*
X174704285Y-115565714D02*
X174704285Y-116232380D01*
X174466190Y-115184761D02*
X174228095Y-115899047D01*
X174847142Y-115899047D01*
G04 #@! TO.C,C15*
X186682142Y-116562142D02*
X186634523Y-116609761D01*
X186491666Y-116657380D01*
X186396428Y-116657380D01*
X186253571Y-116609761D01*
X186158333Y-116514523D01*
X186110714Y-116419285D01*
X186063095Y-116228809D01*
X186063095Y-116085952D01*
X186110714Y-115895476D01*
X186158333Y-115800238D01*
X186253571Y-115705000D01*
X186396428Y-115657380D01*
X186491666Y-115657380D01*
X186634523Y-115705000D01*
X186682142Y-115752619D01*
X187634523Y-116657380D02*
X187063095Y-116657380D01*
X187348809Y-116657380D02*
X187348809Y-115657380D01*
X187253571Y-115800238D01*
X187158333Y-115895476D01*
X187063095Y-115943095D01*
X188539285Y-115657380D02*
X188063095Y-115657380D01*
X188015476Y-116133571D01*
X188063095Y-116085952D01*
X188158333Y-116038333D01*
X188396428Y-116038333D01*
X188491666Y-116085952D01*
X188539285Y-116133571D01*
X188586904Y-116228809D01*
X188586904Y-116466904D01*
X188539285Y-116562142D01*
X188491666Y-116609761D01*
X188396428Y-116657380D01*
X188158333Y-116657380D01*
X188063095Y-116609761D01*
X188015476Y-116562142D01*
G04 #@! TO.C,J2*
X113552380Y-135563333D02*
X114266666Y-135563333D01*
X114409523Y-135610952D01*
X114504761Y-135706190D01*
X114552380Y-135849047D01*
X114552380Y-135944285D01*
X113647619Y-135134761D02*
X113600000Y-135087142D01*
X113552380Y-134991904D01*
X113552380Y-134753809D01*
X113600000Y-134658571D01*
X113647619Y-134610952D01*
X113742857Y-134563333D01*
X113838095Y-134563333D01*
X113980952Y-134610952D01*
X114552380Y-135182380D01*
X114552380Y-134563333D01*
G04 #@! TO.C,J1*
X183816666Y-138517380D02*
X183816666Y-139231666D01*
X183769047Y-139374523D01*
X183673809Y-139469761D01*
X183530952Y-139517380D01*
X183435714Y-139517380D01*
X184816666Y-139517380D02*
X184245238Y-139517380D01*
X184530952Y-139517380D02*
X184530952Y-138517380D01*
X184435714Y-138660238D01*
X184340476Y-138755476D01*
X184245238Y-138803095D01*
G04 #@! TO.C,U1*
X173228095Y-86022380D02*
X173228095Y-86831904D01*
X173275714Y-86927142D01*
X173323333Y-86974761D01*
X173418571Y-87022380D01*
X173609047Y-87022380D01*
X173704285Y-86974761D01*
X173751904Y-86927142D01*
X173799523Y-86831904D01*
X173799523Y-86022380D01*
X174799523Y-87022380D02*
X174228095Y-87022380D01*
X174513809Y-87022380D02*
X174513809Y-86022380D01*
X174418571Y-86165238D01*
X174323333Y-86260476D01*
X174228095Y-86308095D01*
G04 #@! TO.C,U2*
X189738095Y-101787380D02*
X189738095Y-102596904D01*
X189785714Y-102692142D01*
X189833333Y-102739761D01*
X189928571Y-102787380D01*
X190119047Y-102787380D01*
X190214285Y-102739761D01*
X190261904Y-102692142D01*
X190309523Y-102596904D01*
X190309523Y-101787380D01*
X190738095Y-101882619D02*
X190785714Y-101835000D01*
X190880952Y-101787380D01*
X191119047Y-101787380D01*
X191214285Y-101835000D01*
X191261904Y-101882619D01*
X191309523Y-101977857D01*
X191309523Y-102073095D01*
X191261904Y-102215952D01*
X190690476Y-102787380D01*
X191309523Y-102787380D01*
G04 #@! TO.C,Y1*
X183038809Y-78081190D02*
X183038809Y-78557380D01*
X182705476Y-77557380D02*
X183038809Y-78081190D01*
X183372142Y-77557380D01*
X184229285Y-78557380D02*
X183657857Y-78557380D01*
X183943571Y-78557380D02*
X183943571Y-77557380D01*
X183848333Y-77700238D01*
X183753095Y-77795476D01*
X183657857Y-77843095D01*
G04 #@! TO.C,U3*
X192278095Y-61257380D02*
X192278095Y-62066904D01*
X192325714Y-62162142D01*
X192373333Y-62209761D01*
X192468571Y-62257380D01*
X192659047Y-62257380D01*
X192754285Y-62209761D01*
X192801904Y-62162142D01*
X192849523Y-62066904D01*
X192849523Y-61257380D01*
X193230476Y-61257380D02*
X193849523Y-61257380D01*
X193516190Y-61638333D01*
X193659047Y-61638333D01*
X193754285Y-61685952D01*
X193801904Y-61733571D01*
X193849523Y-61828809D01*
X193849523Y-62066904D01*
X193801904Y-62162142D01*
X193754285Y-62209761D01*
X193659047Y-62257380D01*
X193373333Y-62257380D01*
X193278095Y-62209761D01*
X193230476Y-62162142D01*
G04 #@! TD*
M02*
